<svg width="59" height="36" viewBox="0 0 59 36" fill="none" xmlns="http://www.w3.org/2000/svg">
    <path
        d="M35.5778 21.8675H23.2811V16.7438H35.5778M34.0408 28.0158C33.6331 28.0158 33.2421 27.8539 32.9539 27.5656C32.6656 27.2773 32.5037 26.8864 32.5037 26.4787C32.5037 26.0711 32.6656 25.6801 32.9539 25.3918C33.2421 25.1036 33.6331 24.9416 34.0408 24.9416C34.4484 24.9416 34.8394 25.1036 35.1276 25.3918C35.4159 25.6801 35.5778 26.0711 35.5778 26.4787C35.5778 26.8864 35.4159 27.2773 35.1276 27.5656C34.8394 27.8539 34.4484 28.0158 34.0408 28.0158ZM24.8182 28.0158C24.4106 28.0158 24.0196 27.8539 23.7313 27.5656C23.4431 27.2773 23.2811 26.8864 23.2811 26.4787C23.2811 26.0711 23.4431 25.6801 23.7313 25.3918C24.0196 25.1036 24.4106 24.9416 24.8182 24.9416C25.2259 24.9416 25.6169 25.1036 25.9051 25.3918C26.1934 25.6801 26.3553 26.0711 26.3553 26.4787C26.3553 26.8864 26.1934 27.2773 25.9051 27.5656C25.6169 27.8539 25.2259 28.0158 24.8182 28.0158ZM21.2317 26.9911C21.2317 27.8928 21.6313 28.7024 22.2564 29.266V31.09C22.2564 31.3618 22.3644 31.6224 22.5566 31.8146C22.7487 32.0067 23.0094 32.1147 23.2811 32.1147H24.3059C24.5776 32.1147 24.8383 32.0067 25.0305 31.8146C25.2226 31.6224 25.3306 31.3618 25.3306 31.09V30.0653H33.5284V31.09C33.5284 31.3618 33.6364 31.6224 33.8285 31.8146C34.0207 32.0067 34.2813 32.1147 34.5531 32.1147H35.5778C35.8496 32.1147 36.1103 32.0067 36.3024 31.8146C36.4946 31.6224 36.6026 31.3618 36.6026 31.09V29.266C37.2277 28.7024 37.6273 27.8928 37.6273 26.9911V16.7438C37.6273 13.1573 33.9588 12.6449 29.4295 12.6449C24.9002 12.6449 21.2317 13.1573 21.2317 16.7438V26.9911Z"
        fill="currentColor" />
    <path
        d="M58.1218 29.8945C58.1218 14.0481 45.2758 1.20215 29.4295 1.20215C13.5832 1.20215 0.737183 14.0481 0.737183 29.8945"
        stroke="currentColor" stroke-linecap="round" stroke-dasharray="0.5 4" />
</svg>