<svg xmlns="http://www.w3.org/2000/svg" xmlns:xlink="http://www.w3.org/1999/xlink" viewBox="0 0 512 512" width="512"
    height="512" preserveAspectRatio="xMidYMid meet"
    style="width: 100%; height: 100%; transform: translate3d(0px, 0px, 0px); content-visibility: visible;">
    <defs>
        <clipPath id="__lottie_element_1285">
            <rect width="512" height="512" x="0" y="0"></rect>
        </clipPath>
        <clipPath id="__lottie_element_1287">
            <path d="M0,0 L512,0 L512,512 L0,512z"></path>
        </clipPath>
        <clipPath id="__lottie_element_1291">
            <path d="M0,0 L512,0 L512,512 L0,512z"></path>
        </clipPath>
        <clipPath id="__lottie_element_1295">
            <path d="M0,0 L512,0 L512,512 L0,512z"></path>
        </clipPath>
        <clipPath id="__lottie_element_1302">
            <path d="M0,0 L512,0 L512,512 L0,512z"></path>
        </clipPath>
        <clipPath id="__lottie_element_1309">
            <path d="M0,0 L512,0 L512,512 L0,512z"></path>
        </clipPath>
        <clipPath id="__lottie_element_1316">
            <path d="M0,0 L512,0 L512,512 L0,512z"></path>
        </clipPath>
        <clipPath id="__lottie_element_1323">
            <path d="M0,0 L512,0 L512,512 L0,512z"></path>
        </clipPath>
        <clipPath id="__lottie_element_1330">
            <path d="M0,0 L512,0 L512,512 L0,512z"></path>
        </clipPath>
        <clipPath id="__lottie_element_1337">
            <path d="M0,0 L512,0 L512,512 L0,512z"></path>
        </clipPath>
        <clipPath id="__lottie_element_1344">
            <path d="M0,0 L512,0 L512,512 L0,512z"></path>
        </clipPath>
        <clipPath id="__lottie_element_1351">
            <path d="M0,0 L512,0 L512,512 L0,512z"></path>
        </clipPath>
        <clipPath id="__lottie_element_1358">
            <path d="M0,0 L512,0 L512,512 L0,512z"></path>
        </clipPath>
        <clipPath id="__lottie_element_1365">
            <path d="M0,0 L512,0 L512,512 L0,512z"></path>
        </clipPath>
    </defs>
    <g clip-path="url(#__lottie_element_1285)">
        <g clip-path="url(#__lottie_element_1287)" transform="matrix(1,0,0,1,0,0)" opacity="1" style="display: block;">
            <g transform="matrix(1,0,0,1,236.86801147460938,273.0199890136719)" opacity="1" style="display: block;">
                <g opacity="1" transform="matrix(1,0,0,1,146.59100341796875,112.11599731445312)">
                    <path fill="rgb(0,206,142)" fill-opacity="1"
                        d=" M110.6259994506836,32.874000549316406 C111.28700256347656,20.64900016784668 111.28700256347656,6.553999900817871 110.59100341796875,-5.485000133514404 C110.0469970703125,-14.897000312805176 112.322998046875,-24.21299934387207 116.87999725341797,-32.46699905395508 C119.0260009765625,-36.354000091552734 119.44400024414062,-40.32600021362305 117.61699676513672,-43.362998962402344 C115.6729965209961,-46.59400177001953 111.59400177001953,-48.08599853515625 106.75499725341797,-47.78300094604492 C96.90799713134766,-47.16899871826172 87.06099700927734,-49.196998596191406 78.51799774169922,-54.13199996948242 C21.41699981689453,-87.11599731445312 -65.01899719238281,-78.52200317382812 -106.70999908447266,-32.67100143432617 C-106.70999908447266,-32.67100143432617 -106.71099853515625,3.4170000553131104 -106.71099853515625,30.9950008392334 C-106.71099853515625,41.78900146484375 -100.45600128173828,52.13600158691406 -106.81700134277344,60.85599899291992 C-110.5,65.90599822998047 -111.59100341796875,71.46900177001953 -108.98200225830078,75.26399993896484 C-106.50199890136719,78.87200164794922 -101.29100036621094,79.95600128173828 -95.52999877929688,78.60099792480469 C-86.47899627685547,76.47100067138672 -77.02300262451172,76.76000213623047 -68.21199798583984,79.72899627685547 C-46.75600051879883,86.95800018310547 -29.816999435424805,87.11599731445312 -0.5550000071525574,87.11599731445312 C28.968000411987305,87.11599731445312 56.13100051879883,86.95800018310547 77.68099975585938,79.53800201416016 C86.66000366210938,76.4469985961914 96.31199645996094,76.30599975585938 105.56099700927734,78.46199798583984 C111.43000030517578,79.83000183105469 116.81400299072266,78.76599884033203 119.322998046875,74.96700286865234 C121.59200286865234,71.53199768066406 120.88999938964844,66.7020034790039 117.9530029296875,62.119998931884766 C112.40599822998047,53.46699905395508 110.07099914550781,43.137001037597656 110.6259994506836,32.874000549316406z">
                    </path>
                    <path stroke-linecap="round" stroke-linejoin="round" fill-opacity="0" stroke="rgb(6,145,78)"
                        stroke-opacity="1" stroke-width="10"
                        d=" M110.6259994506836,32.874000549316406 C111.28700256347656,20.64900016784668 111.28700256347656,6.553999900817871 110.59100341796875,-5.485000133514404 C110.0469970703125,-14.897000312805176 112.322998046875,-24.21299934387207 116.87999725341797,-32.46699905395508 C119.0260009765625,-36.354000091552734 119.44400024414062,-40.32600021362305 117.61699676513672,-43.362998962402344 C115.6729965209961,-46.59400177001953 111.59400177001953,-48.08599853515625 106.75499725341797,-47.78300094604492 C96.90799713134766,-47.16899871826172 87.06099700927734,-49.196998596191406 78.51799774169922,-54.13199996948242 C21.41699981689453,-87.11599731445312 -65.01899719238281,-78.52200317382812 -106.70999908447266,-32.67100143432617 C-106.70999908447266,-32.67100143432617 -106.71099853515625,3.4170000553131104 -106.71099853515625,30.9950008392334 C-106.71099853515625,41.78900146484375 -100.45600128173828,52.13600158691406 -106.81700134277344,60.85599899291992 C-110.5,65.90599822998047 -111.59100341796875,71.46900177001953 -108.98200225830078,75.26399993896484 C-106.50199890136719,78.87200164794922 -101.29100036621094,79.95600128173828 -95.52999877929688,78.60099792480469 C-86.47899627685547,76.47100067138672 -77.02300262451172,76.76000213623047 -68.21199798583984,79.72899627685547 C-46.75600051879883,86.95800018310547 -29.816999435424805,87.11599731445312 -0.5550000071525574,87.11599731445312 C28.968000411987305,87.11599731445312 56.13100051879883,86.95800018310547 77.68099975585938,79.53800201416016 C86.66000366210938,76.4469985961914 96.31199645996094,76.30599975585938 105.56099700927734,78.46199798583984 C111.43000030517578,79.83000183105469 116.81400299072266,78.76599884033203 119.322998046875,74.96700286865234 C121.59200286865234,71.53199768066406 120.88999938964844,66.7020034790039 117.9530029296875,62.119998931884766 C112.40599822998047,53.46699905395508 110.07099914550781,43.137001037597656 110.6259994506836,32.874000549316406z">
                    </path>
                </g>
            </g>
            <g transform="matrix(1,0,0,1,170.39599609375,365.94500732421875)" opacity="1" style="display: block;">
                <g opacity="1" transform="matrix(1,0,0,1,70.41899871826172,67.38400268554688)">
                    <path fill="rgb(255,212,39)" fill-opacity="1"
                        d=" M45.11000061035156,-4.421000003814697 C45.41899871826172,42.38399887084961 -4.263000011444092,38.76499938964844 -17.034000396728516,29.312999725341797 C-45.41899871826172,8.303999900817871 -39.31100082397461,-22.740999221801758 -32.94900131225586,-29.673999786376953 C-21.288999557495117,-42.38399887084961 -7.185999870300293,-4.98799991607666 15.567999839782715,-13.159000396728516">
                    </path>
                    <path stroke-linecap="round" stroke-linejoin="round" fill-opacity="0" stroke="rgb(249,143,22)"
                        stroke-opacity="1" stroke-width="10"
                        d=" M45.11000061035156,-4.421000003814697 C45.41899871826172,42.38399887084961 -4.263000011444092,38.76499938964844 -17.034000396728516,29.312999725341797 C-45.41899871826172,8.303999900817871 -39.31100082397461,-22.740999221801758 -32.94900131225586,-29.673999786376953 C-21.288999557495117,-42.38399887084961 -7.185999870300293,-4.98799991607666 15.567999839782715,-13.159000396728516">
                    </path>
                </g>
            </g>
            <g transform="matrix(1,0,0,1.0000401735305786,86.1050033569336,123.02322387695312)" opacity="1"
                style="display: block;">
                <g opacity="1" transform="matrix(1,0,0,1,123.01699829101562,179.6009979248047)">
                    <path fill="rgb(255,212,39)" fill-opacity="1"
                        d=" M10.029000282287598,128.35400390625 C2.5329999923706055,128.35400390625 -4.484000205993652,128.07000732421875 -10.673999786376953,127.81900024414062 C-10.673999786376953,127.81900024414062 -14.336999893188477,127.6709976196289 -14.336999893188477,127.6709976196289 C-40.05500030517578,126.68499755859375 -62.40399932861328,110.83200073242188 -77.26599884033203,83.02899932861328 C-91.16500091552734,57.02899932861328 -98.01799774169922,21.785999298095703 -96.56099700927734,-16.209999084472656 C-95.1510009765625,-53.012001037597656 -87.66300201416016,-76.53299713134766 -72.28500366210938,-92.4749984741211 C-58.19300079345703,-107.08300018310547 -38.96099853515625,-113.927001953125 -13.331000328063965,-122.00199890136719 C0.05000000074505806,-126.21700286865234 12.472000122070312,-128.35499572753906 23.59000015258789,-128.35499572753906 C42.816001892089844,-128.35499572753906 58.612998962402344,-122.06999969482422 70.54299926757812,-109.67500305175781 C89.38500213623047,-90.09700012207031 98.01799774169922,-56.165000915527344 96.2020034790039,-8.819999694824219 C95.85800170898438,0.18799999356269836 96.08200073242188,10.059000015258789 96.31999969482422,20.510000228881836 C97.052001953125,52.47800064086914 97.80799865722656,85.53399658203125 82.85399627685547,104.56400299072266 C66.09600067138672,125.88800048828125 33.26599884033203,128.35400390625 10.029000282287598,128.35400390625z">
                    </path>
                    <path stroke-linecap="butt" stroke-linejoin="miter" fill-opacity="0" stroke-miterlimit="10"
                        stroke="rgb(249,143,22)" stroke-opacity="1" stroke-width="10"
                        d=" M10.029000282287598,128.35400390625 C2.5329999923706055,128.35400390625 -4.484000205993652,128.07000732421875 -10.673999786376953,127.81900024414062 C-10.673999786376953,127.81900024414062 -14.336999893188477,127.6709976196289 -14.336999893188477,127.6709976196289 C-40.05500030517578,126.68499755859375 -62.40399932861328,110.83200073242188 -77.26599884033203,83.02899932861328 C-91.16500091552734,57.02899932861328 -98.01799774169922,21.785999298095703 -96.56099700927734,-16.209999084472656 C-95.1510009765625,-53.012001037597656 -87.66300201416016,-76.53299713134766 -72.28500366210938,-92.4749984741211 C-58.19300079345703,-107.08300018310547 -38.96099853515625,-113.927001953125 -13.331000328063965,-122.00199890136719 C0.05000000074505806,-126.21700286865234 12.472000122070312,-128.35499572753906 23.59000015258789,-128.35499572753906 C42.816001892089844,-128.35499572753906 58.612998962402344,-122.06999969482422 70.54299926757812,-109.67500305175781 C89.38500213623047,-90.09700012207031 98.01799774169922,-56.165000915527344 96.2020034790039,-8.819999694824219 C95.85800170898438,0.18799999356269836 96.08200073242188,10.059000015258789 96.31999969482422,20.510000228881836 C97.052001953125,52.47800064086914 97.80799865722656,85.53399658203125 82.85399627685547,104.56400299072266 C66.09600067138672,125.88800048828125 33.26599884033203,128.35400390625 10.029000282287598,128.35400390625z">
                    </path>
                </g>
            </g>
            <g transform="matrix(0.9986295104026794,0.0523359552025795,-0.0523359552025795,0.9986295104026794,97.14421081542969,108.46096801757812)"
                opacity="1" style="display: block;">
                <g opacity="1" transform="matrix(1,0,0,1,288.3110046386719,172.86700439453125)">
                    <path fill="rgb(255,212,39)" fill-opacity="1"
                        d=" M-115.03299713134766,-95.72200012207031 C-103.39700317382812,-133.2570037841797 -64.8740005493164,-147.86700439453125 -25.242000579833984,-146.3470001220703 C46.707000732421875,-143.58900451660156 115.03299713134766,-75.62899780273438 111.9469985961914,4.854000091552734 C108.86100006103516,85.33799743652344 35.53200149536133,147.86700439453125 -36.41600036621094,145.10800170898438 C-66.7699966430664,143.94500732421875 -92.02899932861328,131.3459930419922 -110.85800170898438,111.125">
                    </path>
                    <path stroke-linecap="round" stroke-linejoin="miter" fill-opacity="0" stroke-miterlimit="10"
                        stroke="rgb(249,143,22)" stroke-opacity="1" stroke-width="10"
                        d=" M-115.03299713134766,-95.72200012207031 C-103.39700317382812,-133.2570037841797 -64.8740005493164,-147.86700439453125 -25.242000579833984,-146.3470001220703 C46.707000732421875,-143.58900451660156 115.03299713134766,-75.62899780273438 111.9469985961914,4.854000091552734 C108.86100006103516,85.33799743652344 35.53200149536133,147.86700439453125 -36.41600036621094,145.10800170898438 C-66.7699966430664,143.94500732421875 -92.02899932861328,131.3459930419922 -110.85800170898438,111.125">
                    </path>
                </g>
            </g>
            <g transform="matrix(0.5906338691711426,-0.8069396615028381,0.8069396615028381,0.5906338691711426,207.99850463867188,223.97299194335938)"
                opacity="1" style="display: block;">
                <g opacity="1" transform="matrix(1,0,0,1,119.29199981689453,93.14900207519531)">
                    <path stroke-linecap="round" stroke-linejoin="round" fill-opacity="0" stroke="rgb(255,255,255)"
                        stroke-opacity="1" stroke-width="10"
                        d=" M-36.94200134277344,-47.09199905395508 C11.01200008392334,-37.2130012512207 31.715999603271484,25.70199966430664 26.253000259399414,51.875">
                    </path>
                </g>
                <g opacity="1" transform="matrix(1,0,0,1,34.5369987487793,25.79800033569336)">
                    <path stroke-linecap="round" stroke-linejoin="round" fill-opacity="0" stroke="rgb(255,255,255)"
                        stroke-opacity="1" stroke-width="10"
                        d=" M105.44200134277344,143.1959991455078 C104.71399688720703,149.04299926757812 103.34400177001953,154.95199584960938 101.28800201416016,160.88400268554688">
                    </path>
                </g>
            </g>
            <g transform="matrix(0.9708476662635803,0.05087997019290924,-0.035412076860666275,0.675702691078186,258.0243835449219,364.2417297363281)"
                opacity="1" style="display: block;">
                <g opacity="1" transform="matrix(1,0,0,1,96.88099670410156,43.551998138427734)">
                    <path stroke-linecap="round" stroke-linejoin="round" fill-opacity="0" stroke="rgb(251,237,32)"
                        stroke-opacity="1" stroke-width="10"
                        d=" M71.88099670410156,-18.552000045776367 C49.178001403808594,4.6529998779296875 18.40399932861328,18.552000045776367 -12.041999816894531,17.384000778198242 C-33.58399963378906,16.558000564575195 -51.92599868774414,8.305999755859375 -66.33100128173828,-5.189000129699707">
                    </path>
                </g>
            </g>
            <g transform="matrix(0.9986295104026794,0.0523359552025795,-0.0523359552025795,0.9986295104026794,300.6424560546875,262.13385009765625)"
                opacity="1" style="display: block;">
                <g opacity="1" transform="matrix(1,0,0,1,63.525001525878906,89.07499694824219)">
                    <path fill="rgb(255,92,30)" fill-opacity="1"
                        d=" M-5.130000114440918,68.43599700927734 C-22.340999603271484,69.07499694824219 -26.099000930786133,55.678001403808594 -37.32500076293945,19.292999267578125 C-42.599998474121094,2.197000026702881 -43.525001525878906,-13.946999549865723 -41.779998779296875,-26.142000198364258 C-38.47100067138672,-49.2760009765625 -20.860000610351562,-69.07499694824219 -0.4560000002384186,-32.27899932861328 C14.593000411987305,-5.138999938964844 36.46099853515625,-23.76300048828125 39.6510009765625,-5.7270002365112305 C43.525001525878906,16.17799949645996 12.836999893188477,20.400999069213867 13.904999732971191,41.77199935913086 C15.1899995803833,67.49600219726562 1.8700000047683716,68.1760025024414 -5.130000114440918,68.43599700927734z">
                    </path>
                    <path stroke-linecap="butt" stroke-linejoin="miter" fill-opacity="0" stroke-miterlimit="10"
                        stroke="rgb(207,53,2)" stroke-opacity="1" stroke-width="8"
                        d=" M-5.130000114440918,68.43599700927734 C-22.340999603271484,69.07499694824219 -26.099000930786133,55.678001403808594 -37.32500076293945,19.292999267578125 C-42.599998474121094,2.197000026702881 -43.525001525878906,-13.946999549865723 -41.779998779296875,-26.142000198364258 C-38.47100067138672,-49.2760009765625 -20.860000610351562,-69.07499694824219 -0.4560000002384186,-32.27899932861328 C14.593000411987305,-5.138999938964844 36.46099853515625,-23.76300048828125 39.6510009765625,-5.7270002365112305 C43.525001525878906,16.17799949645996 12.836999893188477,20.400999069213867 13.904999732971191,41.77199935913086 C15.1899995803833,67.49600219726562 1.8700000047683716,68.1760025024414 -5.130000114440918,68.43599700927734z">
                    </path>
                </g>
            </g>
            <g transform="matrix(0.9986295104026794,0.0523359552025795,-0.0523359552025795,0.9986295104026794,313.21044921875,308.66436767578125)"
                opacity="1" style="display: block;">
                <g opacity="1" transform="matrix(1,0,0,1,33.560001373291016,59.98699951171875)">
                    <path stroke-linecap="round" stroke-linejoin="round" fill-opacity="0" stroke="rgb(124,8,8)"
                        stroke-opacity="1" stroke-width="10.008"
                        d=" M-7.989999771118164,-35.715999603271484 C-7.638000011444092,-39.69900131225586 -7.3420000076293945,-38.4900016784668 -7.715000152587891,-35.720001220703125 C-11.861000061035156,-4.960999965667725 1.902999997138977,23.607999801635742 7.958000183105469,34.05500030517578 C9.630999565124512,36.941001892089844 10.996000289916992,38.222999572753906 8.50100040435791,34.21900177001953 C-6.568999767303467,10.032999992370605 -9.545999526977539,-18.100000381469727 -7.989999771118164,-35.715999603271484z">
                    </path>
                    <path fill="rgb(125,9,9)" fill-opacity="1"
                        d=" M-7.989999771118164,-35.715999603271484 C-7.638000011444092,-39.69900131225586 -7.3420000076293945,-38.4900016784668 -7.715000152587891,-35.720001220703125 C-11.861000061035156,-4.960999965667725 1.902999997138977,23.607999801635742 7.958000183105469,34.05500030517578 C9.630999565124512,36.941001892089844 10.996000289916992,38.222999572753906 8.50100040435791,34.21900177001953 C-6.568999767303467,10.032999992370605 -9.545999526977539,-18.100000381469727 -7.989999771118164,-35.715999603271484z">
                    </path>
                </g>
            </g>
            <g transform="matrix(0.9986295104026794,0.0523359552025795,-0.0523359552025795,0.9986295104026794,320.680908203125,290.6806945800781)"
                opacity="1" style="display: block;">
                <g opacity="1" transform="matrix(1,0,0,1,45.24300003051758,41.117000579833984)">
                    <path stroke-linecap="round" stroke-linejoin="round" fill-opacity="0" stroke="rgb(255,180,132)"
                        stroke-opacity="1" stroke-width="8"
                        d=" M-20.243000030517578,-16.117000579833984 C-15.781999588012695,-1.3270000219345093 -5.638000011444092,7.10099983215332 4.986000061035156,11.73900032043457">
                    </path>
                </g>
            </g>
            <g transform="matrix(0.9986295104026794,0.0523359552025795,-0.0523359552025795,0.9986295104026794,349.55810546875,242.5941162109375)"
                opacity="1" style="display: block;">
                <g opacity="1" transform="matrix(1,0,0,1,39.55400085449219,49.24100112915039)">
                    <path stroke-linecap="round" stroke-linejoin="round" fill-opacity="0" stroke="rgb(0,0,0)"
                        stroke-opacity="1" stroke-width="10.008"
                        d=" M-1.4010000228881836,-24.22100067138672 C-14.534000396728516,-9.87399959564209 -3.9509999752044678,22.62700080871582 14.534000396728516,24.22100067138672">
                    </path>
                </g>
            </g>
            <g transform="matrix(0.9986295104026794,0.0523359552025795,-0.0523359552025795,0.9986295104026794,372.2005615234375,355.338623046875)"
                opacity="1" style="display: block;">
                <g opacity="1" transform="matrix(1,0,0,1,32.42499923706055,40.04899978637695)">
                    <path stroke-linecap="round" stroke-linejoin="round" fill-opacity="0" stroke="rgb(0,0,0)"
                        stroke-opacity="1" stroke-width="10.008"
                        d=" M1.6729999780654907,-15.029000282287598 C-7.40500020980835,-5.736999988555908 -3.4019999504089355,9.5649995803833 7.40500020980835,15.029000282287598">
                    </path>
                </g>
            </g>
            <g transform="matrix(1,0,0,1.0000401735305786,-24.51300048828125,126.36380004882812)" opacity="1"
                style="display: block;">
                <g opacity="1" transform="matrix(1,0,0,1,146.2760009765625,194.60400390625)">
                    <path fill="rgb(0,206,142)" fill-opacity="1"
                        d=" M124.51300048828125,133.72799682617188 C71.73699951171875,85.03800201416016 91.23200225830078,-104.56400299072266 113.1780014038086,-150.7949981689453 C109.4020004272461,-169.60400390625 31.663999557495117,-161.0189971923828 29.0939998626709,-139.56900024414062 C-92.18900299072266,-124.10399627685547 -121.2760009765625,2.986999988555908 -104.17400360107422,123.01599884033203 C-103.052001953125,136 -123.78299713134766,145.84300231933594 -111.78199768066406,162.44900512695312 C-97.26300048828125,182.53799438476562 26.89900016784668,175.68299865722656 66.10700225830078,173.28799438476562 C131.23699951171875,169.3090057373047 155.46200561523438,162.27999877929688 124.51300048828125,133.72799682617188z">
                    </path>
                </g>
            </g>
            <g transform="matrix(1,0,0,0.9686589241027832,256,263.0252990722656)" opacity="1" style="display: block;">
                <g opacity="1" transform="matrix(1,0,0,1,0,0)">
                    <path fill="rgb(20,226,162)" fill-opacity="1"
                        d=" M-76,-97 C-101.5,-94.5 -107.5,-77 -108,-76.5 C-139,-74.5 -196,-55.5 -215,-0.5 C-234,54.5 -226.85699462890625,92.47000122070312 -195,90 C-130.5,85 -147.5,-35 -114.5,-38.5 C-131,63 -77.18299865722656,35.077999114990234 -71.5,16 C-64.5,-7.5 -60.12099838256836,-26.020999908447266 -58,-38 C-49.5,-86 -50.5,-99.5 -76,-97z">
                    </path>
                </g>
            </g>
            <g transform="matrix(1,0,0,1.0000401735305786,-24.51300048828125,126.36380004882812)" opacity="1"
                style="display: block;">
                <g opacity="1" transform="matrix(1,0,0,1,146.2760009765625,194.60400390625)"></g>
                <g opacity="1" transform="matrix(1,0,0,1,144.52000427246094,194.60400390625)">
                    <path stroke-linecap="round" stroke-linejoin="round" fill-opacity="0" stroke="rgb(6,145,78)"
                        stroke-opacity="1" stroke-width="10"
                        d=" M126.2699966430664,133.72799682617188 C73.49400329589844,85.03800201416016 92.98899841308594,-104.56400299072266 114.93499755859375,-150.7949981689453 C111.15899658203125,-169.60400390625 33.42100143432617,-161.0189971923828 30.85099983215332,-139.56900024414062 C-90.43199920654297,-124.10399627685547 -119.51899719238281,2.986999988555908 -102.41699981689453,123.01599884033203 C-101.29499816894531,136 -122.0260009765625,145.84300231933594 -110.0250015258789,162.44900512695312 C-95.50599670410156,182.53799438476562 28.655000686645508,175.68299865722656 67.86299896240234,173.28799438476562 C132.9929962158203,169.3090057373047 157.218994140625,162.27999877929688 126.2699966430664,133.72799682617188z">
                    </path>
                </g>
            </g>
            <g transform="matrix(1,0,0,1.0000401735305786,105.91900634765625,156.40000915527344)" opacity="1"
                style="display: block;">
                <g opacity="1" transform="matrix(1,0,0,1,38.43299865722656,262.81201171875)">
                    <path stroke-linecap="round" stroke-linejoin="round" fill-opacity="0" stroke="rgb(6,145,78)"
                        stroke-opacity="1" stroke-width="10"
                        d=" M-2.8010001182556152,-17.4060001373291 C-1.312000036239624,-5.940999984741211 0.5379999876022339,5.685999870300293 2.8010001182556152,17.4060001373291">
                    </path>
                </g>
                <g opacity="1" transform="matrix(1,0,0,1,34.96900177001953,122.36799621582031)">
                    <path stroke-linecap="round" stroke-linejoin="round" fill-opacity="0" stroke="rgb(6,145,78)"
                        stroke-opacity="1" stroke-width="10"
                        d=" M9.968999862670898,-97.36799621582031 C3.177000045776367,-69.53399658203125 -9.968999862670898,7.038000106811523 -2.114000082015991,97.36799621582031">
                    </path>
                </g>
            </g>
            <g transform="matrix(0.9883933663368225,-0.15192249417304993,0.15191638469696045,0.9884330630302429,177.5322723388672,313.2119140625)"
                opacity="1" style="display: block;">
                <g opacity="1" transform="matrix(1,0,0,1,71.48400115966797,85.76699829101562)">
                    <path fill="rgb(139,97,57)" fill-opacity="1"
                        d=" M33.604000091552734,28.9950008392334 C32.48099899291992,28.95199966430664 31.3799991607666,29.025999069213867 30.305999755859375,29.180999755859375 C34.71699905395508,20.22599983215332 36.55799865722656,8.51200008392334 33.827999114990234,-6.583000183105469 C32.071998596191406,-16.29800033569336 28.841999053955078,-23.67300033569336 24.684999465942383,-29.22100067138672 C33.04899978637695,-30.591999053955078 39.57699966430664,-37.69200134277344 39.91400146484375,-46.49100112915039 C40.29999923706055,-56.53900146484375 32.465999603271484,-64.99700164794922 22.417999267578125,-65.38200378417969 C12.369999885559082,-65.76699829101562 3.9130001068115234,-57.93299865722656 3.5280001163482666,-47.8849983215332 C3.4630000591278076,-46.189998626708984 3.6500000953674316,-44.547000885009766 4.02400016784668,-42.9739990234375 C-6.873000144958496,-45.909000396728516 -18.45800018310547,-44.63999938964844 -26.84600067138672,-42.7859992980957 C-45.507999420166016,-38.6619987487793 -51.48500061035156,-8.99899959564209 -47.349998474121094,9.378999710083008 C-43.21500015258789,27.757999420166016 -34.125999450683594,57.999000549316406 -6.071000099182129,53.95000076293945 C0.6299999952316284,52.983001708984375 8.048999786376953,50.5880012512207 14.72599983215332,46.34600067138672 C14.723999977111816,46.39500045776367 14.71500015258789,46.44200134277344 14.713000297546387,46.49100112915039 C14.32800006866455,56.53900146484375 22.15999984741211,64.99600219726562 32.20800018310547,65.38200378417969 C42.25600051879883,65.76699829101562 50.7140007019043,57.933998107910156 51.0989990234375,47.88600158691406 C51.48400115966797,37.8380012512207 43.652000427246094,29.3799991607666 33.604000091552734,28.9950008392334z">
                    </path>
                    <path stroke-linecap="round" stroke-linejoin="round" fill-opacity="0" stroke="rgb(95,56,19)"
                        stroke-opacity="1" stroke-width="12"
                        d=" M33.604000091552734,28.9950008392334 C32.48099899291992,28.95199966430664 31.3799991607666,29.025999069213867 30.305999755859375,29.180999755859375 C34.71699905395508,20.22599983215332 36.55799865722656,8.51200008392334 33.827999114990234,-6.583000183105469 C32.071998596191406,-16.29800033569336 28.841999053955078,-23.67300033569336 24.684999465942383,-29.22100067138672 C33.04899978637695,-30.591999053955078 39.57699966430664,-37.69200134277344 39.91400146484375,-46.49100112915039 C40.29999923706055,-56.53900146484375 32.465999603271484,-64.99700164794922 22.417999267578125,-65.38200378417969 C12.369999885559082,-65.76699829101562 3.9130001068115234,-57.93299865722656 3.5280001163482666,-47.8849983215332 C3.4630000591278076,-46.189998626708984 3.6500000953674316,-44.547000885009766 4.02400016784668,-42.9739990234375 C-6.873000144958496,-45.909000396728516 -18.45800018310547,-44.63999938964844 -26.84600067138672,-42.7859992980957 C-45.507999420166016,-38.6619987487793 -51.48500061035156,-8.99899959564209 -47.349998474121094,9.378999710083008 C-43.21500015258789,27.757999420166016 -34.125999450683594,57.999000549316406 -6.071000099182129,53.95000076293945 C0.6299999952316284,52.983001708984375 8.048999786376953,50.5880012512207 14.72599983215332,46.34600067138672 C14.723999977111816,46.39500045776367 14.71500015258789,46.44200134277344 14.713000297546387,46.49100112915039 C14.32800006866455,56.53900146484375 22.15999984741211,64.99600219726562 32.20800018310547,65.38200378417969 C42.25600051879883,65.76699829101562 50.7140007019043,57.933998107910156 51.0989990234375,47.88600158691406 C51.48400115966797,37.8380012512207 43.652000427246094,29.3799991607666 33.604000091552734,28.9950008392334z">
                    </path>
                </g>
            </g>
            <g transform="matrix(0.9883933663368225,-0.15192249417304993,0.15191638469696045,0.9884330630302429,177.5322723388672,313.2119140625)"
                opacity="1" style="display: block;">
                <g opacity="1" transform="matrix(1,0,0,1,71.48400115966797,85.76699829101562)">
                    <path fill="rgb(139,97,57)" fill-opacity="1"
                        d=" M33.604000091552734,28.9950008392334 C32.48099899291992,28.95199966430664 31.3799991607666,29.025999069213867 30.305999755859375,29.180999755859375 C34.71699905395508,20.22599983215332 36.55799865722656,8.51200008392334 33.827999114990234,-6.583000183105469 C32.071998596191406,-16.29800033569336 28.841999053955078,-23.67300033569336 24.684999465942383,-29.22100067138672 C33.04899978637695,-30.591999053955078 39.57699966430664,-37.69200134277344 39.91400146484375,-46.49100112915039 C40.29999923706055,-56.53900146484375 32.465999603271484,-64.99700164794922 22.417999267578125,-65.38200378417969 C12.369999885559082,-65.76699829101562 3.9130001068115234,-57.93299865722656 3.5280001163482666,-47.8849983215332 C3.4630000591278076,-46.189998626708984 3.6500000953674316,-44.547000885009766 4.02400016784668,-42.9739990234375 C-6.873000144958496,-45.909000396728516 -18.45800018310547,-44.63999938964844 -26.84600067138672,-42.7859992980957 C-45.507999420166016,-38.6619987487793 -51.48500061035156,-8.99899959564209 -47.349998474121094,9.378999710083008 C-43.21500015258789,27.757999420166016 -34.125999450683594,57.999000549316406 -6.071000099182129,53.95000076293945 C0.6299999952316284,52.983001708984375 8.048999786376953,50.5880012512207 14.72599983215332,46.34600067138672 C14.723999977111816,46.39500045776367 14.71500015258789,46.44200134277344 14.713000297546387,46.49100112915039 C14.32800006866455,56.53900146484375 22.15999984741211,64.99600219726562 32.20800018310547,65.38200378417969 C42.25600051879883,65.76699829101562 50.7140007019043,57.933998107910156 51.0989990234375,47.88600158691406 C51.48400115966797,37.8380012512207 43.652000427246094,29.3799991607666 33.604000091552734,28.9950008392334z">
                    </path>
                    <path stroke-linecap="round" stroke-linejoin="round" fill-opacity="0" stroke="rgb(95,56,19)"
                        stroke-opacity="1" stroke-width="8"
                        d=" M33.604000091552734,28.9950008392334 C32.48099899291992,28.95199966430664 31.3799991607666,29.025999069213867 30.305999755859375,29.180999755859375 C34.71699905395508,20.22599983215332 36.55799865722656,8.51200008392334 33.827999114990234,-6.583000183105469 C32.071998596191406,-16.29800033569336 28.841999053955078,-23.67300033569336 24.684999465942383,-29.22100067138672 C33.04899978637695,-30.591999053955078 39.57699966430664,-37.69200134277344 39.91400146484375,-46.49100112915039 C40.29999923706055,-56.53900146484375 32.465999603271484,-64.99700164794922 22.417999267578125,-65.38200378417969 C12.369999885559082,-65.76699829101562 3.9130001068115234,-57.93299865722656 3.5280001163482666,-47.8849983215332 C3.4630000591278076,-46.189998626708984 3.6500000953674316,-44.547000885009766 4.02400016784668,-42.9739990234375 C-6.873000144958496,-45.909000396728516 -18.45800018310547,-44.63999938964844 -26.84600067138672,-42.7859992980957 C-45.507999420166016,-38.6619987487793 -51.48500061035156,-8.99899959564209 -47.349998474121094,9.378999710083008 C-43.21500015258789,27.757999420166016 -34.125999450683594,57.999000549316406 -6.071000099182129,53.95000076293945 C0.6299999952316284,52.983001708984375 8.048999786376953,50.5880012512207 14.72599983215332,46.34600067138672 C14.723999977111816,46.39500045776367 14.71500015258789,46.44200134277344 14.713000297546387,46.49100112915039 C14.32800006866455,56.53900146484375 22.15999984741211,64.99600219726562 32.20800018310547,65.38200378417969 C42.25600051879883,65.76699829101562 50.7140007019043,57.933998107910156 51.0989990234375,47.88600158691406 C51.48400115966797,37.8380012512207 43.652000427246094,29.3799991607666 33.604000091552734,28.9950008392334z">
                    </path>
                </g>
            </g>
            <g transform="matrix(0.9883933663368225,-0.15192249417304993,0.15191638469696045,0.9884330630302429,222.15817260742188,358.6001281738281)"
                opacity="1" style="display: block;">
                <g opacity="1" transform="matrix(1,0,0,1,14.717000007629395,17.393999099731445)">
                    <path stroke-linecap="round" stroke-linejoin="round" fill-opacity="0" stroke="rgb(0,0,0)"
                        stroke-opacity="1" stroke-width="5"
                        d=" M2.2179999351501465,4.6479997634887695 C0.289000004529953,4.89300012588501 -1.5479999780654907,2.9570000171661377 -1.8830000162124634,0.32199999690055847 C-2.2179999351501465,-2.312000036239624 -0.925000011920929,-4.6479997634887695 1.003999948501587,-4.894000053405762">
                    </path>
                </g>
                <g opacity="1" transform="matrix(1,0,0,1,20.101999282836914,61.558998107910156)">
                    <path stroke-linecap="round" stroke-linejoin="round" fill-opacity="0" stroke="rgb(0,0,0)"
                        stroke-opacity="1" stroke-width="5"
                        d=" M2.2179999351501465,4.6479997634887695 C0.289000004529953,4.89300012588501 -1.5479999780654907,2.9570000171661377 -1.8830000162124634,0.32199999690055847 C-2.2179999351501465,-2.312000036239624 -0.925000011920929,-4.6479997634887695 1.003999948501587,-4.894000053405762">
                    </path>
                </g>
            </g>
            <g transform="matrix(0.9883933663368225,-0.15192249417304993,0.15191638469696045,0.9884330630302429,227.63323974609375,383.02581787109375)"
                opacity="1" style="display: block;">
                <g opacity="1" transform="matrix(1,0,0,1,13.034000396728516,15.845000267028809)">
                    <path fill="rgb(255,255,255)" fill-opacity="1"
                        d=" M11.286999702453613,-2.5 C12.78499984741211,5.376999855041504 10.459003448486328,12.168000221252441 2.711003303527832,13.907999992370605 C-4.800996780395508,15.593999862670898 -9.802302360534668,9.670821189880371 -11.300302505493164,1.7948212623596191 C-12.79730224609375,-6.082178592681885 -10.815999984741211,-13.513999938964844 -2.7119998931884766,-14.616000175476074 C4.488999843597412,-15.595000267028809 9.788999557495117,-10.376999855041504 11.286999702453613,-2.5z">
                    </path>
                </g>
            </g>
            <g transform="matrix(0.9883933663368225,-0.15192249417304993,0.15191638469696045,0.9884330630302429,239.10501098632812,392.33148193359375)"
                opacity="1" style="display: block;">
                <g opacity="1" transform="matrix(1,0,0,1,4.3460001945495605,4.3470001220703125)">
                    <path fill="rgb(0,0,0)" fill-opacity="1"
                        d=" M4.01200008392334,0.15399999916553497 C3.927000045776367,2.369999885559082 2.061000108718872,4.0970001220703125 -0.15399999916553497,4.01200008392334 C-2.369999885559082,3.927000045776367 -4.0970001220703125,2.061000108718872 -4.01200008392334,-0.1550000011920929 C-3.927000045776367,-2.369999885559082 -2.061000108718872,-4.0970001220703125 0.15399999916553497,-4.01200008392334 C2.369999885559082,-3.927999973297119 4.0970001220703125,-2.062000036239624 4.01200008392334,0.15399999916553497z">
                    </path>
                </g>
            </g>
            <g transform="matrix(0.9883933663368225,-0.15192249417304993,0.15191638469696045,0.9884330630302429,221.23855590820312,381.2586975097656)"
                opacity="1" style="display: block;">
                <g opacity="1" transform="matrix(0.9994199872016907,0,0,1,15.038999557495117,18.836000442504883)">
                    <path stroke-linecap="round" stroke-linejoin="round" fill-opacity="0" stroke="rgb(0,0,0)"
                        stroke-opacity="1" stroke-width="5.000001304987676"
                        d=" M-0.6653131246566772,6.317008018493652 C-1.0192763805389404,3.6634063720703125 -0.3512316644191742,0.5024121999740601 2.5153701305389404,-0.6619037389755249 C-0.7989194393157959,-2.0634684562683105 -2.2676186561584473,-4.1219563484191895 -2.5477983951568604,-6.317008018493652">
                    </path>
                </g>
            </g>
            <g transform="matrix(1,0,0,1.0000401735305786,147.16700744628906,243.12704467773438)" opacity="1"
                style="display: block;">
                <g opacity="1" transform="matrix(1,0,0,1,60.930999755859375,81.0469970703125)">
                    <path fill="rgb(255,212,39)" fill-opacity="1"
                        d=" M35.93199920654297,-56.047000885009766 C-3.424999952316284,-48.000999450683594 -18.427000045776367,-28.4060001373291 -23.858999252319336,-13.475000381469727 C-35.93199920654297,19.711000442504883 -16.53700065612793,44.44200134277344 -5.9039998054504395,49.11199951171875 C9.888999938964844,56.047000885009766 9.041000366210938,16.867000579833984 32.525001525878906,11.121000289916992">
                    </path>
                    <path stroke-linecap="round" stroke-linejoin="round" fill-opacity="0" stroke="rgb(249,143,22)"
                        stroke-opacity="1" stroke-width="10"
                        d=" M35.93199920654297,-56.047000885009766 C-3.424999952316284,-48.000999450683594 -18.427000045776367,-28.4060001373291 -23.858999252319336,-13.475000381469727 C-35.93199920654297,19.711000442504883 -16.53700065612793,44.44200134277344 -5.9039998054504395,49.11199951171875 C9.888999938964844,56.047000885009766 9.041000366210938,16.867000579833984 32.525001525878906,11.121000289916992">
                    </path>
                </g>
            </g>
            <g transform="matrix(1,0,0,1.0000401735305786,167.2060089111328,261.53778076171875)" opacity="1"
                style="display: block;">
                <g opacity="1" transform="matrix(1,0,0,1,43.05699920654297,50.32699966430664)">
                    <path stroke-linecap="round" stroke-linejoin="round" fill-opacity="0" stroke="rgb(255,255,255)"
                        stroke-opacity="1" stroke-width="10"
                        d=" M-15.243000030517578,25.32699966430664 C-17.90999984741211,0.8759999871253967 -2.878999948501587,-16.41200065612793 15.071000099182129,-24.138999938964844">
                    </path>
                </g>
            </g>
            <g transform="matrix(1,0,0,1.0000401735305786,179.4940185546875,304.5185241699219)" opacity="1"
                style="display: block;">
                <g opacity="1" transform="matrix(1,0,0,1,33.619998931884766,38.391998291015625)">
                    <path stroke-linecap="round" stroke-linejoin="round" fill-opacity="0" stroke="rgb(251,237,32)"
                        stroke-opacity="1" stroke-width="10"
                        d=" M-8.619999885559082,13.392999649047852 C-5.513000011444092,0.9639999866485596 -0.29100000858306885,-6.9670000076293945 7.306000232696533,-12.479999542236328">
                    </path>
                </g>
            </g>
            <g clip-path="url(#__lottie_element_1291)" transform="matrix(1,0,0,1,0,0)" opacity="1"
                style="display: block;">
                <g clip-path="url(#__lottie_element_1365)" transform="matrix(1,0,0,1,0,0)" opacity="1"
                    style="display: block;">
                    <g transform="matrix(0.9840054512023926,0.17813825607299805,-0.17813825607299805,0.9840054512023926,49.05751037597656,-37.43421936035156)"
                        opacity="1" style="display: block;">
                        <g opacity="1" transform="matrix(1,0,0,1,221.20700073242188,68.49600219726562)">
                            <path stroke-linecap="round" stroke-linejoin="round" fill-opacity="0"
                                stroke="rgb(141,82,193)" stroke-opacity="1" stroke-width="14.931936046151936"
                                d=" M-38.939178466796875,-23.386980056762695 C-15.56413745880127,-30.418188095092773 -0.8940710425376892,-33.356971740722656 23.36808204650879,-36.028236389160156 C6.819377422332764,-14.164851188659668 -10.561731338500977,17.761016845703125 -19.810707092285156,36.028236389160156 C-0.6305230855941772,30.853782653808594 19.099632263183594,27.71708869934082 38.939178466796875,26.68876075744629">
                            </path>
                        </g>
                    </g>
                </g>
                <g clip-path="url(#__lottie_element_1358)" style="display: block;" transform="matrix(1,0,0,1,0,0)"
                    opacity="1">
                    <g transform="matrix(0.9989756941795349,-0.04524971544742584,0.04524971544742584,0.9989756941795349,-79.08648681640625,33.04384231567383)"
                        opacity="1" style="display: block;">
                        <g opacity="1" transform="matrix(1,0,0,1,221.20700073242188,68.49600219726562)">
                            <path stroke-linecap="round" stroke-linejoin="round" fill-opacity="0"
                                stroke="rgb(141,82,193)" stroke-opacity="1" stroke-width="9.744348944326395"
                                d=" M-22.5662899017334,-13.553475379943848 C-9.019996643066406,-17.628192901611328 -0.5184032917022705,-19.33103370666504 13.542359352111816,-20.87918472290039 C3.9519388675689697,-8.208636283874512 -6.120724678039551,10.293052673339844 -11.480738639831543,20.87918472290039 C-0.3655238151550293,17.8804931640625 11.068814277648926,16.062742233276367 22.5662899017334,15.466712951660156">
                            </path>
                        </g>
                    </g>
                </g>
                <g clip-path="url(#__lottie_element_1351)" transform="matrix(1,0,0,1,0,0)" opacity="1"
                    style="display: none;">
                    <g transform="matrix(0.7221949696540833,0.6916895508766174,-0.6916895508766174,0.7221949696540833,377.1233825683594,-28.103042602539062)"
                        opacity="1" style="display: block;">
                        <g opacity="1" transform="matrix(1,0,0,1,221.20700073242188,68.49600219726562)">
                            <path stroke-linecap="round" stroke-linejoin="round" fill-opacity="0"
                                stroke="rgb(141,82,193)" stroke-opacity="1" stroke-width="3.000000023184203"
                                d=" M-1.28000009059906,-0.7690000534057617 C-0.5120000243186951,-1 -0.030000001192092896,-1.096000075340271 0.768000066280365,-1.184000015258789 C0.2240000069141388,-0.4650000333786011 -0.34700003266334534,0.5840000510215759 -0.6510000228881836,1.184000015258789 C-0.021000001579523087,1.0140000581741333 0.628000020980835,0.9110000729560852 1.28000009059906,0.8770000338554382">
                            </path>
                        </g>
                    </g>
                </g>
                <g clip-path="url(#__lottie_element_1344)" style="display: block;" transform="matrix(1,0,0,1,0,0)"
                    opacity="1">
                    <g transform="matrix(0.9706348776817322,-0.24055756628513336,0.24055756628513336,0.9706348776817322,-170.96780395507812,128.78736877441406)"
                        opacity="1" style="display: block;">
                        <g opacity="1" transform="matrix(1,0,0,1,221.20700073242188,68.49600219726562)">
                            <path stroke-linecap="round" stroke-linejoin="round" fill-opacity="0"
                                stroke="rgb(141,82,193)" stroke-opacity="1" stroke-width="5.173748729449824"
                                d=" M-8.140713691711426,-4.889522075653076 C-3.2541840076446533,-6.359377384185791 -0.18741564452648163,-6.973273277282715 4.885261058807373,-7.531889915466309 C1.4255396127700806,-2.9608259201049805 -2.2079100608825684,3.713292360305786 -4.1414971351623535,7.531889915466309 C-0.13204233348369598,6.450183391571045 3.9931442737579346,5.7945075035095215 8.140713691711426,5.579361915588379">
                            </path>
                        </g>
                    </g>
                </g>
                <g clip-path="url(#__lottie_element_1337)" transform="matrix(1,0,0,1,0,0)" opacity="1"
                    style="display: none;">
                    <g transform="matrix(0.7221949696540833,0.6916895508766174,-0.6916895508766174,0.7221949696540833,377.1233825683594,-28.103042602539062)"
                        opacity="1" style="display: block;">
                        <g opacity="1" transform="matrix(1,0,0,1,221.20700073242188,68.49600219726562)">
                            <path stroke-linecap="round" stroke-linejoin="round" fill-opacity="0"
                                stroke="rgb(141,82,193)" stroke-opacity="1" stroke-width="3.000000023184203"
                                d=" M-1.28000009059906,-0.7690000534057617 C-0.5120000243186951,-1 -0.030000001192092896,-1.096000075340271 0.768000066280365,-1.184000015258789 C0.2240000069141388,-0.4650000333786011 -0.34700003266334534,0.5840000510215759 -0.6510000228881836,1.184000015258789 C-0.021000001579523087,1.0140000581741333 0.628000020980835,0.9110000729560852 1.28000009059906,0.8770000338554382">
                            </path>
                        </g>
                    </g>
                </g>
                <g clip-path="url(#__lottie_element_1330)" style="display: none;">
                    <g style="display: none;">
                        <g>
                            <path stroke-linecap="round" stroke-linejoin="round" fill-opacity="0"></path>
                        </g>
                    </g>
                </g>
                <g clip-path="url(#__lottie_element_1323)" transform="matrix(1,0,0,1,0,0)" opacity="1"
                    style="display: block;">
                    <g transform="matrix(0.722228467464447,0.6916545629501343,-0.6916545629501343,0.722228467464447,377.0953369140625,-28.105804443359375)"
                        opacity="1" style="display: block;">
                        <g opacity="1" transform="matrix(1,0,0,1,221.20700073242188,68.49600219726562)">
                            <path stroke-linecap="round" stroke-linejoin="round" fill-opacity="0"
                                stroke="rgb(141,82,193)" stroke-opacity="1" stroke-width="3.000919232446101"
                                d=" M-1.2829012870788574,-0.7707424759864807 C-0.5131596326828003,-1.0022664070129395 -0.03006656840443611,-1.0984853506088257 0.7697411179542542,-1.1866843700408936 C0.2245081067085266,-0.46605542302131653 -0.34778693318367004,0.5853233337402344 -0.6524760723114014,1.1866843700408936 C-0.02104695700109005,1.0162988901138306 0.6294230222702026,0.9130651354789734 1.2829012870788574,0.87898850440979">
                            </path>
                        </g>
                    </g>
                </g>
                <g clip-path="url(#__lottie_element_1316)" style="display: none;">
                    <g style="display: none;">
                        <g>
                            <path stroke-linecap="round" stroke-linejoin="round" fill-opacity="0"></path>
                        </g>
                    </g>
                </g>
                <g clip-path="url(#__lottie_element_1309)" transform="matrix(1,0,0,1,0,0)" opacity="1"
                    style="display: block;">
                    <g transform="matrix(0.7946654558181763,0.6070476174354553,-0.6070476174354553,0.7946654558181763,316.2769470214844,-45.70416259765625)"
                        opacity="1" style="display: block;">
                        <g opacity="1" transform="matrix(1,0,0,1,221.20700073242188,68.49600219726562)">
                            <path stroke-linecap="round" stroke-linejoin="round" fill-opacity="0"
                                stroke="rgb(141,82,193)" stroke-opacity="1" stroke-width="5.2995144922296475"
                                d=" M-8.537651062011719,-5.1279215812683105 C-3.412837505340576,-6.669453144073486 -0.19652317464351654,-7.313312530517578 5.123472213745117,-7.8991570472717285 C1.4950566291809082,-3.1052258014678955 -2.3155760765075684,3.8943426609039307 -4.343445301055908,7.8991570472717285 C-0.13846686482429504,6.764702320098877 4.187839984893799,6.077051162719727 8.537651062011719,5.851424694061279">
                            </path>
                        </g>
                    </g>
                </g>
                <g clip-path="url(#__lottie_element_1302)" style="display: none;">
                    <g style="display: none;">
                        <g>
                            <path stroke-linecap="round" stroke-linejoin="round" fill-opacity="0"></path>
                        </g>
                    </g>
                </g>
                <g clip-path="url(#__lottie_element_1295)" transform="matrix(1,0,0,1,0,0)" opacity="1"
                    style="display: block;">
                    <g transform="matrix(0.90961092710495,0.41546115279197693,-0.41546115279197693,0.90961092710495,190.60842895507812,-61.02277374267578)"
                        opacity="1" style="display: block;">
                        <g opacity="1" transform="matrix(1,0,0,1,221.20700073242188,68.49600219726562)">
                            <path stroke-linecap="round" stroke-linejoin="round" fill-opacity="0"
                                stroke="rgb(141,82,193)" stroke-opacity="1" stroke-width="9.917491871584497"
                                d=" M-23.112756729125977,-13.881682395935059 C-9.238415718078613,-18.055076599121094 -0.5309417247772217,-19.799169540405273 13.870306015014648,-21.38480567932129 C4.047643661499023,-8.40743350982666 -6.268949508666992,10.542305946350098 -11.75876235961914,21.38480567932129 C-0.3743685483932495,18.313493728637695 11.336853981018066,16.45172119140625 23.112756729125977,15.841264724731445">
                            </path>
                        </g>
                    </g>
                </g>
            </g>
        </g>
    </g>
</svg>