<svg xmlns="http://www.w3.org/2000/svg" xmlns:xlink="http://www.w3.org/1999/xlink" viewBox="0 0 512 512" width="512"
    height="512" preserveAspectRatio="xMidYMid meet"
    style="width: 100%; height: 100%; transform: translate3d(0px, 0px, 0px); content-visibility: visible;">
    <defs>
        <clipPath id="__lottie_element_490">
            <rect width="512" height="512" x="0" y="0"></rect>
        </clipPath>
        <clipPath id="__lottie_element_492">
            <path d="M0,0 L512,0 L512,512 L0,512z"></path>
        </clipPath>
        <clipPath id="__lottie_element_583">
            <path d="M0,0 L512,0 L512,512 L0,512z"></path>
        </clipPath>
        <clipPath id="__lottie_element_590">
            <path d="M0,0 L512,0 L512,512 L0,512z"></path>
        </clipPath>
        <clipPath id="__lottie_element_597">
            <path d="M0,0 L512,0 L512,512 L0,512z"></path>
        </clipPath>
        <clipPath id="__lottie_element_604">
            <path d="M0,0 L512,0 L512,512 L0,512z"></path>
        </clipPath>
        <clipPath id="__lottie_element_611">
            <path d="M0,0 L512,0 L512,512 L0,512z"></path>
        </clipPath>
        <clipPath id="__lottie_element_618">
            <path d="M0,0 L512,0 L512,512 L0,512z"></path>
        </clipPath>
        <clipPath id="__lottie_element_709">
            <path d="M0,0 L512,0 L512,512 L0,512z"></path>
        </clipPath>
        <clipPath id="__lottie_element_716">
            <path d="M0,0 L512,0 L512,512 L0,512z"></path>
        </clipPath>
        <clipPath id="__lottie_element_723">
            <path d="M0,0 L512,0 L512,512 L0,512z"></path>
        </clipPath>
        <clipPath id="__lottie_element_730">
            <path d="M0,0 L512,0 L512,512 L0,512z"></path>
        </clipPath>
        <clipPath id="__lottie_element_737">
            <path d="M0,0 L512,0 L512,512 L0,512z"></path>
        </clipPath>
    </defs>
    <g clip-path="url(#__lottie_element_490)">
        <g clip-path="url(#__lottie_element_618)" style="display: block;" transform="matrix(1,0,0,1,0,0)" opacity="1">
            <g clip-path="url(#__lottie_element_737)" style="display: block;"
                transform="matrix(1.0499999523162842,0,0,0.8500000238418579,-32.79998779296875,83.39999389648438)"
                opacity="1">
                <g transform="matrix(1.5022599697113037,0,0,1.5022599697113037,-7.507354736328125,337.35150146484375)"
                    opacity="1" style="display: block;">
                    <g opacity="1" transform="matrix(1,0,0,1,176.4949951171875,64.81999969482422)">
                        <path stroke-linecap="round" stroke-linejoin="round" fill-opacity="0" stroke="rgb(3,180,255)"
                            stroke-opacity="1" stroke-width="0"
                            d=" M151.4949951171875,0 C151.4949951171875,21.992000579833984 83.66899871826172,39.81999969482422 0.0010000000474974513,39.81999969482422 C-83.66699981689453,39.81999969482422 -151.49400329589844,21.992000579833984 -151.49400329589844,0 C-151.49400329589844,-21.992000579833984 -83.66699981689453,-39.81999969482422 0.0010000000474974513,-39.81999969482422 C83.66899871826172,-39.81999969482422 151.4949951171875,-21.992000579833984 151.4949951171875,0z">
                        </path>
                    </g>
                </g>
            </g>
            <g clip-path="url(#__lottie_element_730)" style="display: block;"
                transform="matrix(1.0499999523162842,0,0,0.8500000238418579,2.20001220703125,83.39999389648438)"
                opacity="1">
                <g transform="matrix(0.7755043506622314,0,0,0.7755043506622314,120.76136779785156,381.9312438964844)"
                    opacity="1" style="display: block;">
                    <g opacity="1" transform="matrix(1,0,0,1,176.4949951171875,64.81999969482422)">
                        <path stroke-linecap="round" stroke-linejoin="round" fill-opacity="0" stroke="rgb(3,180,255)"
                            stroke-opacity="1" stroke-width="8.320419901229387"
                            d=" M151.4949951171875,0 C151.4949951171875,21.992000579833984 83.66899871826172,39.81999969482422 0.0010000000474974513,39.81999969482422 C-83.66699981689453,39.81999969482422 -151.49400329589844,21.992000579833984 -151.49400329589844,0 C-151.49400329589844,-21.992000579833984 -83.66699981689453,-39.81999969482422 0.0010000000474974513,-39.81999969482422 C83.66899871826172,-39.81999969482422 151.4949951171875,-21.992000579833984 151.4949951171875,0z">
                        </path>
                    </g>
                </g>
            </g>
            <g clip-path="url(#__lottie_element_723)" style="display: none;">
                <g style="display: none;">
                    <g>
                        <path stroke-linecap="round" stroke-linejoin="round" fill-opacity="0"></path>
                    </g>
                </g>
            </g>
            <g clip-path="url(#__lottie_element_716)" style="display: none;"
                transform="matrix(1.0499999523162842,0,0,0.8500000238418579,2.20001220703125,83.39999389648438)"
                opacity="1">
                <g transform="matrix(1.5022599697113037,0,0,1.5022599697113037,-7.507354736328125,337.35150146484375)"
                    opacity="1" style="display: none;">
                    <g opacity="1" transform="matrix(1,0,0,1,176.4949951171875,64.81999969482422)">
                        <path stroke-linecap="round" stroke-linejoin="round" fill-opacity="0" stroke="rgb(3,180,255)"
                            stroke-opacity="1" stroke-width="0"
                            d=" M151.4949951171875,0 C151.4949951171875,21.992000579833984 83.66899871826172,39.81999969482422 0.0010000000474974513,39.81999969482422 C-83.66699981689453,39.81999969482422 -151.49400329589844,21.992000579833984 -151.49400329589844,0 C-151.49400329589844,-21.992000579833984 -83.66699981689453,-39.81999969482422 0.0010000000474974513,-39.81999969482422 C83.66899871826172,-39.81999969482422 151.4949951171875,-21.992000579833984 151.4949951171875,0z">
                        </path>
                    </g>
                </g>
            </g>
            <g clip-path="url(#__lottie_element_709)" style="display: none;"
                transform="matrix(1.0499999523162842,0,0,0.8500000238418579,-32.79998779296875,83.39999389648438)"
                opacity="1">
                <g transform="matrix(1.5022599697113037,0,0,1.5022599697113037,-7.507354736328125,337.35150146484375)"
                    opacity="1" style="display: none;">
                    <g opacity="1" transform="matrix(1,0,0,1,176.4949951171875,64.81999969482422)">
                        <path stroke-linecap="round" stroke-linejoin="round" fill-opacity="0" stroke="rgb(3,180,255)"
                            stroke-opacity="1" stroke-width="0"
                            d=" M151.4949951171875,0 C151.4949951171875,21.992000579833984 83.66899871826172,39.81999969482422 0.0010000000474974513,39.81999969482422 C-83.66699981689453,39.81999969482422 -151.49400329589844,21.992000579833984 -151.49400329589844,0 C-151.49400329589844,-21.992000579833984 -83.66699981689453,-39.81999969482422 0.0010000000474974513,-39.81999969482422 C83.66899871826172,-39.81999969482422 151.4949951171875,-21.992000579833984 151.4949951171875,0z">
                        </path>
                    </g>
                </g>
            </g>
            <g transform="matrix(1.0422706604003906,-0.12721475958824158,0.12721338868141174,1.0422593355178833,260.84893798828125,360.64324951171875)"
                opacity="1" style="display: block;">
                <g opacity="1" transform="matrix(1,0,0,1,0,0)">
                    <path fill="rgb(254,216,32)" fill-opacity="1"
                        d=" M9.611445426940918,110.4700927734375 C-53.420433044433594,103.03656768798828 -158.66403198242188,90.30951690673828 -158.73779296875,30.693204879760742 C-162.710693359375,-49.580528259277344 -106.63200378417969,-106.88500213623047 -3.944999933242798,-104.29399871826172 C78.04399871826172,-102.2249984741211 153.3832550048828,-64.27603912353516 167.562255859375,37.0749626159668 C172.30625915527344,98.21296691894531 116.993408203125,126.00508880615234 9.611445426940918,110.4700927734375z">
                    </path>
                    <path stroke-linecap="round" stroke-linejoin="round" fill-opacity="0" stroke="rgb(250,144,22)"
                        stroke-opacity="1" stroke-width="10"
                        d=" M9.611445426940918,110.4700927734375 C-53.420433044433594,103.03656768798828 -158.66403198242188,90.30951690673828 -158.73779296875,30.693204879760742 C-162.710693359375,-49.580528259277344 -106.63200378417969,-106.88500213623047 -3.944999933242798,-104.29399871826172 C78.04399871826172,-102.2249984741211 153.3832550048828,-64.27603912353516 167.562255859375,37.0749626159668 C172.30625915527344,98.21296691894531 116.993408203125,126.00508880615234 9.611445426940918,110.4700927734375z">
                    </path>
                </g>
            </g>
            <g transform="matrix(1.1288213729858398,0.09731072187423706,-0.08958487957715988,1.0391473770141602,460.759521484375,399.269287109375)"
                opacity="1" style="display: block;">
                <g opacity="1" transform="matrix(1,0,0,1,35.6879997253418,48.13999938964844)">
                    <path stroke-linecap="round" stroke-linejoin="round" fill-opacity="0" stroke="rgb(255,255,255)"
                        stroke-opacity="1" stroke-width="8"
                        d=" M-63.87200164794922,-40.48400115966797 C-62.720001220703125,-45.79600143432617 -63.79399871826172,-57.893001556396484 -69.86399841308594,-75.83899688720703">
                    </path>
                </g>
            </g>
            <g transform="matrix(0.8676942586898804,0.5912765264511108,0.5912850499153137,-0.8676866888999939,428.51025390625,303.29876708984375)"
                opacity="1" style="display: block;">
                <g opacity="1" transform="matrix(1,0,0,1,0,0)">
                    <path fill="rgb(254,216,32)" fill-opacity="1"
                        d=" M-62.43635177612305,-14.946773529052734 C-30.36360740661621,11.250795364379883 7.780248165130615,0.9287183284759521 27.97235870361328,-14.875133514404297 C48.0384521484375,-27.327234268188477 35.419376373291016,-31.850297927856445 20.990476608276367,-29.843841552734375 C9.390135765075684,-28.655513763427734 -7.416034698486328,-34.69480514526367 -18.146183013916016,-40.55381774902344">
                    </path>
                    <path stroke-linecap="round" stroke-linejoin="round" fill-opacity="0" stroke="rgb(250,144,22)"
                        stroke-opacity="1" stroke-width="10.204"
                        d=" M-62.43635177612305,-14.946773529052734 C-30.36360740661621,11.250795364379883 7.780248165130615,0.9287183284759521 27.97235870361328,-14.875133514404297 C48.0384521484375,-27.327234268188477 35.419376373291016,-31.850297927856445 20.990476608276367,-29.843841552734375 C9.390135765075684,-28.655513763427734 -7.416034698486328,-34.69480514526367 -18.146183013916016,-40.55381774902344">
                    </path>
                </g>
            </g>
            <g transform="matrix(1.1288213729858398,0.09731072187423706,-0.08958487957715988,1.0391473770141602,460.759521484375,399.269287109375)"
                opacity="1" style="display: block;">
                <g opacity="1" transform="matrix(1,0,0,1,35.6879997253418,48.13999938964844)">
                    <path stroke-linecap="round" stroke-linejoin="round" fill-opacity="0" stroke="rgb(255,255,255)"
                        stroke-opacity="1" stroke-width="8"
                        d=" M-70.61100006103516,-121.93299865722656 C-76.00800323486328,-128.45799255371094 -85.53800201416016,-136.718994140625 -95.76799774169922,-140.84100341796875">
                    </path>
                </g>
            </g>
            <g transform="matrix(1.1288213729858398,0.09731072187423706,-0.08958487957715988,1.0391473770141602,443.2553405761719,404.4278869628906)"
                opacity="1" style="display: block;">
                <g opacity="1" transform="matrix(1,0,0,1,35.6879997253418,48.13999938964844)">
                    <path stroke-linecap="round" stroke-linejoin="round" fill-opacity="0" stroke="rgb(252,238,33)"
                        stroke-opacity="1" stroke-width="8"
                        d=" M-300.9179992675781,10.562000274658203 C-329.3370056152344,-4.2230000495910645 -328.7279968261719,-44.77399826049805 -325.8940124511719,-56.97600173950195">
                    </path>
                </g>
            </g>
            <g transform="matrix(1.056368112564087,-0.31560245156288147,0.31560301780700684,1.0563560724258423,234.443359375,171.5245819091797)"
                opacity="1" style="display: block;">
                <g opacity="1"
                    transform="matrix(0.9999999403953552,-0.0002617993741296232,0.0002617993741296232,0.9999999403953552,0,0)">
                    <path fill="rgb(254,216,32)" fill-opacity="1"
                        d=" M-132.5919952392578,102.30699920654297 C-155.75,75.9739990234375 -166.2949981689453,42.689998626708984 -160.468994140625,6.583000183105469 C-148.0919952392578,-70.12300109863281 -66.35099792480469,-134.4080047607422 19.45400047302246,-120.56300354003906 C105.25800323486328,-106.71800231933594 162.6320037841797,-19.986000061035156 150.2550048828125,56.720001220703125 C145.22500610351562,87.89099884033203 123.86799621582031,119.76499938964844 98.94200134277344,139.25399780273438">
                    </path>
                    <path stroke-linecap="round" stroke-linejoin="round" fill-opacity="0" stroke="rgb(250,144,22)"
                        stroke-opacity="1" stroke-width="10"
                        d=" M-132.5919952392578,102.30699920654297 C-155.75,75.9739990234375 -166.2949981689453,42.689998626708984 -160.468994140625,6.583000183105469 C-148.0919952392578,-70.12300109863281 -66.35099792480469,-134.4080047607422 19.45400047302246,-120.56300354003906 C105.25800323486328,-106.71800231933594 162.6320037841797,-19.986000061035156 150.2550048828125,56.720001220703125 C145.22500610351562,87.89099884033203 123.86799621582031,119.76499938964844 98.94200134277344,139.25399780273438">
                    </path>
                </g>
            </g>
            <g transform="matrix(1.1848620176315308,0.10671822726726532,-0.09824535995721817,1.0907360315322876,462.9417419433594,228.6509552001953)"
                opacity="1" style="display: block;">
                <g opacity="1" transform="matrix(1,0,0,1,35.6879997253418,48.13999938964844)">
                    <path stroke-linecap="round" stroke-linejoin="round" fill-opacity="0" stroke="rgb(252,238,33)"
                        stroke-opacity="1" stroke-width="8"
                        d=" M-337.0270080566406,13.57699966430664 C-366.9320068359375,-30.275999069213867 -348.8919982910156,-73.48799896240234 -340.5329895019531,-91.47899627685547">
                    </path>
                </g>
            </g>
            <g transform="matrix(-0.6227070093154907,1.0136594772338867,-0.9331518411636353,-0.573236346244812,122.36769104003906,408.3647766113281)"
                opacity="1" style="display: block;">
                <g opacity="1" transform="matrix(1,0,0,1,35.6879997253418,48.13999938964844)">
                    <path stroke-linecap="round" stroke-linejoin="round" fill-opacity="0" stroke="rgb(255,255,255)"
                        stroke-opacity="1" stroke-width="8"
                        d=" M-340.9630126953125,16.079999923706055 C-358.3909912109375,-16.87299919128418 -350.56500244140625,-78.6719970703125 -342.3949890136719,-96.4229965209961">
                    </path>
                </g>
            </g>
            <g transform="matrix(1.4450442790985107,-0.17075717449188232,0.15523234009742737,1.3136653900146484,-4.600372314453125,371.48248291015625)"
                opacity="1" style="display: block;">
                <path stroke-linecap="butt" stroke-linejoin="miter" fill-opacity="0" stroke-miterlimit="4"
                    stroke="rgb(0,0,0)" stroke-opacity="1" stroke-width="5"
                    d=" M145.92799377441406,-119.43900299072266 C156.34100341796875,-119.66699981689453 163.00799560546875,-116.1719970703125 165.63999938964844,-112.6729965209961 C167.31500244140625,-110.44599914550781 167.08200073242188,-108.73899841308594 165.9600067138672,-107.3949966430664 C164.81399536132812,-106.02200317382812 162.93899536132812,-106.31099700927734 161.1439971923828,-107.302001953125 C158.08099365234375,-108.99299621582031 153.65499877929688,-112.25599670410156 145.06900024414062,-112.12999725341797 C136.00799560546875,-111.99700164794922 131.7469940185547,-108.21499633789062 128.63999938964844,-106.74199676513672 C126.68699645996094,-105.81600189208984 124.72000122070312,-105.36000061035156 123.49099731445312,-107.302001953125 C122.20600128173828,-109.33200073242188 122.83300018310547,-111.39399719238281 125.06500244140625,-113.38099670410156 C128.36000061035156,-116.31500244140625 135.24400329589844,-119.20600128173828 145.92799377441406,-119.43900299072266z">
                </path>
                <g opacity="1" transform="matrix(1,0,0,1,0,0)">
                    <path fill="rgb(0,0,0)" fill-opacity="1"
                        d=" M145.92799377441406,-119.43900299072266 C156.34100341796875,-119.66699981689453 163.00799560546875,-116.1719970703125 165.63999938964844,-112.6729965209961 C167.31500244140625,-110.44599914550781 167.08200073242188,-108.73899841308594 165.9600067138672,-107.3949966430664 C164.81399536132812,-106.02200317382812 162.93899536132812,-106.31099700927734 161.1439971923828,-107.302001953125 C158.08099365234375,-108.99299621582031 153.65499877929688,-112.25599670410156 145.06900024414062,-112.12999725341797 C136.00799560546875,-111.99700164794922 131.7469940185547,-108.21499633789062 128.63999938964844,-106.74199676513672 C126.68699645996094,-105.81600189208984 124.72000122070312,-105.36000061035156 123.49099731445312,-107.302001953125 C122.20600128173828,-109.33200073242188 122.83300018310547,-111.39399719238281 125.06500244140625,-113.38099670410156 C128.36000061035156,-116.31500244140625 135.24400329589844,-119.20600128173828 145.92799377441406,-119.43900299072266z">
                    </path>
                </g>
            </g>
            <g transform="matrix(1.1560354232788086,-0.13660573959350586,0.12418589740991592,1.0509324073791504,193.59515380859375,182.08592224121094)"
                opacity="1" style="display: block;">
                <g opacity="1" transform="matrix(1,0,0,1,0,0)">
                    <path fill="rgb(0,0,0)" fill-opacity="1"
                        d=" M-8.324999809265137,13.142000198364258 C-6.165999889373779,16 -1.5479999780654907,17.31800079345703 1.9900000095367432,16.086000442504883 C5.5279998779296875,14.854000091552734 6.645999908447266,11.538000106811523 4.486999988555908,8.680000305175781 C2.328000068664551,5.822000026702881 -2.2899999618530273,4.504000186920166 -5.828000068664551,5.736000061035156 C-9.366000175476074,6.9679999351501465 -10.484000205993652,10.284000396728516 -8.324999809265137,13.142000198364258z">
                    </path>
                </g>
            </g>
            <g transform="matrix(1.1873806715011597,-0.14030972123146057,0.15523234009742737,1.3136653900146484,193.92962646484375,349.337646484375)"
                opacity="1" style="display: block;">
                <path stroke-linecap="butt" stroke-linejoin="miter" fill-opacity="0" stroke-miterlimit="4"
                    stroke="rgb(0,0,0)" stroke-opacity="1" stroke-width="5"
                    d=" M145.93,-119.44 C156.34,-119.66 163.01,-116.17 165.64,-112.67 C167.32,-110.44 167.08,-108.74 165.96,-107.39 C164.82,-106.02 162.94,-106.31 161.15,-107.3 C158.08,-108.99 153.66,-112.25 145.07,-112.13 C136.01,-111.99 131.75,-108.21 128.64,-106.74 C126.69,-105.81 124.72,-105.36 123.49,-107.3 C122.21,-109.33 122.83,-111.39 125.07,-113.38 C128.36,-116.31 135.25,-119.2 145.93,-119.44z">
                </path>
                <g opacity="1" transform="matrix(1,0.000017453292457503267,-0.000017453292457503267,1,0,0)">
                    <path fill="rgb(0,0,0)" fill-opacity="1"
                        d=" M145.92799377441406,-119.43900299072266 C156.34100341796875,-119.66699981689453 163.00799560546875,-116.1719970703125 165.63999938964844,-112.6729965209961 C167.31500244140625,-110.44599914550781 167.08200073242188,-108.73899841308594 165.9600067138672,-107.3949966430664 C164.81399536132812,-106.02200317382812 162.93899536132812,-106.31099700927734 161.1439971923828,-107.302001953125 C158.08099365234375,-108.99299621582031 153.65499877929688,-112.25599670410156 145.06900024414062,-112.12999725341797 C136.00799560546875,-111.99700164794922 131.7469940185547,-108.21499633789062 128.63999938964844,-106.74199676513672 C126.68699645996094,-105.81600189208984 124.72000122070312,-105.36000061035156 123.49099731445312,-107.302001953125 C122.20600128173828,-109.33200073242188 122.83300018310547,-111.39399719238281 125.06500244140625,-113.38099670410156 C128.36000061035156,-116.31500244140625 135.24400329589844,-119.20600128173828 145.92799377441406,-119.43900299072266z">
                    </path>
                </g>
            </g>
            <g transform="matrix(0.9499044418334961,-0.1122477799654007,0.12418589740991592,1.0509324073791504,353.3362121582031,164.52467346191406)"
                opacity="1" style="display: block;">
                <g opacity="1" transform="matrix(1,0,0,1,0,0)">
                    <path fill="rgb(0,0,0)" fill-opacity="1"
                        d=" M-8.324999809265137,13.142000198364258 C-6.165999889373779,16 -1.5479999780654907,17.31800079345703 1.9900000095367432,16.086000442504883 C5.5279998779296875,14.854000091552734 6.645999908447266,11.538000106811523 4.486999988555908,8.680000305175781 C2.328000068664551,5.822000026702881 -2.2899999618530273,4.504000186920166 -5.828000068664551,5.736000061035156 C-9.366000175476074,6.9679999351501465 -10.484000205993652,10.284000396728516 -8.324999809265137,13.142000198364258z">
                    </path>
                </g>
            </g>
            <g transform="matrix(1.0948880910873413,-0.12938012182712555,0.12937863171100616,1.0948762893676758,274.1119689941406,239.27255249023438)"
                opacity="1" style="display: block;">
                <g opacity="1" transform="matrix(1,0,0,1,0,0)">
                    <path fill="rgb(255,93,31)" fill-opacity="1"
                        d=" M68.19796752929688,14.391484260559082 C74.28448486328125,8.71611499786377 79.60321044921875,2.6417617797851562 75.20716857910156,-3.0635948181152344 C75.61522674560547,-11.349747657775879 70.05040740966797,-13.887433052062988 63.73981857299805,-14.453198432922363 C27.93002700805664,-17.62758445739746 31.277999877929688,-42.893001556396484 5.821000099182129,-42.893001556396484 C-19.63599967956543,-42.893001556396484 -23.673879623413086,-12.633580207824707 -45.39848709106445,-5.254223823547363 C-53.18739318847656,-2.7169430255889893 -58.26316833496094,-0.4568571448326111 -59.87771224975586,5.489391803741455 C-61.49479675292969,11.444640159606934 -59.2148551940918,18.06455421447754 -51.13043975830078,23.69888687133789 C-19.508346557617188,45.736995697021484 46.32929992675781,34.12751770019531 68.19796752929688,14.391484260559082z">
                    </path>
                    <path stroke-linecap="butt" stroke-linejoin="miter" fill-opacity="0" stroke-miterlimit="10"
                        stroke="rgb(207,53,2)" stroke-opacity="1" stroke-width="8"
                        d=" M68.19796752929688,14.391484260559082 C74.28448486328125,8.71611499786377 79.60321044921875,2.6417617797851562 75.20716857910156,-3.0635948181152344 C75.61522674560547,-11.349747657775879 70.05040740966797,-13.887433052062988 63.73981857299805,-14.453198432922363 C27.93002700805664,-17.62758445739746 31.277999877929688,-42.893001556396484 5.821000099182129,-42.893001556396484 C-19.63599967956543,-42.893001556396484 -23.673879623413086,-12.633580207824707 -45.39848709106445,-5.254223823547363 C-53.18739318847656,-2.7169430255889893 -58.26316833496094,-0.4568571448326111 -59.87771224975586,5.489391803741455 C-61.49479675292969,11.444640159606934 -59.2148551940918,18.06455421447754 -51.13043975830078,23.69888687133789 C-19.508346557617188,45.736995697021484 46.32929992675781,34.12751770019531 68.19796752929688,14.391484260559082z">
                    </path>
                </g>
            </g>
            <g transform="matrix(1.1933022737503052,0.10764636099338531,-0.10765060037374496,1.1932899951934814,265.118896484375,211.13194274902344)"
                opacity="1" style="display: block;">
                <g opacity="1" transform="matrix(1,0,0,1,24.70599937438965,22.10700035095215)">
                    <path stroke-linecap="round" stroke-linejoin="round" fill-opacity="0" stroke="rgb(255,180,132)"
                        stroke-opacity="1" stroke-width="8"
                        d=" M31.84600067138672,-15.210000038146973 C21.764999389648438,-13.722999572753906 2.305999994277954,-18.011999130249023 -7.744999885559082,-29.551000595092773">
                    </path>
                </g>
            </g>
            <g transform="matrix(1.0948880910873413,-0.12938012182712555,0.12937863171100616,1.0948762893676758,276.00360107421875,255.28074645996094)"
                opacity="1" style="display: block;">
                <g opacity="1" transform="matrix(1,0,0,1,0,0)">
                    <path stroke-linecap="round" stroke-linejoin="round" fill-opacity="0" stroke="rgb(125,9,9)"
                        stroke-opacity="1" stroke-width="7.2"
                        d=" M-40.029998779296875,-3.1070001125335693 C-3.799999952316284,9.737000465393066 48.696998596191406,-2.263000011444092 67.48500061035156,-15.880000114440918">
                    </path>
                </g>
            </g>
            <g transform="matrix(1,0,0,1,256,256)" opacity="1" style="display: block;"></g>
            <g transform="matrix(1.2047370672225952,0.7062724232673645,-0.7062724232673645,1.2047370672225952,147.8313446044922,258.1575927734375)"
                opacity="1" style="display: block;">
                <g opacity="1" transform="matrix(1,0,0,1,0,0)">
                    <path fill="rgb(255,255,255)" fill-opacity="1"
                        d=" M-43.66899871826172,20.232999801635742 C-43.66899871826172,20.232999801635742 21.418867111206055,-27.890037536621094 21.418867111206055,-27.890037536621094 C21.418867111206055,-27.890037536621094 -15.062000274658203,46.178001403808594 -15.062000274658203,46.178001403808594 C-15.062000274658203,46.178001403808594 -43.66899871826172,20.232999801635742 -43.66899871826172,20.232999801635742z">
                    </path>
                    <path stroke-linecap="round" stroke-linejoin="round" fill-opacity="0" stroke="rgb(134,177,196)"
                        stroke-opacity="1" stroke-width="7"
                        d=" M-43.66899871826172,20.232999801635742 C-43.66899871826172,20.232999801635742 21.418867111206055,-27.890037536621094 21.418867111206055,-27.890037536621094 C21.418867111206055,-27.890037536621094 -15.062000274658203,46.178001403808594 -15.062000274658203,46.178001403808594 C-15.062000274658203,46.178001403808594 -43.66899871826172,20.232999801635742 -43.66899871826172,20.232999801635742z">
                    </path>
                </g>
            </g>
            <g transform="matrix(0.18838746845722198,-1.404918909072876,-1.404933214187622,-0.1883818358182907,184.34095764160156,330.2236328125)"
                opacity="1" style="display: block;">
                <g opacity="1" transform="matrix(1,0,0,1,0,0)">
                    <path fill="rgb(254,216,32)" fill-opacity="1"
                        d=" M-6.469187259674072,-0.8796601295471191 C28.87666893005371,2.4163734912872314 41.777305603027344,32.140499114990234 39.65926742553711,46.865901947021484 C36.52418518066406,68.66363525390625 25.783559799194336,59.003780364990234 19.256481170654297,46.887664794921875 C15.186863899230957,39.33347702026367 3.9959969520568848,35.6540641784668 -8.780970573425293,35.032657623291016">
                    </path>
                    <path stroke-linecap="round" stroke-linejoin="round" fill-opacity="0" stroke="rgb(250,144,22)"
                        stroke-opacity="1" stroke-width="7.407"
                        d=" M-6.469187259674072,-0.8796601295471191 C28.87666893005371,2.4163734912872314 41.777305603027344,32.140499114990234 39.65926742553711,46.865901947021484 C36.52418518066406,68.66363525390625 25.783559799194336,59.003780364990234 19.256481170654297,46.887664794921875 C15.186863899230957,39.33347702026367 3.9959969520568848,35.6540641784668 -8.780970573425293,35.032657623291016">
                    </path>
                </g>
            </g>
            <g transform="matrix(0.5741757154464722,1.0526295900344849,-1.0951889753341675,0.5973799228668213,497.0816650390625,586.800048828125)"
                opacity="1" style="display: block;">
                <g opacity="1" transform="matrix(1,0,0,1,35.6879997253418,48.13999938964844)">
                    <path stroke-linecap="round" stroke-linejoin="round" fill-opacity="0" stroke="rgb(255,255,255)"
                        stroke-opacity="1" stroke-width="8.333"
                        d=" M-365.8219909667969,82.49800109863281 C-371.8999938964844,80.36000061035156 -382.5740051269531,79.30999755859375 -395.69000244140625,84.12999725341797">
                    </path>
                </g>
            </g>
            <g transform="matrix(1.2047370672225952,0.7062724232673645,-0.7062724232673645,1.2047370672225952,134.702392578125,249.35842895507812)"
                opacity="1" style="display: block;">
                <g opacity="1" transform="matrix(1,0,0,1,0,0)">
                    <path fill="rgb(255,255,255)" fill-opacity="1"
                        d=" M40.65119171142578,-35.26361846923828 C40.65119171142578,-35.26361846923828 -27.281810760498047,-10.915694236755371 -27.281810760498047,-10.915694236755371 C-27.281810760498047,-10.915694236755371 -31.583221435546875,11.884462356567383 -31.583221435546875,11.884462356567383 C-31.583221435546875,11.884462356567383 -50.69332504272461,51.178985595703125 -50.69332504272461,51.178985595703125 C-50.69332504272461,51.178985595703125 40.65119171142578,-35.26361846923828 40.65119171142578,-35.26361846923828z">
                    </path>
                    <path stroke-linecap="round" stroke-linejoin="round" fill-opacity="0" stroke="rgb(134,177,196)"
                        stroke-opacity="1" stroke-width="7"
                        d=" M40.65119171142578,-35.26361846923828 C40.65119171142578,-35.26361846923828 -27.281810760498047,-10.915694236755371 -27.281810760498047,-10.915694236755371 C-27.281810760498047,-10.915694236755371 -31.583221435546875,11.884462356567383 -31.583221435546875,11.884462356567383 C-31.583221435546875,11.884462356567383 -50.69332504272461,51.178985595703125 -50.69332504272461,51.178985595703125 C-50.69332504272461,51.178985595703125 40.65119171142578,-35.26361846923828 40.65119171142578,-35.26361846923828z">
                    </path>
                </g>
            </g>
            <g transform="matrix(1.0499999523162842,0,0,1.0499999523162842,269.9466247558594,266.7752990722656)"
                opacity="1" style="display: none;">
                <g opacity="1" transform="matrix(1,0,0,1,0,0)">
                    <path fill="rgb(255,255,255)" fill-opacity="1"
                        d=" M124.64198303222656,173.46595764160156 C124.64198303222656,173.46595764160156 61.47698974609375,120.59199523925781 61.47698974609375,120.59199523925781 C61.47698974609375,120.59199523925781 18.520004272460938,79.4740219116211 18.520004272460938,79.4740219116211 C18.520004272460938,79.4740219116211 72.34300231933594,60.64402389526367 72.34300231933594,60.64402389526367 C72.34300231933594,60.64402389526367 115.58000946044922,45.517024993896484 115.58000946044922,45.517024993896484 C115.58000946044922,45.517024993896484 119.31000518798828,103.13599395751953 119.31000518798828,103.13599395751953 C119.31000518798828,103.13599395751953 124.64198303222656,173.46595764160156 124.64198303222656,173.46595764160156z">
                    </path>
                    <path stroke-linecap="round" stroke-linejoin="round" fill-opacity="0" stroke="rgb(134,177,196)"
                        stroke-opacity="1" stroke-width="9.31"
                        d=" M124.64198303222656,173.46595764160156 C124.64198303222656,173.46595764160156 61.47698974609375,120.59199523925781 61.47698974609375,120.59199523925781 C61.47698974609375,120.59199523925781 18.520004272460938,79.4740219116211 18.520004272460938,79.4740219116211 C18.520004272460938,79.4740219116211 72.34300231933594,60.64402389526367 72.34300231933594,60.64402389526367 C72.34300231933594,60.64402389526367 115.58000946044922,45.517024993896484 115.58000946044922,45.517024993896484 C115.58000946044922,45.517024993896484 119.31000518798828,103.13599395751953 119.31000518798828,103.13599395751953 C119.31000518798828,103.13599395751953 124.64198303222656,173.46595764160156 124.64198303222656,173.46595764160156z">
                    </path>
                </g>
            </g>
            <g transform="matrix(1.0499999523162842,0,0,1.0499999523162842,268.6669006347656,266.7752990722656)"
                opacity="1" style="display: none;">
                <g opacity="1" transform="matrix(1,0,0,1,0,0)">
                    <path fill="rgb(255,255,255)" fill-opacity="1"
                        d=" M89.31130981445312,110.13816833496094 C89.31130981445312,110.13816833496094 90.33229064941406,79.56657409667969 90.33229064941406,79.56657409667969 C90.33229064941406,79.56657409667969 89.80520629882812,110.61305236816406 89.80520629882812,110.61305236816406 C89.80520629882812,110.61305236816406 35.668312072753906,110.82878112792969 35.668312072753906,110.82878112792969 C35.668312072753906,110.82878112792969 29.182323455810547,129.94163513183594 29.182323455810547,129.94163513183594 C29.182323455810547,129.94163513183594 85.328369140625,114.36644744873047 85.328369140625,114.36644744873047 C85.328369140625,114.36644744873047 129.93653869628906,102.02835845947266 129.93653869628906,102.02835845947266 C129.93653869628906,102.02835845947266 134.79278564453125,82.91783905029297 134.79278564453125,82.91783905029297 C134.79278564453125,82.91783905029297 89.31130981445312,110.13816833496094 89.31130981445312,110.13816833496094z">
                    </path>
                    <path stroke-linecap="round" stroke-linejoin="round" fill-opacity="0" stroke="rgb(134,177,196)"
                        stroke-opacity="1" stroke-width="9.31"
                        d=" M89.31130981445312,110.13816833496094 C89.31130981445312,110.13816833496094 90.33229064941406,79.56657409667969 90.33229064941406,79.56657409667969 C90.33229064941406,79.56657409667969 89.80520629882812,110.61305236816406 89.80520629882812,110.61305236816406 C89.80520629882812,110.61305236816406 35.668312072753906,110.82878112792969 35.668312072753906,110.82878112792969 C35.668312072753906,110.82878112792969 29.182323455810547,129.94163513183594 29.182323455810547,129.94163513183594 C29.182323455810547,129.94163513183594 85.328369140625,114.36644744873047 85.328369140625,114.36644744873047 C85.328369140625,114.36644744873047 129.93653869628906,102.02835845947266 129.93653869628906,102.02835845947266 C129.93653869628906,102.02835845947266 134.79278564453125,82.91783905029297 134.79278564453125,82.91783905029297 C134.79278564453125,82.91783905029297 89.31130981445312,110.13816833496094 89.31130981445312,110.13816833496094z">
                    </path>
                </g>
            </g>
            <g transform="matrix(1.2047370672225952,0.7062724232673645,-0.7062724232673645,1.2047370672225952,152.8832244873047,238.1859130859375)"
                opacity="0.33" style="display: block;">
                <g opacity="1" transform="matrix(1,0,0,1,0,0)">
                    <path stroke-linecap="round" stroke-linejoin="round" fill-opacity="0" stroke="rgb(134,177,196)"
                        stroke-opacity="1" stroke-width="7"
                        d=" M-40.52591323852539,28.048830032348633 C-40.52591323852539,28.048830032348633 30.54124641418457,-20.778837203979492 30.54124641418457,-20.778837203979492">
                    </path>
                </g>
            </g>
            <g transform="matrix(1,0,0,1,256,256)" opacity="1" style="display: block;">
                <g opacity="1" transform="matrix(1,0,0,1,0,0)">
                    <path stroke-linecap="round" stroke-linejoin="round" fill-opacity="0" stroke="rgb(151,190,229)"
                        stroke-opacity="1" stroke-width="12" d="M0 0"></path>
                </g>
            </g>
            <g transform="matrix(1,0,0,1,256,256)" opacity="1" style="display: block;">
                <g opacity="1" transform="matrix(1,0,0,1,0,0)">
                    <path stroke-linecap="round" stroke-linejoin="round" fill-opacity="0" stroke="rgb(151,190,229)"
                        stroke-opacity="1" stroke-width="20" d="M0 0"></path>
                </g>
            </g>
            <g transform="matrix(1,0,0,1,256,256)" opacity="1" style="display: block;">
                <g opacity="1" transform="matrix(1,0,0,1,0,0)">
                    <path stroke-linecap="round" stroke-linejoin="round" fill-opacity="0" stroke="rgb(151,190,229)"
                        stroke-opacity="1" stroke-width="15" d="M0 0"></path>
                </g>
            </g>
            <g transform="matrix(1,0,0,1,238.96299743652344,274.9840087890625)" opacity="1" style="display: block;">
                <g opacity="1" transform="matrix(1,0,0,1,0,0)">
                    <path stroke-linecap="round" stroke-linejoin="round" fill-opacity="0" stroke="rgb(255,255,255)"
                        stroke-opacity="1" stroke-width="20" d="M0 0"></path>
                </g>
            </g>
            <g transform="matrix(1,0,0,1,286.07598876953125,262.6099853515625)" opacity="1" style="display: block;">
                <g opacity="1" transform="matrix(1,0,0,1,0,0)">
                    <path stroke-linecap="round" stroke-linejoin="round" fill-opacity="0" stroke="rgb(255,255,255)"
                        stroke-opacity="1" stroke-width="20" d="M0 0"></path>
                </g>
            </g>
        </g>
        <g clip-path="url(#__lottie_element_492)" transform="matrix(1,0,0,1,0,0)" opacity="1" style="display: none;">
            <g clip-path="url(#__lottie_element_611)"
                transform="matrix(1.0499999523162842,0,0,0.8500000238418579,-32.79998779296875,83.39999389648438)"
                opacity="1" style="display: none;">
                <g transform="matrix(1.5022599697113037,0,0,1.5022599697113037,-7.507354736328125,337.35150146484375)"
                    opacity="1" style="display: none;">
                    <g opacity="1" transform="matrix(1,0,0,1,176.4949951171875,64.81999969482422)">
                        <path stroke-linecap="round" stroke-linejoin="round" fill-opacity="0" stroke="rgb(3,180,255)"
                            stroke-opacity="1" stroke-width="0"
                            d=" M151.4949951171875,0 C151.4949951171875,21.992000579833984 83.66899871826172,39.81999969482422 0.0010000000474974513,39.81999969482422 C-83.66699981689453,39.81999969482422 -151.49400329589844,21.992000579833984 -151.49400329589844,0 C-151.49400329589844,-21.992000579833984 -83.66699981689453,-39.81999969482422 0.0010000000474974513,-39.81999969482422 C83.66899871826172,-39.81999969482422 151.4949951171875,-21.992000579833984 151.4949951171875,0z">
                        </path>
                    </g>
                </g>
            </g>
            <g clip-path="url(#__lottie_element_604)"
                transform="matrix(1.0499999523162842,0,0,0.8500000238418579,2.20001220703125,83.39999389648438)"
                opacity="1" style="display: block;">
                <g transform="matrix(1.5022599697113037,0,0,1.5022599697113037,-7.507354736328125,337.35150146484375)"
                    opacity="1" style="display: block;">
                    <g opacity="1" transform="matrix(1,0,0,1,176.4949951171875,64.81999969482422)">
                        <path stroke-linecap="round" stroke-linejoin="round" fill-opacity="0" stroke="rgb(3,180,255)"
                            stroke-opacity="1" stroke-width="0"
                            d=" M151.4949951171875,0 C151.4949951171875,21.992000579833984 83.66899871826172,39.81999969482422 0.0010000000474974513,39.81999969482422 C-83.66699981689453,39.81999969482422 -151.49400329589844,21.992000579833984 -151.49400329589844,0 C-151.49400329589844,-21.992000579833984 -83.66699981689453,-39.81999969482422 0.0010000000474974513,-39.81999969482422 C83.66899871826172,-39.81999969482422 151.4949951171875,-21.992000579833984 151.4949951171875,0z">
                        </path>
                    </g>
                </g>
            </g>
            <g clip-path="url(#__lottie_element_597)" style="display: block;"
                transform="matrix(1.0499999523162842,0,0,0.8500000238418579,-32.79998779296875,83.39999389648438)"
                opacity="1">
                <g transform="matrix(1.2942509651184082,0,0,1.2942509651184082,29.205184936523438,350.1914978027344)"
                    opacity="1" style="display: block;">
                    <g opacity="1" transform="matrix(1,0,0,1,176.4949951171875,64.81999969482422)">
                        <path stroke-linecap="round" stroke-linejoin="round" fill-opacity="0" stroke="rgb(3,180,255)"
                            stroke-opacity="1" stroke-width="1.6900913999460068"
                            d=" M151.4949951171875,0 C151.4949951171875,21.992000579833984 83.66899871826172,39.81999969482422 0.0010000000474974513,39.81999969482422 C-83.66699981689453,39.81999969482422 -151.49400329589844,21.992000579833984 -151.49400329589844,0 C-151.49400329589844,-21.992000579833984 -83.66699981689453,-39.81999969482422 0.0010000000474974513,-39.81999969482422 C83.66899871826172,-39.81999969482422 151.4949951171875,-21.992000579833984 151.4949951171875,0z">
                        </path>
                    </g>
                </g>
            </g>
            <g clip-path="url(#__lottie_element_590)" style="display: none;">
                <g style="display: none;">
                    <g>
                        <path stroke-linecap="round" stroke-linejoin="round" fill-opacity="0"></path>
                    </g>
                </g>
            </g>
            <g clip-path="url(#__lottie_element_583)" style="display: none;">
                <g style="display: none;">
                    <g>
                        <path stroke-linecap="round" stroke-linejoin="round" fill-opacity="0"></path>
                    </g>
                </g>
            </g>
            <g transform="matrix(1.0499999523162842,0,0,1.0499999523162842,246.818359375,361.3215026855469)" opacity="1"
                style="display: block;">
                <g opacity="1" transform="matrix(1,0,0,1,0,0)">
                    <path fill="rgb(254,216,32)" fill-opacity="1"
                        d=" M-16.2450008392334,104.44999694824219 C-80.10199737548828,104.44999694824219 -188.31900024414062,102.61199951171875 -179.66900634765625,25.81999969482422 C-171.2550048828125,-48.87699890136719 -106.63200378417969,-106.88500213623047 -3.944999933242798,-104.29399871826172 C78.04399871826172,-102.2249984741211 142.302001953125,-66.85600280761719 156.4810028076172,34.494998931884766 C161.22500610351562,95.63300323486328 65.30599975585938,104.44999694824219 -16.2450008392334,104.44999694824219z">
                    </path>
                    <path stroke-linecap="round" stroke-linejoin="round" fill-opacity="0" stroke="rgb(250,144,22)"
                        stroke-opacity="1" stroke-width="10"
                        d=" M-16.2450008392334,104.44999694824219 C-80.10199737548828,104.44999694824219 -188.31900024414062,102.61199951171875 -179.66900634765625,25.81999969482422 C-171.2550048828125,-48.87699890136719 -106.63200378417969,-106.88500213623047 -3.944999933242798,-104.29399871826172 C78.04399871826172,-102.2249984741211 142.302001953125,-66.85600280761719 156.4810028076172,34.494998931884766 C161.22500610351562,95.63300323486328 65.30599975585938,104.44999694824219 -16.2450008392334,104.44999694824219z">
                    </path>
                </g>
            </g>
            <g transform="matrix(1.1087100505828857,0.2333589494228363,-0.21482303738594055,1.020644187927246,440.5754699707031,423.8837890625)"
                opacity="1" style="display: block;">
                <g opacity="1" transform="matrix(1,0,0,1,35.6879997253418,48.13999938964844)">
                    <path stroke-linecap="round" stroke-linejoin="round" fill-opacity="0" stroke="rgb(255,255,255)"
                        stroke-opacity="1" stroke-width="8"
                        d=" M-81.30500030517578,-40.10300064086914 C-79.83399963378906,-44.25199890136719 -80.24400329589844,-51.395999908447266 -81.95600128173828,-59.65700149536133">
                    </path>
                </g>
            </g>
            <g transform="matrix(0.7896612882614136,0.6920512914657593,0.6920512914657593,-0.7896612882614136,420.1913146972656,324.7124938964844)"
                opacity="1" style="display: block;">
                <g opacity="1" transform="matrix(1,0,0,1,0,0)">
                    <path fill="rgb(254,216,32)" fill-opacity="1"
                        d=" M-63.507999420166016,-13.868000030517578 C-42.222999572753906,-10.166000366210938 7.181000232696533,-14.321999549865723 29.934999465942383,-41.17599868774414 C46.347999572753906,-60.54600143432617 34.20600128173828,-66.38899993896484 15.170000076293945,-55.5629997253418 C3.4240000247955322,-48.88199996948242 -1.659999966621399,-44.96200180053711 -19.726999282836914,-42.85900115966797">
                    </path>
                    <path stroke-linecap="round" stroke-linejoin="round" fill-opacity="0" stroke="rgb(250,144,22)"
                        stroke-opacity="1" stroke-width="10.204"
                        d=" M-63.507999420166016,-13.868000030517578 C-42.222999572753906,-10.166000366210938 7.181000232696533,-14.321999549865723 29.934999465942383,-41.17599868774414 C46.347999572753906,-60.54600143432617 34.20600128173828,-66.38899993896484 15.170000076293945,-55.5629997253418 C3.4240000247955322,-48.88199996948242 -1.659999966621399,-44.96200180053711 -19.726999282836914,-42.85900115966797">
                    </path>
                </g>
            </g>
            <g transform="matrix(1.1087100505828857,0.2333589494228363,-0.21482303738594055,1.020644187927246,440.5754699707031,423.8837890625)"
                opacity="1" style="display: block;">
                <g opacity="1" transform="matrix(1,0,0,1,35.6879997253418,48.13999938964844)">
                    <path stroke-linecap="round" stroke-linejoin="round" fill-opacity="0" stroke="rgb(255,255,255)"
                        stroke-opacity="1" stroke-width="8"
                        d=" M-75.31800079345703,-90.31500244140625 C-81.1780014038086,-106.7959976196289 -86.13300323486328,-113.15499877929688 -92.90599822998047,-120.06199645996094">
                    </path>
                </g>
            </g>
            <g transform="matrix(1.1087100505828857,0.2333589494228363,-0.21482303738594055,1.020644187927246,422.5753173828125,426.8836364746094)"
                opacity="1" style="display: block;">
                <g opacity="1" transform="matrix(1,0,0,1,35.6879997253418,48.13999938964844)">
                    <path stroke-linecap="round" stroke-linejoin="round" fill-opacity="0" stroke="rgb(252,238,33)"
                        stroke-opacity="1" stroke-width="8"
                        d=" M-321.010009765625,18.10099983215332 C-350.37701416015625,3.5409998893737793 -347.2699890136719,-46.64500045776367 -339.7049865722656,-56.96799850463867">
                    </path>
                </g>
            </g>
            <g transform="matrix(1.0714147090911865,-0.2599548101425171,0.2599548101425171,1.0714147090911865,232.92214965820312,166.3336944580078)"
                opacity="1" style="display: block;">
                <g opacity="1"
                    transform="matrix(0.9999999403953552,-0.0002617993741296232,0.0002617993741296232,0.9999999403953552,0,0)">
                    <path fill="rgb(254,216,32)" fill-opacity="1"
                        d=" M-132.5919952392578,102.30699920654297 C-155.75,75.9739990234375 -166.2949981689453,42.689998626708984 -160.468994140625,6.583000183105469 C-148.0919952392578,-70.12300109863281 -66.35099792480469,-134.4080047607422 19.45400047302246,-120.56300354003906 C105.25800323486328,-106.71800231933594 162.6320037841797,-19.986000061035156 150.2550048828125,56.720001220703125 C144.41299438476562,92.92500305175781 116.54399871826172,130.0780029296875 86.64099884033203,147.6719970703125">
                    </path>
                    <path stroke-linecap="round" stroke-linejoin="round" fill-opacity="0" stroke="rgb(250,144,22)"
                        stroke-opacity="1" stroke-width="10"
                        d=" M-132.5919952392578,102.30699920654297 C-155.75,75.9739990234375 -166.2949981689453,42.689998626708984 -160.468994140625,6.583000183105469 C-148.0919952392578,-70.12300109863281 -66.35099792480469,-134.4080047607422 19.45400047302246,-120.56300354003906 C105.25800323486328,-106.71800231933594 162.6320037841797,-19.986000061035156 150.2550048828125,56.720001220703125 C144.41299438476562,92.92500305175781 116.54399871826172,130.0780029296875 86.64099884033203,147.6719970703125">
                    </path>
                </g>
            </g>
            <g transform="matrix(1.177657961845398,0.168507382273674,-0.15512268245220184,1.0841155052185059,458.1210021972656,235.3262176513672)"
                opacity="1" style="display: block;">
                <g opacity="1" transform="matrix(1,0,0,1,35.6879997253418,48.13999938964844)">
                    <path stroke-linecap="round" stroke-linejoin="round" fill-opacity="0" stroke="rgb(252,238,33)"
                        stroke-opacity="1" stroke-width="8"
                        d=" M-337.0920104980469,13.479999542236328 C-366.9639892578125,-30.424999237060547 -348.8160095214844,-73.66899871826172 -340.4840087890625,-91.58399963378906">
                    </path>
                </g>
            </g>
            <g transform="matrix(-0.6748358011245728,0.979729413986206,-0.9019085764884949,-0.6212329864501953,108.62078857421875,396.9930114746094)"
                opacity="1" style="display: block;">
                <g opacity="1" transform="matrix(1,0,0,1,35.6879997253418,48.13999938964844)">
                    <path stroke-linecap="round" stroke-linejoin="round" fill-opacity="0" stroke="rgb(255,255,255)"
                        stroke-opacity="1" stroke-width="8"
                        d=" M-341.0190124511719,15.972999572753906 C-358.4100036621094,-17.075000762939453 -350.52398681640625,-78.94400024414062 -342.3450012207031,-96.53199768066406">
                    </path>
                </g>
            </g>
            <g transform="matrix(1.4378528594970703,0.2233109325170517,-0.20301039516925812,1.3071417808532715,-64.50239562988281,310.60589599609375)"
                opacity="1" style="display: block;">
                <path stroke-linecap="butt" stroke-linejoin="miter" fill-opacity="0" stroke-miterlimit="4"
                    stroke="rgb(0,0,0)" stroke-opacity="1" stroke-width="0.00000363702754224704"
                    d=" M145.42599487304688,-138 C154.11500549316406,-138 161.53599548339844,-131.5800018310547 164.48800659179688,-122.53099822998047 C165.36900329589844,-119.83200073242188 165.8520050048828,-116.89800262451172 165.8520050048828,-113.83100128173828 C165.8520050048828,-110.85800170898438 165.3979949951172,-108.01000213623047 164.5679931640625,-105.37899780273438 C161.6719970703125,-96.1989974975586 154.19400024414062,-89.66200256347656 145.42599487304688,-89.66200256347656 C137.08999633789062,-89.66200256347656 129.9199981689453,-95.56999969482422 126.74500274658203,-104.04100036621094 C125.62300109863281,-107.03399658203125 125,-110.34600067138672 125,-113.83100128173828 C125,-116.7040023803711 125.42400360107422,-119.45899963378906 126.20099639892578,-122.01499938964844 C129.03500366210938,-131.3350067138672 136.572998046875,-138 145.42599487304688,-138z">
                </path>
                <g opacity="1" transform="matrix(1,0,0,1,0,0)">
                    <path fill="rgb(0,0,0)" fill-opacity="1"
                        d=" M145.42599487304688,-138 C154.11500549316406,-138 161.53599548339844,-131.5800018310547 164.48800659179688,-122.53099822998047 C165.36900329589844,-119.83200073242188 165.8520050048828,-116.89800262451172 165.8520050048828,-113.83100128173828 C165.8520050048828,-110.85800170898438 165.3979949951172,-108.01000213623047 164.5679931640625,-105.37899780273438 C161.6719970703125,-96.1989974975586 154.19400024414062,-89.66200256347656 145.42599487304688,-89.66200256347656 C137.08999633789062,-89.66200256347656 129.9199981689453,-95.56999969482422 126.74500274658203,-104.04100036621094 C125.62300109863281,-107.03399658203125 125,-110.34600067138672 125,-113.83100128173828 C125,-116.7040023803711 125.42400360107422,-119.45899963378906 126.20099639892578,-122.01499938964844 C129.03500366210938,-131.3350067138672 136.572998046875,-138 145.42599487304688,-138z">
                    </path>
                </g>
            </g>
            <g transform="matrix(1.1502821445465088,0.1786487102508545,-0.16240832209587097,1.0457135438919067,177.2496795654297,181.34561157226562)"
                opacity="1" style="display: block;">
                <g opacity="1" transform="matrix(1,0,0,1,0,0)">
                    <path fill="rgb(255,255,255)" fill-opacity="1"
                        d=" M-6.406000137329102,3.2860000133514404 C-4.247000217437744,7.494999885559082 0.3709999918937683,9.435999870300293 3.9089999198913574,7.620999813079834 C7.447000026702881,5.806000232696533 8.5649995803833,0.9229999780654907 6.406000137329102,-3.2860000133514404 C4.247000217437744,-7.494999885559082 -0.3709999918937683,-9.435999870300293 -3.9089999198913574,-7.620999813079834 C-7.447000026702881,-5.806000232696533 -8.5649995803833,-0.9229999780654907 -6.406000137329102,3.2860000133514404z">
                    </path>
                </g>
            </g>
            <g transform="matrix(1.4552584886550903,0.010972636751830578,-0.009973706677556038,1.3227750062942505,120.86650085449219,354.4612731933594)"
                opacity="1" style="display: block;">
                <path stroke-linecap="butt" stroke-linejoin="miter" fill-opacity="0" stroke-miterlimit="4"
                    stroke="rgb(0,0,0)" stroke-opacity="1" stroke-width="0.00000363702754224704"
                    d=" M145.43,-138 C154.12,-138 161.54,-131.58 164.49,-122.53 C165.37,-119.83 165.85,-116.9 165.85,-113.83 C165.85,-110.86 165.4,-108.01 164.57,-105.38 C161.67,-96.2 154.2,-89.66 145.43,-89.66 C137.09,-89.66 129.92,-95.57 126.75,-104.04 C125.62,-107.03 125,-110.34 125,-113.83 C125,-116.7 125.43,-119.46 126.2,-122.01 C129.04,-131.33 136.58,-138 145.43,-138z">
                </path>
                <g opacity="1" transform="matrix(1,0.000017453292457503267,-0.000017453292457503267,1,0,0)">
                    <path fill="rgb(0,0,0)" fill-opacity="1"
                        d=" M145.42599487304688,-138 C154.11500549316406,-138 161.53599548339844,-131.5800018310547 164.48800659179688,-122.53099822998047 C165.36900329589844,-119.83200073242188 165.8520050048828,-116.89800262451172 165.8520050048828,-113.83100128173828 C165.8520050048828,-110.85800170898438 165.3979949951172,-108.01000213623047 164.5679931640625,-105.37899780273438 C161.6719970703125,-96.1989974975586 154.19400024414062,-89.66200256347656 145.42599487304688,-89.66200256347656 C137.08999633789062,-89.66200256347656 129.9199981689453,-95.56999969482422 126.74500274658203,-104.04100036621094 C125.62300109863281,-107.03399658203125 125,-110.34600067138672 125,-113.83100128173828 C125,-116.7040023803711 125.42400360107422,-119.45899963378906 126.20099639892578,-122.01499938964844 C129.03500366210938,-131.3350067138672 136.572998046875,-138 145.42599487304688,-138z">
                    </path>
                </g>
            </g>
            <g transform="matrix(1.164206862449646,0.0087781036272645,-0.007978965528309345,1.0582200288772583,341.1853942871094,191.2873992919922)"
                opacity="1" style="display: block;">
                <g opacity="1" transform="matrix(1,0,0,1,0,0)">
                    <path fill="rgb(255,255,255)" fill-opacity="1"
                        d=" M-6.406000137329102,3.2860000133514404 C-4.247000217437744,7.494999885559082 0.3709999918937683,9.435999870300293 3.9089999198913574,7.620999813079834 C7.447000026702881,5.806000232696533 8.5649995803833,0.9229999780654907 6.406000137329102,-3.2860000133514404 C4.247000217437744,-7.494999885559082 -0.3709999918937683,-9.435999870300293 -3.9089999198913574,-7.620999813079834 C-7.447000026702881,-5.806000232696533 -8.5649995803833,-0.9229999780654907 -6.406000137329102,3.2860000133514404z">
                    </path>
                </g>
            </g>
            <g transform="matrix(1.0894391536712646,0.16919928789138794,-0.16919928789138794,1.0894391536712646,239.46524047851562,258.04296875)"
                opacity="1" style="display: block;">
                <g opacity="1" transform="matrix(1,0,0,1,0,0)">
                    <path fill="rgb(255,93,31)" fill-opacity="1"
                        d=" M70.14800262451172,14.756999969482422 C76.125,10.479000091552734 84.87200164794922,5.083000183105469 82.75499725341797,-4.875 C80.29900360107422,-16.43000030517578 71.43900299072266,-14.038999557495117 65.49299621582031,-14.479999542236328 C29.636999130249023,-17.141000747680664 31.277999877929688,-42.893001556396484 5.821000099182129,-42.893001556396484 C-19.63599967956543,-42.893001556396484 -29.59600067138672,-7.833000183105469 -48.957000732421875,-3.186000108718872 C-56.95199966430664,-1.2669999599456787 -61.702999114990234,-1.8339999914169312 -63.439998626708984,3.9690001010894775 C-65.18000030517578,9.781000137329102 -63.106998443603516,16.344999313354492 -55.30400085449219,22.086999893188477 C-24.784000396728516,44.547000885009766 46.01599884033203,32.03099822998047 70.14800262451172,14.756999969482422z">
                    </path>
                    <path stroke-linecap="butt" stroke-linejoin="miter" fill-opacity="0" stroke-miterlimit="10"
                        stroke="rgb(207,53,2)" stroke-opacity="1" stroke-width="8"
                        d=" M70.14800262451172,14.756999969482422 C76.125,10.479000091552734 84.87200164794922,5.083000183105469 82.75499725341797,-4.875 C80.29900360107422,-16.43000030517578 71.43900299072266,-14.038999557495117 65.49299621582031,-14.479999542236328 C29.636999130249023,-17.141000747680664 31.277999877929688,-42.893001556396484 5.821000099182129,-42.893001556396484 C-19.63599967956543,-42.893001556396484 -29.59600067138672,-7.833000183105469 -48.957000732421875,-3.186000108718872 C-56.95199966430664,-1.2669999599456787 -61.702999114990234,-1.8339999914169312 -63.439998626708984,3.9690001010894775 C-65.18000030517578,9.781000137329102 -63.106998443603516,16.344999313354492 -55.30400085449219,22.086999893188477 C-24.784000396728516,44.547000885009766 46.01599884033203,32.03099822998047 70.14800262451172,14.756999969482422z">
                    </path>
                </g>
            </g>
            <g transform="matrix(1.1206319332122803,0.42394334077835083,-0.42394334077835083,1.1206319332122803,238.35423278808594,228.52102661132812)"
                opacity="1" style="display: block;">
                <g opacity="1" transform="matrix(1,0,0,1,24.70599937438965,22.10700035095215)">
                    <path stroke-linecap="round" stroke-linejoin="round" fill-opacity="0" stroke="rgb(255,180,132)"
                        stroke-opacity="1" stroke-width="8"
                        d=" M30.864999771118164,-15.086999893188477 C20.327999114990234,-13.97700023651123 1.1970000267028809,-18.56399917602539 -8.352999687194824,-30.27199935913086">
                    </path>
                </g>
            </g>
            <g transform="matrix(1.0894391536712646,0.16919928789138794,-0.16919928789138794,1.0894391536712646,236.99139404296875,273.9716491699219)"
                opacity="1" style="display: block;">
                <g opacity="1" transform="matrix(1,0,0,1,0,0)">
                    <path stroke-linecap="round" stroke-linejoin="round" fill-opacity="0" stroke="rgb(125,9,9)"
                        stroke-opacity="1" stroke-width="7.2"
                        d=" M-43.6349983215332,-2.6389999389648438 C-7.40500020980835,10.204999923706055 48.696998596191406,-2.263000011444092 67.48500061035156,-15.880000114440918">
                    </path>
                </g>
            </g>
            <g transform="matrix(1,0,0,1,256,256)" opacity="1" style="display: block;"></g>
            <g transform="matrix(1.717294454574585,0.44585317373275757,-0.28523585200309753,1.0986440181732178,437.4925537109375,182.43490600585938)"
                opacity="1" style="display: none;">
                <g opacity="1" transform="matrix(1,0,0,1,0,0)">
                    <path fill="rgb(255,255,255)" fill-opacity="1"
                        d=" M-43.66899871826172,20.232999801635742 C-43.66899871826172,20.232999801635742 38.59210205078125,-42.005165100097656 38.59210205078125,-42.005165100097656 C38.59210205078125,-42.005165100097656 -15.062000274658203,46.178001403808594 -15.062000274658203,46.178001403808594 C-15.062000274658203,46.178001403808594 -43.66899871826172,20.232999801635742 -43.66899871826172,20.232999801635742z">
                    </path>
                    <path stroke-linecap="round" stroke-linejoin="round" fill-opacity="0" stroke="rgb(134,177,196)"
                        stroke-opacity="1" stroke-width="7"
                        d=" M-43.66899871826172,20.232999801635742 C-43.66899871826172,20.232999801635742 38.59210205078125,-42.005165100097656 38.59210205078125,-42.005165100097656 C38.59210205078125,-42.005165100097656 -15.062000274658203,46.178001403808594 -15.062000274658203,46.178001403808594 C-15.062000274658203,46.178001403808594 -43.66899871826172,20.232999801635742 -43.66899871826172,20.232999801635742z">
                    </path>
                </g>
            </g>
            <g transform="matrix(1.0335838794708252,-0.9700568914413452,-0.9700568914413452,-1.0335838794708252,169.57577514648438,344.69219970703125)"
                opacity="1" style="display: block;">
                <g opacity="1" transform="matrix(1,0,0,1,0,0)">
                    <path fill="rgb(254,216,32)" fill-opacity="1"
                        d=" M-31.92099952697754,19.95800018310547 C-41.10300064086914,3.0950000286102295 -44.15700149536133,-4.771999835968018 -52.2859992980957,-21.082000732421875 C-64.31900024414062,-45.22600173950195 -46.766998291015625,-42.97999954223633 -31.746999740600586,-35.323001861572266 C-22.381999969482422,-30.548999786376953 -3.380000114440918,-16.08799934387207 4.146999835968018,-2.2209999561309814">
                    </path>
                    <path stroke-linecap="round" stroke-linejoin="round" fill-opacity="0" stroke="rgb(250,144,22)"
                        stroke-opacity="1" stroke-width="7.407"
                        d=" M-31.92099952697754,19.95800018310547 C-41.10300064086914,3.0950000286102295 -44.15700149536133,-4.771999835968018 -52.2859992980957,-21.082000732421875 C-64.31900024414062,-45.22600173950195 -46.766998291015625,-42.97999954223633 -31.746999740600586,-35.323001861572266 C-22.381999969482422,-30.548999786376953 -3.380000114440918,-16.08799934387207 4.146999835968018,-2.2209999561309814">
                    </path>
                </g>
            </g>
            <g transform="matrix(-0.21990840137004852,1.1787105798721313,-1.2263529300689697,-0.22879686951637268,249.91293334960938,741.1568603515625)"
                opacity="1" style="display: block;">
                <g opacity="1" transform="matrix(1,0,0,1,35.6879997253418,48.13999938964844)">
                    <path stroke-linecap="round" stroke-linejoin="round" fill-opacity="0" stroke="rgb(255,255,255)"
                        stroke-opacity="1" stroke-width="8.333"
                        d=" M-341.82000732421875,80.98200225830078 C-327.031005859375,75.25 -305.6239929199219,74 -294.42498779296875,73.8010025024414">
                    </path>
                </g>
            </g>
            <g transform="matrix(1.717294454574585,0.44585317373275757,-0.28523585200309753,1.0986440181732178,418.28656005859375,176.64991760253906)"
                opacity="1" style="display: none;">
                <g opacity="1" transform="matrix(1,0,0,1,0,0)">
                    <path fill="rgb(255,255,255)" fill-opacity="1"
                        d=" M51.699737548828125,-43.162010192871094 C51.699737548828125,-43.162010192871094 -48.649192810058594,1.6540319919586182 -48.649192810058594,1.6540319919586182 C-48.649192810058594,1.6540319919586182 -38.53874969482422,17.010576248168945 -38.53874969482422,17.010576248168945 C-38.53874969482422,17.010576248168945 -41.881134033203125,46.793479919433594 -41.881134033203125,46.793479919433594 C-41.881134033203125,46.793479919433594 51.699737548828125,-43.162010192871094 51.699737548828125,-43.162010192871094z">
                    </path>
                    <path stroke-linecap="round" stroke-linejoin="round" fill-opacity="0" stroke="rgb(134,177,196)"
                        stroke-opacity="1" stroke-width="7"
                        d=" M51.699737548828125,-43.162010192871094 C51.699737548828125,-43.162010192871094 -48.649192810058594,1.6540319919586182 -48.649192810058594,1.6540319919586182 C-48.649192810058594,1.6540319919586182 -38.53874969482422,17.010576248168945 -38.53874969482422,17.010576248168945 C-38.53874969482422,17.010576248168945 -41.881134033203125,46.793479919433594 -41.881134033203125,46.793479919433594 C-41.881134033203125,46.793479919433594 51.699737548828125,-43.162010192871094 51.699737548828125,-43.162010192871094z">
                    </path>
                </g>
            </g>
            <g style="display: none;">
                <g>
                    <path></path>
                    <path stroke-linecap="round" stroke-linejoin="round" fill-opacity="0"></path>
                </g>
            </g>
            <g style="display: none;">
                <g>
                    <path></path>
                    <path stroke-linecap="round" stroke-linejoin="round" fill-opacity="0"></path>
                </g>
            </g>
            <g transform="matrix(1.717294454574585,0.44585317373275757,-0.28523585200309753,1.0986440181732178,434.47198486328125,165.0370635986328)"
                opacity="0.33" style="display: none;">
                <g opacity="1" transform="matrix(1,0,0,1,0,0)">
                    <path stroke-linecap="round" stroke-linejoin="round" fill-opacity="0" stroke="rgb(134,177,196)"
                        stroke-opacity="1" stroke-width="7"
                        d=" M-46.125579833984375,31.106937408447266 C-46.125579833984375,31.106937408447266 43.84733963012695,-29.4481143951416 43.84733963012695,-29.4481143951416">
                    </path>
                </g>
            </g>
            <g transform="matrix(1,0,0,1,256,256)" opacity="1" style="display: block;">
                <g opacity="1" transform="matrix(1,0,0,1,0,0)">
                    <path stroke-linecap="round" stroke-linejoin="round" fill-opacity="0" stroke="rgb(151,190,229)"
                        stroke-opacity="1" stroke-width="12" d="M0 0"></path>
                </g>
            </g>
            <g transform="matrix(1,0,0,1,256,256)" opacity="1" style="display: block;">
                <g opacity="1" transform="matrix(1,0,0,1,0,0)">
                    <path stroke-linecap="round" stroke-linejoin="round" fill-opacity="0" stroke="rgb(151,190,229)"
                        stroke-opacity="1" stroke-width="20" d="M0 0"></path>
                </g>
            </g>
            <g transform="matrix(1,0,0,1,256,256)" opacity="1" style="display: block;">
                <g opacity="1" transform="matrix(1,0,0,1,0,0)">
                    <path stroke-linecap="round" stroke-linejoin="round" fill-opacity="0" stroke="rgb(151,190,229)"
                        stroke-opacity="1" stroke-width="15" d="M0 0"></path>
                </g>
            </g>
            <g transform="matrix(1,0,0,1,238.96299743652344,274.9840087890625)" opacity="1" style="display: block;">
                <g opacity="1" transform="matrix(1,0,0,1,0,0)">
                    <path stroke-linecap="round" stroke-linejoin="round" fill-opacity="0" stroke="rgb(255,255,255)"
                        stroke-opacity="1" stroke-width="20" d="M0 0"></path>
                </g>
            </g>
            <g transform="matrix(1,0,0,1,286.07598876953125,262.6099853515625)" opacity="1" style="display: block;">
                <g opacity="1" transform="matrix(1,0,0,1,0,0)">
                    <path stroke-linecap="round" stroke-linejoin="round" fill-opacity="0" stroke="rgb(255,255,255)"
                        stroke-opacity="1" stroke-width="20" d="M0 0"></path>
                </g>
            </g>
        </g>
    </g>
</svg>