<svg xmlns="http://www.w3.org/2000/svg" xmlns:xlink="http://www.w3.org/1999/xlink" viewBox="0 0 512 512" width="512"
    height="512" preserveAspectRatio="xMidYMid meet"
    style="width: 100%; height: 100%; transform: translate3d(0px, 0px, 0px); content-visibility: visible;">
    <defs>
        <clipPath id="__lottie_element_1162">
            <rect width="512" height="512" x="0" y="0"></rect>
        </clipPath>
        <clipPath id="__lottie_element_1164">
            <path d="M0,0 L512,0 L512,512 L0,512z"></path>
        </clipPath>
        <clipPath id="__lottie_element_1261">
            <path d="M0,0 L512,0 L512,512 L0,512z"></path>
        </clipPath>
        <clipPath id="__lottie_element_1269">
            <path d="M0,0 L512,0 L512,512 L0,512z"></path>
        </clipPath>
        <clipPath id="__lottie_element_1277">
            <path d="M0,0 L512,0 L512,512 L0,512z"></path>
        </clipPath>
    </defs>
    <g clip-path="url(#__lottie_element_1162)">
        <g clip-path="url(#__lottie_element_1277)" style="display: block;" transform="matrix(1,0,0,1,0,170)"
            opacity="1">
            <g transform="matrix(0.25,0,0,0.25,26.27841567993164,262.3897399902344)" opacity="1"
                style="display: block;">
                <g opacity="1" transform="matrix(1,0,0,1,0,0)">
                    <path fill="rgb(254,254,255)" fill-opacity="1"
                        d=" M184.32000732421875,-0.46299999952316284 C181.281005859375,-41.59400177001953 146.9720001220703,-74.0270004272461 105.06400299072266,-74.0270004272461 C93.74700164794922,-74.0270004272461 82.98899841308594,-71.64600372314453 73.24400329589844,-67.38400268554688 C54.54100036621094,-103.9749984741211 16.479000091552734,-129.02699279785156 -27.43600082397461,-129.02699279785156 C-81.35299682617188,-129.02699279785156 -126.44400024414062,-91.26399993896484 -137.71800231933594,-40.744998931884766 C-140.10000610351562,-40.930999755859375 -142.50599670410156,-41.027000427246094 -144.93600463867188,-41.027000427246094 C-195.47000122070312,-41.027000427246094 -236.43600463867188,-0.061000000685453415 -236.43600463867188,50.472999572753906 C-236.43600463867188,101.00700378417969 -195.47000122070312,141.97300720214844 -144.93600463867188,141.97300720214844 C-137.8679962158203,141.97300720214844 -130.98800659179688,141.1699981689453 -124.37999725341797,139.6529998779297 C-110.80899810791016,181.61900329589844 -71.41999816894531,211.97300720214844 -24.93600082397461,211.97300720214844 C2.4179999828338623,211.97300720214844 27.312000274658203,201.45799255371094 45.93899917602539,184.25599670410156 C55.262001037597656,187.31300354003906 65.21900177001953,188.97300720214844 75.56400299072266,188.97300720214844 C112.44300079345703,188.97300720214844 144.41299438476562,167.95799255371094 160.15499877929688,137.25 C165.11500549316406,138.36500549316406 170.26699829101562,138.97300720214844 175.56399536132812,138.97300720214844 C214.2239990234375,138.97300720214844 245.56399536132812,107.63300323486328 245.56399536132812,68.9729995727539 C245.56399536132812,33.28099822998047 218.843994140625,3.8489999771118164 184.32000732421875,-0.46299999952316284z">
                    </path>
                    <path fill="rgb(254,254,255)" fill-opacity="1"
                        d=" M184.32000732421875,-0.46299999952316284 C181.281005859375,-41.59400177001953 146.9720001220703,-74.0270004272461 105.06400299072266,-74.0270004272461 C93.74700164794922,-74.0270004272461 82.98899841308594,-71.64600372314453 73.24400329589844,-67.38400268554688 C54.54100036621094,-103.9749984741211 16.479000091552734,-129.02699279785156 -27.43600082397461,-129.02699279785156 C-81.35299682617188,-129.02699279785156 -126.44400024414062,-91.26399993896484 -137.71800231933594,-40.744998931884766 C-140.10000610351562,-40.930999755859375 -142.50599670410156,-41.027000427246094 -144.93600463867188,-41.027000427246094 C-195.47000122070312,-41.027000427246094 -236.43600463867188,-0.061000000685453415 -236.43600463867188,50.472999572753906 C-236.43600463867188,101.00700378417969 -195.47000122070312,141.97300720214844 -144.93600463867188,141.97300720214844 C-137.8679962158203,141.97300720214844 -130.98800659179688,141.1699981689453 -124.37999725341797,139.6529998779297 C-110.80899810791016,181.61900329589844 -71.41999816894531,211.97300720214844 -24.93600082397461,211.97300720214844 C2.4179999828338623,211.97300720214844 27.312000274658203,201.45799255371094 45.93899917602539,184.25599670410156 C55.262001037597656,187.31300354003906 65.21900177001953,188.97300720214844 75.56400299072266,188.97300720214844 C112.44300079345703,188.97300720214844 144.41299438476562,167.95799255371094 160.15499877929688,137.25 C165.11500549316406,138.36500549316406 170.26699829101562,138.97300720214844 175.56399536132812,138.97300720214844 C214.2239990234375,138.97300720214844 245.56399536132812,107.63300323486328 245.56399536132812,68.9729995727539 C245.56399536132812,33.28099822998047 218.843994140625,3.8489999771118164 184.32000732421875,-0.46299999952316284z">
                    </path>
                    <path stroke-linecap="round" stroke-linejoin="round" fill-opacity="0" stroke="rgb(180,215,255)"
                        stroke-opacity="1" stroke-width="40"
                        d=" M184.32000732421875,-0.46299999952316284 C181.281005859375,-41.59400177001953 146.9720001220703,-74.0270004272461 105.06400299072266,-74.0270004272461 C93.74700164794922,-74.0270004272461 82.98899841308594,-71.64600372314453 73.24400329589844,-67.38400268554688 C54.54100036621094,-103.9749984741211 16.479000091552734,-129.02699279785156 -27.43600082397461,-129.02699279785156 C-81.35299682617188,-129.02699279785156 -126.44400024414062,-91.26399993896484 -137.71800231933594,-40.744998931884766 C-140.10000610351562,-40.930999755859375 -142.50599670410156,-41.027000427246094 -144.93600463867188,-41.027000427246094 C-195.47000122070312,-41.027000427246094 -236.43600463867188,-0.061000000685453415 -236.43600463867188,50.472999572753906 C-236.43600463867188,101.00700378417969 -195.47000122070312,141.97300720214844 -144.93600463867188,141.97300720214844 C-137.8679962158203,141.97300720214844 -130.98800659179688,141.1699981689453 -124.37999725341797,139.6529998779297 C-110.80899810791016,181.61900329589844 -71.41999816894531,211.97300720214844 -24.93600082397461,211.97300720214844 C2.4179999828338623,211.97300720214844 27.312000274658203,201.45799255371094 45.93899917602539,184.25599670410156 C55.262001037597656,187.31300354003906 65.21900177001953,188.97300720214844 75.56400299072266,188.97300720214844 C112.44300079345703,188.97300720214844 144.41299438476562,167.95799255371094 160.15499877929688,137.25 C165.11500549316406,138.36500549316406 170.26699829101562,138.97300720214844 175.56399536132812,138.97300720214844 C214.2239990234375,138.97300720214844 245.56399536132812,107.63300323486328 245.56399536132812,68.9729995727539 C245.56399536132812,33.28099822998047 218.843994140625,3.8489999771118164 184.32000732421875,-0.46299999952316284z">
                    </path>
                </g>
            </g>
        </g>
        <g clip-path="url(#__lottie_element_1269)" transform="matrix(1,0,0,1,0,170)" opacity="1" style="display: none;">
            <g transform="matrix(0.25,0,0,0.25,574.6430053710938,262.3897399902344)" opacity="1"
                style="display: block;">
                <g opacity="1" transform="matrix(1,0,0,1,0,0)">
                    <path fill="rgb(254,254,255)" fill-opacity="1"
                        d=" M184.32000732421875,-0.46299999952316284 C181.281005859375,-41.59400177001953 146.9720001220703,-74.0270004272461 105.06400299072266,-74.0270004272461 C93.74700164794922,-74.0270004272461 82.98899841308594,-71.64600372314453 73.24400329589844,-67.38400268554688 C54.54100036621094,-103.9749984741211 16.479000091552734,-129.02699279785156 -27.43600082397461,-129.02699279785156 C-81.35299682617188,-129.02699279785156 -126.44400024414062,-91.26399993896484 -137.71800231933594,-40.744998931884766 C-140.10000610351562,-40.930999755859375 -142.50599670410156,-41.027000427246094 -144.93600463867188,-41.027000427246094 C-195.47000122070312,-41.027000427246094 -236.43600463867188,-0.061000000685453415 -236.43600463867188,50.472999572753906 C-236.43600463867188,101.00700378417969 -195.47000122070312,141.97300720214844 -144.93600463867188,141.97300720214844 C-137.8679962158203,141.97300720214844 -130.98800659179688,141.1699981689453 -124.37999725341797,139.6529998779297 C-110.80899810791016,181.61900329589844 -71.41999816894531,211.97300720214844 -24.93600082397461,211.97300720214844 C2.4179999828338623,211.97300720214844 27.312000274658203,201.45799255371094 45.93899917602539,184.25599670410156 C55.262001037597656,187.31300354003906 65.21900177001953,188.97300720214844 75.56400299072266,188.97300720214844 C112.44300079345703,188.97300720214844 144.41299438476562,167.95799255371094 160.15499877929688,137.25 C165.11500549316406,138.36500549316406 170.26699829101562,138.97300720214844 175.56399536132812,138.97300720214844 C214.2239990234375,138.97300720214844 245.56399536132812,107.63300323486328 245.56399536132812,68.9729995727539 C245.56399536132812,33.28099822998047 218.843994140625,3.8489999771118164 184.32000732421875,-0.46299999952316284z">
                    </path>
                    <path fill="rgb(254,254,255)" fill-opacity="1"
                        d=" M184.32000732421875,-0.46299999952316284 C181.281005859375,-41.59400177001953 146.9720001220703,-74.0270004272461 105.06400299072266,-74.0270004272461 C93.74700164794922,-74.0270004272461 82.98899841308594,-71.64600372314453 73.24400329589844,-67.38400268554688 C54.54100036621094,-103.9749984741211 16.479000091552734,-129.02699279785156 -27.43600082397461,-129.02699279785156 C-81.35299682617188,-129.02699279785156 -126.44400024414062,-91.26399993896484 -137.71800231933594,-40.744998931884766 C-140.10000610351562,-40.930999755859375 -142.50599670410156,-41.027000427246094 -144.93600463867188,-41.027000427246094 C-195.47000122070312,-41.027000427246094 -236.43600463867188,-0.061000000685453415 -236.43600463867188,50.472999572753906 C-236.43600463867188,101.00700378417969 -195.47000122070312,141.97300720214844 -144.93600463867188,141.97300720214844 C-137.8679962158203,141.97300720214844 -130.98800659179688,141.1699981689453 -124.37999725341797,139.6529998779297 C-110.80899810791016,181.61900329589844 -71.41999816894531,211.97300720214844 -24.93600082397461,211.97300720214844 C2.4179999828338623,211.97300720214844 27.312000274658203,201.45799255371094 45.93899917602539,184.25599670410156 C55.262001037597656,187.31300354003906 65.21900177001953,188.97300720214844 75.56400299072266,188.97300720214844 C112.44300079345703,188.97300720214844 144.41299438476562,167.95799255371094 160.15499877929688,137.25 C165.11500549316406,138.36500549316406 170.26699829101562,138.97300720214844 175.56399536132812,138.97300720214844 C214.2239990234375,138.97300720214844 245.56399536132812,107.63300323486328 245.56399536132812,68.9729995727539 C245.56399536132812,33.28099822998047 218.843994140625,3.8489999771118164 184.32000732421875,-0.46299999952316284z">
                    </path>
                    <path stroke-linecap="round" stroke-linejoin="round" fill-opacity="0" stroke="rgb(180,215,255)"
                        stroke-opacity="1" stroke-width="40"
                        d=" M184.32000732421875,-0.46299999952316284 C181.281005859375,-41.59400177001953 146.9720001220703,-74.0270004272461 105.06400299072266,-74.0270004272461 C93.74700164794922,-74.0270004272461 82.98899841308594,-71.64600372314453 73.24400329589844,-67.38400268554688 C54.54100036621094,-103.9749984741211 16.479000091552734,-129.02699279785156 -27.43600082397461,-129.02699279785156 C-81.35299682617188,-129.02699279785156 -126.44400024414062,-91.26399993896484 -137.71800231933594,-40.744998931884766 C-140.10000610351562,-40.930999755859375 -142.50599670410156,-41.027000427246094 -144.93600463867188,-41.027000427246094 C-195.47000122070312,-41.027000427246094 -236.43600463867188,-0.061000000685453415 -236.43600463867188,50.472999572753906 C-236.43600463867188,101.00700378417969 -195.47000122070312,141.97300720214844 -144.93600463867188,141.97300720214844 C-137.8679962158203,141.97300720214844 -130.98800659179688,141.1699981689453 -124.37999725341797,139.6529998779297 C-110.80899810791016,181.61900329589844 -71.41999816894531,211.97300720214844 -24.93600082397461,211.97300720214844 C2.4179999828338623,211.97300720214844 27.312000274658203,201.45799255371094 45.93899917602539,184.25599670410156 C55.262001037597656,187.31300354003906 65.21900177001953,188.97300720214844 75.56400299072266,188.97300720214844 C112.44300079345703,188.97300720214844 144.41299438476562,167.95799255371094 160.15499877929688,137.25 C165.11500549316406,138.36500549316406 170.26699829101562,138.97300720214844 175.56399536132812,138.97300720214844 C214.2239990234375,138.97300720214844 245.56399536132812,107.63300323486328 245.56399536132812,68.9729995727539 C245.56399536132812,33.28099822998047 218.843994140625,3.8489999771118164 184.32000732421875,-0.46299999952316284z">
                    </path>
                </g>
            </g>
        </g>
        <g clip-path="url(#__lottie_element_1261)" transform="matrix(1,0,0,1,0,0)" opacity="1" style="display: block;">
            <g transform="matrix(0.25,0,0,0.25,348.8627014160156,262.3897399902344)" opacity="1"
                style="display: block;">
                <g opacity="1" transform="matrix(1,0,0,1,0,0)">
                    <path fill="rgb(254,254,255)" fill-opacity="1"
                        d=" M225.11500549316406,1.2929999828338623 C220.656005859375,-40.082000732421875 183.10400390625,-70.70600128173828 140.6510009765625,-65.4219970703125 C127.13099670410156,-108.09700012207031 87.21199798583984,-139.02699279785156 40.06399917602539,-139.02699279785156 C0.6100000143051147,-139.02699279785156 -33.779998779296875,-117.36599731445312 -51.87799835205078,-85.29100036621094 C-119.49400329589844,-115.1449966430664 -197.04800415039062,-65.56400299072266 -196.42599487304688,9.838000297546387 C-229.86399841308594,15.112000465393066 -255.43600463867188,44.053001403808594 -255.43600463867188,78.9729995727539 C-255.43600463867188,120.79100036621094 -218.85800170898438,153.6790008544922 -176.6820068359375,148.4080047607422 C-160.42100524902344,166.28799438476562 -135.75100708007812,177.427001953125 -108.2040023803711,176.93299865722656 C-90.76699829101562,194.84100341796875 -66.40599822998047,205.97300720214844 -39.43600082397461,205.97300720214844 C-10.85099983215332,205.97300720214844 14.8100004196167,193.47500610351562 32.395999908447266,173.6510009765625 C59.1619987487793,180.58799743652344 88.87300109863281,176.83299255371094 113.98999786376953,160.9810028076172 C146.95199584960938,184.04800415039062 192.95599365234375,172.72000122070312 211.34800720214844,136.58799743652344 C251.79600524902344,140.8560028076172 286.5639953613281,109.15699768066406 286.5639953613281,68.9729995727539 C286.5639953613281,33.62900161743164 259.5950012207031,4.591000080108643 225.11500549316406,1.2929999828338623z">
                    </path>
                    <path fill="rgb(254,254,255)" fill-opacity="1"
                        d=" M225.11500549316406,1.2929999828338623 C220.656005859375,-40.082000732421875 183.10400390625,-70.70600128173828 140.6510009765625,-65.4219970703125 C127.13099670410156,-108.09700012207031 87.21199798583984,-139.02699279785156 40.06399917602539,-139.02699279785156 C0.6100000143051147,-139.02699279785156 -33.779998779296875,-117.36599731445312 -51.87799835205078,-85.29100036621094 C-119.49400329589844,-115.1449966430664 -197.04800415039062,-65.56400299072266 -196.42599487304688,9.838000297546387 C-229.86399841308594,15.112000465393066 -255.43600463867188,44.053001403808594 -255.43600463867188,78.9729995727539 C-255.43600463867188,120.79100036621094 -218.85800170898438,153.6790008544922 -176.6820068359375,148.4080047607422 C-160.42100524902344,166.28799438476562 -135.75100708007812,177.427001953125 -108.2040023803711,176.93299865722656 C-90.76699829101562,194.84100341796875 -66.40599822998047,205.97300720214844 -39.43600082397461,205.97300720214844 C-10.85099983215332,205.97300720214844 14.8100004196167,193.47500610351562 32.395999908447266,173.6510009765625 C59.1619987487793,180.58799743652344 88.87300109863281,176.83299255371094 113.98999786376953,160.9810028076172 C146.95199584960938,184.04800415039062 192.95599365234375,172.72000122070312 211.34800720214844,136.58799743652344 C251.79600524902344,140.8560028076172 286.5639953613281,109.15699768066406 286.5639953613281,68.9729995727539 C286.5639953613281,33.62900161743164 259.5950012207031,4.591000080108643 225.11500549316406,1.2929999828338623z">
                    </path>
                    <path stroke-linecap="round" stroke-linejoin="round" fill-opacity="0" stroke="rgb(180,215,255)"
                        stroke-opacity="1" stroke-width="40"
                        d=" M225.11500549316406,1.2929999828338623 C220.656005859375,-40.082000732421875 183.10400390625,-70.70600128173828 140.6510009765625,-65.4219970703125 C127.13099670410156,-108.09700012207031 87.21199798583984,-139.02699279785156 40.06399917602539,-139.02699279785156 C0.6100000143051147,-139.02699279785156 -33.779998779296875,-117.36599731445312 -51.87799835205078,-85.29100036621094 C-119.49400329589844,-115.1449966430664 -197.04800415039062,-65.56400299072266 -196.42599487304688,9.838000297546387 C-229.86399841308594,15.112000465393066 -255.43600463867188,44.053001403808594 -255.43600463867188,78.9729995727539 C-255.43600463867188,120.79100036621094 -218.85800170898438,153.6790008544922 -176.6820068359375,148.4080047607422 C-160.42100524902344,166.28799438476562 -135.75100708007812,177.427001953125 -108.2040023803711,176.93299865722656 C-90.76699829101562,194.84100341796875 -66.40599822998047,205.97300720214844 -39.43600082397461,205.97300720214844 C-10.85099983215332,205.97300720214844 14.8100004196167,193.47500610351562 32.395999908447266,173.6510009765625 C59.1619987487793,180.58799743652344 88.87300109863281,176.83299255371094 113.98999786376953,160.9810028076172 C146.95199584960938,184.04800415039062 192.95599365234375,172.72000122070312 211.34800720214844,136.58799743652344 C251.79600524902344,140.8560028076172 286.5639953613281,109.15699768066406 286.5639953613281,68.9729995727539 C286.5639953613281,33.62900161743164 259.5950012207031,4.591000080108643 225.11500549316406,1.2929999828338623z">
                    </path>
                </g>
            </g>
        </g>
        <g transform="matrix(1,0,0,1,256,276)" opacity="1" style="display: block;">
            <g opacity="1" transform="matrix(1,0,0,1,0,0)">
                <path fill="rgb(0,0,0)" fill-opacity="1" d="M0 0"></path>
                <path stroke-linecap="round" stroke-linejoin="round" fill-opacity="0" stroke="rgb(203,228,245)"
                    stroke-opacity="1" stroke-width="8" d="M0 0"></path>
            </g>
        </g>
        <g transform="matrix(1,0,0,1,256,336)" opacity="1" style="display: block;">
            <g opacity="1" transform="matrix(1,0,0,1,0,0)">
                <path fill="rgb(0,0,0)" fill-opacity="1" d="M0 0"></path>
                <path stroke-linecap="round" stroke-linejoin="round" fill-opacity="0" stroke="rgb(203,228,245)"
                    stroke-opacity="1" stroke-width="10" d="M0 0"></path>
            </g>
        </g>
        <g transform="matrix(1,0,0,1,256,466)" opacity="1" style="display: block;">
            <g opacity="1" transform="matrix(1,0,0,1,0,0)">
                <path fill="rgb(0,0,0)" fill-opacity="1"
                    d=" M-194,-218 C-194,-218 -143.7830047607422,-218 -77.91200256347656,-218"></path>
                <path stroke-linecap="round" stroke-linejoin="round" fill-opacity="0" stroke="rgb(203,228,245)"
                    stroke-opacity="1" stroke-width="10"
                    d=" M-194,-218 C-194,-218 -143.7830047607422,-218 -77.91200256347656,-218"></path>
            </g>
        </g>
        <g transform="matrix(0.6862687468528748,-0.611446738243103,0.6112046837806702,0.6859970688819885,9.867782592773438,330.7010498046875)"
            opacity="1" style="display: block;">
            <g opacity="1" transform="matrix(1,0,0,1,0,0)">
                <path fill="rgb(255,213,39)" fill-opacity="1"
                    d=" M61.912635803222656,115.84795379638672 C53.64363479614258,94.86195373535156 46.26260757446289,75.23176574707031 41.778770446777344,57.31909942626953 C37.07487487792969,38.16316223144531 47.86438751220703,40.45241165161133 57.28376388549805,48.252830505371094 C64.70928955078125,54.44752502441406 90.5289306640625,80.94383239746094 98.96546936035156,102.65628814697266">
                </path>
                <path stroke-linecap="round" stroke-linejoin="round" fill-opacity="0" stroke="rgb(250,144,22)"
                    stroke-opacity="1" stroke-width="12"
                    d=" M61.912635803222656,115.84795379638672 C53.64363479614258,94.86195373535156 46.26260757446289,75.23176574707031 41.778770446777344,57.31909942626953 C37.07487487792969,38.16316223144531 47.86438751220703,40.45241165161133 57.28376388549805,48.252830505371094 C64.70928955078125,54.44752502441406 90.5289306640625,80.94383239746094 98.96546936035156,102.65628814697266">
                </path>
            </g>
        </g>
        <g transform="matrix(0.9033914804458618,-0.13413387537002563,0.12982307374477386,0.9062386751174927,239.81016540527344,388.03289794921875)"
            opacity="1" style="display: block;">
            <g opacity="1" transform="matrix(1,0,0,1,0,0)">
                <path stroke-linecap="round" stroke-linejoin="round" fill-opacity="0" stroke="rgb(105,172,209)"
                    stroke-opacity="1" stroke-width="26"
                    d=" M172.0780029296875,-1.0390000343322754 C57.95800018310547,63.46200180053711 -114.625,41.499000549316406 -219.843994140625,15.979999542236328 C-116.9010009765625,42.624000549316406 55.875,68.70600128173828 174.81700134277344,3.9719998836517334 C181.60400390625,0.27799999713897705 178.57000732421875,-4.708000183105469 172.0780029296875,-1.0390000343322754z">
                </path>
                <path fill="rgb(105,172,209)" fill-opacity="1"
                    d=" M172.0780029296875,-1.0390000343322754 C57.95800018310547,63.46200180053711 -114.625,41.499000549316406 -219.843994140625,15.979999542236328 C-116.9010009765625,42.624000549316406 55.875,68.70600128173828 174.81700134277344,3.9719998836517334 C181.60400390625,0.27799999713897705 178.57000732421875,-4.708000183105469 172.0780029296875,-1.0390000343322754z">
                </path>
            </g>
        </g>
        <g transform="matrix(0.9033914804458618,-0.13413387537002563,0.12982307374477386,0.9062386751174927,209.41287231445312,431.32989501953125)"
            opacity="1" style="display: block;">
            <g opacity="1" transform="matrix(1,0,0,1,0,0)">
                <path stroke-linecap="round" stroke-linejoin="round" fill-opacity="0" stroke="rgb(105,172,209)"
                    stroke-opacity="1" stroke-width="15.756847914199692"
                    d=" M-54.07686996459961,-59.87104415893555 C-33.89986801147461,-60.01703643798828 -14.936868667602539,-60.65800857543945 2.565131187438965,-61.46097183227539 C20.866130828857422,-45.372684478759766 30.2549991607666,-23.539852142333984 30.2549991607666,-23.539852142333984 C30.2549991607666,-23.539852142333984 37.87613296508789,-46.37063980102539 32.05413055419922,-62.989906311035156 C41.419132232666016,-63.51588439941406 50.21113204956055,-64.0308609008789 58.37613296508789,-64.46484375 C58.37613296508789,-64.46484375 85.78900146484375,-27.702669143676758 85.78900146484375,-27.702669143676758 C85.78900146484375,-27.702669143676758 93.21613311767578,-47.83357620239258 85.77812957763672,-65.56779479980469 C117.32213592529297,-63.402889251708984 128.5328826904297,-66.95924377441406 189.49588012695312,-28.138959884643555 C152.4368896484375,29.652488708496094 150.43113708496094,72.11412811279297 48.33913040161133,67.30034637451172 C56.829132080078125,45.045326232910156 45.56700134277344,24.350034713745117 45.56700134277344,24.350034713745117 C45.56700134277344,24.350034713745117 48.2861328125,45.893287658691406 26.812131881713867,66.12039184570312 C13.659131050109863,65.15143585205078 1.3031312227249146,63.768497467041016 -10.310869216918945,62.025577545166016 C-3.690868854522705,52.04501724243164 -13.625,40.441322326660156 -11.218999862670898,32.35768127441406 C-19.63599967956543,38.30441665649414 -18.976869583129883,49.54712677001953 -31.98086929321289,58.196746826171875 C-112.18486785888672,41.75047302246094 -168.7991485595703,2.603518486022949 -190.18014526367188,-28.170124053955078 C-190.18014526367188,-28.170124053955078 -139.73587036132812,-59.24906921386719 -54.07686996459961,-59.87104415893555z">
                </path>
                <path fill="rgb(203,228,245)" fill-opacity="1"
                    d=" M-54.07686996459961,-59.87104415893555 C-33.89986801147461,-60.01703643798828 -14.936868667602539,-60.65800857543945 2.565131187438965,-61.46097183227539 C20.866130828857422,-45.372684478759766 30.2549991607666,-23.539852142333984 30.2549991607666,-23.539852142333984 C30.2549991607666,-23.539852142333984 37.87613296508789,-46.37063980102539 32.05413055419922,-62.989906311035156 C41.419132232666016,-63.51588439941406 50.21113204956055,-64.0308609008789 58.37613296508789,-64.46484375 C58.37613296508789,-64.46484375 85.78900146484375,-27.702669143676758 85.78900146484375,-27.702669143676758 C85.78900146484375,-27.702669143676758 93.21613311767578,-47.83357620239258 85.77812957763672,-65.56779479980469 C117.32213592529297,-63.402889251708984 128.5328826904297,-66.95924377441406 189.49588012695312,-28.138959884643555 C152.4368896484375,29.652488708496094 150.43113708496094,72.11412811279297 48.33913040161133,67.30034637451172 C56.829132080078125,45.045326232910156 45.56700134277344,24.350034713745117 45.56700134277344,24.350034713745117 C45.56700134277344,24.350034713745117 48.2861328125,45.893287658691406 26.812131881713867,66.12039184570312 C13.659131050109863,65.15143585205078 1.3031312227249146,63.768497467041016 -10.310869216918945,62.025577545166016 C-3.690868854522705,52.04501724243164 -13.625,40.441322326660156 -11.218999862670898,32.35768127441406 C-19.63599967956543,38.30441665649414 -18.976869583129883,49.54712677001953 -31.98086929321289,58.196746826171875 C-112.18486785888672,41.75047302246094 -168.7991485595703,2.603518486022949 -190.18014526367188,-28.170124053955078 C-190.18014526367188,-28.170124053955078 -139.73587036132812,-59.24906921386719 -54.07686996459961,-59.87104415893555z">
                </path>
                <path stroke-linecap="round" stroke-linejoin="round" fill-opacity="0" stroke="rgb(105,172,209)"
                    stroke-opacity="1" stroke-width="6.060281258306545"
                    d=" M-54.07686996459961,-59.87104415893555 C-33.89986801147461,-60.01703643798828 -14.936868667602539,-60.65800857543945 2.565131187438965,-61.46097183227539 C20.866130828857422,-45.372684478759766 30.2549991607666,-23.539852142333984 30.2549991607666,-23.539852142333984 C30.2549991607666,-23.539852142333984 37.87613296508789,-46.37063980102539 32.05413055419922,-62.989906311035156 C41.419132232666016,-63.51588439941406 50.21113204956055,-64.0308609008789 58.37613296508789,-64.46484375 C58.37613296508789,-64.46484375 85.78900146484375,-27.702669143676758 85.78900146484375,-27.702669143676758 C85.78900146484375,-27.702669143676758 93.21613311767578,-47.83357620239258 85.77812957763672,-65.56779479980469 C117.32213592529297,-63.402889251708984 128.5328826904297,-66.95924377441406 189.49588012695312,-28.138959884643555 C152.4368896484375,29.652488708496094 150.43113708496094,72.11412811279297 48.33913040161133,67.30034637451172 C56.829132080078125,45.045326232910156 45.56700134277344,24.350034713745117 45.56700134277344,24.350034713745117 C45.56700134277344,24.350034713745117 48.2861328125,45.893287658691406 26.812131881713867,66.12039184570312 C13.659131050109863,65.15143585205078 1.3031312227249146,63.768497467041016 -10.310869216918945,62.025577545166016 C-3.690868854522705,52.04501724243164 -13.625,40.441322326660156 -11.218999862670898,32.35768127441406 C-19.63599967956543,38.30441665649414 -18.976869583129883,49.54712677001953 -31.98086929321289,58.196746826171875 C-112.18486785888672,41.75047302246094 -168.7991485595703,2.603518486022949 -190.18014526367188,-28.170124053955078 C-190.18014526367188,-28.170124053955078 -139.73587036132812,-59.24906921386719 -54.07686996459961,-59.87104415893555z">
                </path>
            </g>
        </g>
        <g transform="matrix(0.9047413468360901,-0.12433560937643051,0.12005583941936493,0.9076348543167114,209.19960021972656,431.4383850097656)"
            opacity="0.33" style="display: block;">
            <g opacity="1" transform="matrix(1,0,0,1,0,0)">
                <path fill="rgb(105,172,209)" fill-opacity="1"
                    d=" M-63.04586410522461,-61.58919143676758 C-42.868865966796875,-61.74067306518555 -23.906675338745117,-62.40468978881836 -6.404675006866455,-63.23705291748047 C11.89632511138916,-46.563289642333984 30.2549991607666,-24.48509979248047 30.2549991607666,-24.48509979248047 C30.2549991607666,-24.48509979248047 44.236106872558594,-9.91750431060791 47.487125396728516,2.2993643283843994 C39.21855926513672,2.8177614212036133 25.841093063354492,1.474205493927002 15.198053359985352,2.388521671295166 C8.261094093322754,7.743175506591797 -2.222416639328003,24.509296417236328 -11.218999862670898,33.444610595703125 C-19.63599967956543,39.60753631591797 -27.946674346923828,51.807682037353516 -40.95067596435547,60.772098541259766 C-121.15467834472656,43.7276611328125 -168.68031311035156,3.824981212615967 -190.0613250732422,-28.067140579223633 C-190.0613250732422,-28.067140579223633 -148.70486450195312,-60.944664001464844 -63.04586410522461,-61.58919143676758z">
                </path>
            </g>
        </g>
        <g transform="matrix(0.8997957110404968,-0.15714892745018005,0.15276707708835602,0.9025323987007141,209.7705841064453,428.12725830078125)"
            opacity="0.33" style="display: block;">
            <g opacity="1" transform="matrix(1,0,0,1,0,0)">
                <path fill="rgb(105,172,209)" fill-opacity="1"
                    d=" M-117.98399353027344,37.67503356933594 C-155.2974853515625,18.867158889770508 -176.2877197265625,-7.706995964050293 -190.0613250732422,-28.067140579223633 C-190.0613250732422,-28.067140579223633 -162.1124725341797,-52.40111541748047 -107.13822174072266,-61.293296813964844 C-100.90672302246094,-62.41132354736328 -69.43074798583984,-16.536788940429688 -60.09391784667969,-2.4700777530670166 C-78.42022705078125,15.002686500549316 -106.98713684082031,43.34244155883789 -117.98399353027344,37.67503356933594z">
                </path>
            </g>
        </g>
        <g transform="matrix(0.9033914804458618,-0.13413387537002563,0.12982307374477386,0.9062386751174927,239.79141235351562,388.4493713378906)"
            opacity="0.5" style="display: block;">
            <g opacity="1" transform="matrix(1,0,0,1,0,0)">
                <path stroke-linecap="round" stroke-linejoin="round" fill-opacity="0" stroke="rgb(105,172,209)"
                    stroke-opacity="1" stroke-width="6"
                    d=" M148.70199584960938,19.732999801635742 C36.93000030517578,72.65699768066406 -118.63999938964844,40.525001525878906 -219.843994140625,15.979999542236328 C-122.95600128173828,41.055999755859375 28.141000747680664,76.09600067138672 143.36000061035156,28.05699920654297 C145.28399658203125,25.638999938964844 149.56700134277344,20.21299934387207 148.70199584960938,19.732999801635742z">
                </path>
                <path fill="rgb(105,172,209)" fill-opacity="1"
                    d=" M148.70199584960938,19.732999801635742 C36.93000030517578,72.65699768066406 -118.63999938964844,40.525001525878906 -219.843994140625,15.979999542236328 C-122.95600128173828,41.055999755859375 28.141000747680664,76.09600067138672 143.36000061035156,28.05699920654297 C145.28399658203125,25.638999938964844 149.56700134277344,20.21299934387207 148.70199584960938,19.732999801635742z">
                </path>
            </g>
        </g>
        <g transform="matrix(0.9033914804458618,-0.13413387537002563,0.12982307374477386,0.9062386751174927,239.81016540527344,388.03289794921875)"
            opacity="1" style="display: block;">
            <g opacity="1" transform="matrix(1,0,0,1,0,0)">
                <path stroke-linecap="round" stroke-linejoin="round" fill-opacity="0" stroke="rgb(255,255,255)"
                    stroke-opacity="1" stroke-width="6"
                    d=" M173.99099731445312,-2.131999969482422 C59.89400100708008,63.70800018310547 -114.03500366210938,41.641998291015625 -219.843994140625,15.979999542236328 C-116.26799774169922,42.7869987487793 58,69.0260009765625 177.0019989013672,2.7690000534057617 C183.45399475097656,-0.8230000138282776 179.94700622558594,-5.568999767303467 173.99099731445312,-2.131999969482422z">
                </path>
                <path fill="rgb(255,255,255)" fill-opacity="1"
                    d=" M173.99099731445312,-2.131999969482422 C59.89400100708008,63.70800018310547 -114.03500366210938,41.641998291015625 -219.843994140625,15.979999542236328 C-116.26799774169922,42.7869987487793 58,69.0260009765625 177.0019989013672,2.7690000534057617 C183.45399475097656,-0.8230000138282776 179.94700622558594,-5.568999767303467 173.99099731445312,-2.131999969482422z">
                </path>
            </g>
        </g>
        <g transform="matrix(0.7515447735786438,0.09931420534849167,-0.09931420534849167,0.7515447735786438,213.02796936035156,373.4491271972656)"
            opacity="1" style="display: block;">
            <g opacity="1" transform="matrix(1,0,0,1,0,0)">
                <path fill="rgb(255,213,39)" fill-opacity="1"
                    d=" M-1.2788342237472534,127.94808197021484 C-63.30949401855469,136.77108764648438 -144.71054077148438,114.00311279296875 -150.3238067626953,74.62911987304688 C-164.70907592773438,-25.08790397644043 -74.09678649902344,-99.10932922363281 -5.1119065284729,-101.44400787353516 C62.21989059448242,-102.78978729248047 122.08419799804688,-72.4791030883789 142.4201202392578,-5.662896156311035 C145.91134643554688,5.3315043449401855 150.88279724121094,14.325915336608887 152.0514678955078,27.14853858947754 C154.9743194580078,61.159786224365234 120.65399169921875,109.97193145751953 -1.2788342237472534,127.94808197021484z">
                </path>
                <path stroke-linecap="butt" stroke-linejoin="miter" fill-opacity="0" stroke-miterlimit="10"
                    stroke="rgb(250,144,22)" stroke-opacity="1" stroke-width="15"
                    d=" M-1.2788342237472534,127.94808197021484 C-63.30949401855469,136.77108764648438 -144.71054077148438,114.00311279296875 -150.3238067626953,74.62911987304688 C-164.70907592773438,-25.08790397644043 -74.09678649902344,-99.10932922363281 -5.1119065284729,-101.44400787353516 C62.21989059448242,-102.78978729248047 122.08419799804688,-72.4791030883789 142.4201202392578,-5.662896156311035 C145.91134643554688,5.3315043449401855 150.88279724121094,14.325915336608887 152.0514678955078,27.14853858947754 C154.9743194580078,61.159786224365234 120.65399169921875,109.97193145751953 -1.2788342237472534,127.94808197021484z">
                </path>
            </g>
        </g>
        <g transform="matrix(0.7714947462081909,0.2718955874443054,-0.2502986490726471,0.7102141380310059,339.37042236328125,440.5971984863281)"
            opacity="1" style="display: block;">
            <g opacity="1" transform="matrix(1,0,0,1,35.6879997253418,48.13999938964844)">
                <path stroke-linecap="round" stroke-linejoin="round" fill-opacity="0" stroke="rgb(252,238,33)"
                    stroke-opacity="1" stroke-width="10.667"
                    d=" M-115.99600219726562,-19.483999252319336 C-106.97899627685547,-26.422000885009766 -87.11100006103516,-45.41299819946289 -86.63800048828125,-61.97200012207031">
                </path>
            </g>
        </g>
        <g transform="matrix(0.7714947462081909,0.2718955874443054,-0.2502986490726471,0.7102141380310059,355.6500549316406,452.1156921386719)"
            opacity="1" style="display: block;">
            <g opacity="1" transform="matrix(1,0,0,1,35.6879997253418,48.13999938964844)">
                <path stroke-linecap="round" stroke-linejoin="round" fill-opacity="0" stroke="rgb(255,255,255)"
                    stroke-opacity="1" stroke-width="10.667"
                    d=" M-327.24700927734375,12.237000465393066 C-330.4219970703125,-0.6610000133514404 -332.57000732421875,-21.0310001373291 -331.2659912109375,-41.86000061035156">
                </path>
            </g>
        </g>
        <g transform="matrix(0.7464372515678406,-0.1323416531085968,0.1323416531085968,0.7464372515678406,214.64695739746094,247.99879455566406)"
            opacity="1" style="display: block;">
            <g opacity="1" transform="matrix(1,0,0,1,0,0)">
                <path fill="rgb(255,213,39)" fill-opacity="1"
                    d=" M-131.16159057617188,106.4555435180664 C-156.73692321777344,79.63465881347656 -165.92416381835938,44.08698272705078 -160.40679931640625,7.934825420379639 C-148.68576049804688,-68.86495208740234 -67.50505828857422,-133.83702087402344 18.404874801635742,-120.72562408447266 C104.31381225585938,-107.6142349243164 162.41856384277344,-21.38459587097168 150.69729614257812,55.41518020629883 C145.16488647460938,91.66458129882812 124.68477630615234,123.13700866699219 93.34140014648438,140.09022521972656">
                </path>
                <path stroke-linecap="round" stroke-linejoin="round" fill-opacity="0" stroke="rgb(250,144,22)"
                    stroke-opacity="1" stroke-width="15"
                    d=" M-131.16159057617188,106.4555435180664 C-156.73692321777344,79.63465881347656 -165.92416381835938,44.08698272705078 -160.40679931640625,7.934825420379639 C-148.68576049804688,-68.86495208740234 -67.50505828857422,-133.83702087402344 18.404874801635742,-120.72562408447266 C104.31381225585938,-107.6142349243164 162.41856384277344,-21.38459587097168 150.69729614257812,55.41518020629883 C145.16488647460938,91.66458129882812 124.68477630615234,123.13700866699219 93.34140014648438,140.09022521972656">
                </path>
            </g>
        </g>
        <g transform="matrix(-0.755364179611206,0.19373288750648499,-0.1962038278579712,-0.7649984359741211,227.028564453125,379.650634765625)"
            opacity="1" style="display: block;">
            <g opacity="1" transform="matrix(1,0,0,1,35.6879997253418,48.13999938964844)">
                <path stroke-linecap="round" stroke-linejoin="round" fill-opacity="0" stroke-dasharray=" 65 16"
                    stroke-dashoffset="0" stroke="rgb(252,238,33)" stroke-opacity="1" stroke-width="10.667"
                    d=" M-154.40199279785156,170.43699645996094 C-173.3249969482422,151.1179962158203 -183.2449951171875,124.37000274658203 -186.33599853515625,101.33100128173828">
                </path>
            </g>
        </g>
        <g transform="matrix(-0.786044180393219,0.017375871539115906,0.02010146528482437,0.9093431234359741,235.20782470703125,381.0088806152344)"
            opacity="1" style="display: block;">
            <path stroke-linecap="butt" stroke-linejoin="miter" fill-opacity="0" stroke-miterlimit="4"
                stroke="rgb(0,0,0)" stroke-opacity="1" stroke-width="0"
                d=" M145.42599487304688,-138 C154.11500549316406,-138 161.53599548339844,-131.5800018310547 164.48800659179688,-122.53099822998047 C165.36900329589844,-119.83200073242188 165.8520050048828,-116.89800262451172 165.8520050048828,-113.83100128173828 C165.8520050048828,-110.85800170898438 165.3979949951172,-108.01000213623047 164.5679931640625,-105.37899780273438 C161.6719970703125,-96.1989974975586 154.19400024414062,-89.66200256347656 145.42599487304688,-89.66200256347656 C137.08999633789062,-89.66200256347656 129.9199981689453,-95.56999969482422 126.74500274658203,-104.04100036621094 C125.62300109863281,-107.03399658203125 125,-110.34600067138672 125,-113.83100128173828 C125,-116.7040023803711 125.42400360107422,-119.45899963378906 126.20099639892578,-122.01499938964844 C129.03500366210938,-131.3350067138672 136.572998046875,-138 145.42599487304688,-138z">
            </path>
            <g opacity="1" transform="matrix(1,0,0,1,0,0)">
                <path fill="rgb(0,0,0)" fill-opacity="1"
                    d=" M145.42599487304688,-138 C154.11500549316406,-138 161.53599548339844,-131.5800018310547 164.48800659179688,-122.53099822998047 C165.36900329589844,-119.83200073242188 165.8520050048828,-116.89800262451172 165.8520050048828,-113.83100128173828 C165.8520050048828,-110.85800170898438 165.3979949951172,-108.01000213623047 164.5679931640625,-105.37899780273438 C161.6719970703125,-96.1989974975586 154.19400024414062,-89.66200256347656 145.42599487304688,-89.66200256347656 C137.08999633789062,-89.66200256347656 129.9199981689453,-95.56999969482422 126.74500274658203,-104.04100036621094 C125.62300109863281,-107.03399658203125 125,-110.34600067138672 125,-113.83100128173828 C125,-116.7040023803711 125.42400360107422,-119.45899963378906 126.20099639892578,-122.01499938964844 C129.03500366210938,-131.3350067138672 136.572998046875,-138 145.42599487304688,-138z">
                </path>
            </g>
        </g>
        <g transform="matrix(-0.6288353800773621,0.013900695368647575,0.01608116738498211,0.7274744510650635,114.37117767333984,270.3150634765625)"
            opacity="1" style="display: block;">
            <g opacity="1" transform="matrix(1,0,0,1,0,0)">
                <path fill="rgb(255,255,255)" fill-opacity="1"
                    d=" M-6.406000137329102,3.2860000133514404 C-4.247000217437744,7.494999885559082 0.3709999918937683,9.435999870300293 3.9089999198913574,7.620999813079834 C7.447000026702881,5.806000232696533 8.5649995803833,0.9229999780654907 6.406000137329102,-3.2860000133514404 C4.247000217437744,-7.494999885559082 -0.3709999918937683,-9.435999870300293 -3.9089999198913574,-7.620999813079834 C-7.447000026702881,-5.806000232696533 -8.5649995803833,-0.9229999780654907 -6.406000137329102,3.2860000133514404z">
                </path>
            </g>
        </g>
        <g transform="matrix(-0.9094668626785278,0.020104188472032547,0.02010146528482437,0.9093431234359741,368.6755065917969,377.7374572753906)"
            opacity="1" style="display: block;">
            <path stroke-linecap="butt" stroke-linejoin="miter" fill-opacity="0" stroke-miterlimit="4"
                stroke="rgb(0,0,0)" stroke-opacity="1" stroke-width="0"
                d=" M145.42599487304688,-138 C154.11500549316406,-138 161.53599548339844,-131.5800018310547 164.48800659179688,-122.53099822998047 C165.36900329589844,-119.83200073242188 165.8520050048828,-116.89800262451172 165.8520050048828,-113.83100128173828 C165.8520050048828,-110.85800170898438 165.3979949951172,-108.01000213623047 164.5679931640625,-105.37899780273438 C161.6719970703125,-96.1989974975586 154.19400024414062,-89.66200256347656 145.42599487304688,-89.66200256347656 C137.08999633789062,-89.66200256347656 129.9199981689453,-95.56999969482422 126.74500274658203,-104.04100036621094 C125.62300109863281,-107.03399658203125 125,-110.34600067138672 125,-113.83100128173828 C125,-116.7040023803711 125.42400360107422,-119.45899963378906 126.20099639892578,-122.01499938964844 C129.03500366210938,-131.3350067138672 136.572998046875,-138 145.42599487304688,-138z">
            </path>
            <g opacity="1" transform="matrix(1,0,0,1,0,0)">
                <path fill="rgb(0,0,0)" fill-opacity="1"
                    d=" M145.42599487304688,-138 C154.11500549316406,-138 161.53599548339844,-131.5800018310547 164.48800659179688,-122.53099822998047 C165.36900329589844,-119.83200073242188 165.8520050048828,-116.89800262451172 165.8520050048828,-113.83100128173828 C165.8520050048828,-110.85800170898438 165.3979949951172,-108.01000213623047 164.5679931640625,-105.37899780273438 C161.6719970703125,-96.1989974975586 154.19400024414062,-89.66200256347656 145.42599487304688,-89.66200256347656 C137.08999633789062,-89.66200256347656 129.9199981689453,-95.56999969482422 126.74500274658203,-104.04100036621094 C125.62300109863281,-107.03399658203125 125,-110.34600067138672 125,-113.83100128173828 C125,-116.7040023803711 125.42400360107422,-119.45899963378906 126.20099639892578,-122.01499938964844 C129.03500366210938,-131.3350067138672 136.572998046875,-138 145.42599487304688,-138z">
                </path>
            </g>
        </g>
        <g transform="matrix(-0.7275734543800354,0.016083352267742157,0.01608116738498211,0.7274744510650635,229.2587127685547,267.4543762207031)"
            opacity="1" style="display: block;">
            <g opacity="1" transform="matrix(1,0,0,1,0,0)">
                <path fill="rgb(255,255,255)" fill-opacity="1"
                    d=" M-6.406000137329102,3.2860000133514404 C-4.247000217437744,7.494999885559082 0.3709999918937683,9.435999870300293 3.9089999198913574,7.620999813079834 C7.447000026702881,5.806000232696533 8.5649995803833,0.9229999780654907 6.406000137329102,-3.2860000133514404 C4.247000217437744,-7.494999885559082 -0.3709999918937683,-9.435999870300293 -3.9089999198913574,-7.620999813079834 C-7.447000026702881,-5.806000232696533 -8.5649995803833,-0.9229999780654907 -6.406000137329102,3.2860000133514404z">
                </path>
            </g>
        </g>
        <g transform="matrix(0.24799221754074097,0.739328920841217,-0.7487587332725525,0.25115519762039185,226.01988220214844,384.27301025390625)"
            opacity="1" style="display: block;">
            <g opacity="1" transform="matrix(1,0,0,1,35.6879997253418,48.13999938964844)">
                <path stroke-linecap="round" stroke-linejoin="round" fill-opacity="0" stroke="rgb(255,255,255)"
                    stroke-opacity="1" stroke-width="10.667"
                    d=" M-261.27899169921875,19.062000274658203 C-290.8299865722656,-7.006999969482422 -303.0419921875,-43.56999969482422 -306.6759948730469,-67.36599731445312">
                </path>
            </g>
        </g>
        <g transform="matrix(0.7578932642936707,-0.016753578558564186,0.016753578558564186,0.7578932642936707,173.93325805664062,314.2355041503906)"
            opacity="1" style="display: block;">
            <g opacity="1" transform="matrix(1,0,0,1,0,0)">
                <path fill="rgb(255,93,31)" fill-opacity="1"
                    d=" M63.938934326171875,34.66421127319336 C80.6238021850586,28.541534423828125 80.38792419433594,19.974586486816406 79.07129669189453,13.931209564208984 C77.81292724609375,8.074258804321289 72.21529388427734,3.6842355728149414 65.81737518310547,2.1800127029418945 C20.158523559570312,-9.495853424072266 25.166582107543945,-41.35500717163086 4.557196617126465,-41.35500717163086 C-16.05219078063965,-41.35500717163086 -22.690061569213867,-15.832782745361328 -60.75074005126953,-10.052223205566406 C-68.94459533691406,-8.634461402893066 -73.3366928100586,-1.228063702583313 -67.2391586303711,4.719149112701416 C-75.55976104736328,7.424234867095947 -75.26895141601562,17.14802360534668 -66.99622344970703,22.254186630249023 C-35.66004180908203,41.84324645996094 37.6602897644043,44.452571868896484 63.938934326171875,34.66421127319336z">
                </path>
                <path stroke-linecap="round" stroke-linejoin="round" fill-opacity="0" stroke="rgb(207,53,2)"
                    stroke-opacity="1" stroke-width="12"
                    d=" M63.938934326171875,34.66421127319336 C80.6238021850586,28.541534423828125 80.38792419433594,19.974586486816406 79.07129669189453,13.931209564208984 C77.81292724609375,8.074258804321289 72.21529388427734,3.6842355728149414 65.81737518310547,2.1800127029418945 C20.158523559570312,-9.495853424072266 25.166582107543945,-41.35500717163086 4.557196617126465,-41.35500717163086 C-16.05219078063965,-41.35500717163086 -22.690061569213867,-15.832782745361328 -60.75074005126953,-10.052223205566406 C-68.94459533691406,-8.634461402893066 -73.3366928100586,-1.228063702583313 -67.2391586303711,4.719149112701416 C-75.55976104736328,7.424234867095947 -75.26895141601562,17.14802360534668 -66.99622344970703,22.254186630249023 C-35.66004180908203,41.84324645996094 37.6602897644043,44.452571868896484 63.938934326171875,34.66421127319336z">
                </path>
            </g>
        </g>
        <g transform="matrix(0.809709906578064,0.15193764865398407,-0.15193764865398407,0.809709906578064,169.62254333496094,294.3839111328125)"
            opacity="1" style="display: block;">
            <g opacity="1" transform="matrix(1,0,0,1,24.70599937438965,22.10700035095215)">
                <path stroke-linecap="round" stroke-linejoin="round" fill-opacity="0" stroke="rgb(255,180,132)"
                    stroke-opacity="1" stroke-width="8"
                    d=" M-54.73699951171875,4.822000026702881 C-44.59600067138672,0.9449999928474426 -32.88600158691406,-9.11299991607666 -25.051000595092773,-21.802000045776367">
                </path>
            </g>
        </g>
        <g transform="matrix(0.7578932642936707,-0.016753578558564186,0.016753578558564186,0.7578932642936707,174.17822265625,325.316650390625)"
            opacity="1" style="display: block;">
            <g opacity="1" transform="matrix(1,0,0,1,0,0)">
                <path stroke-linecap="round" stroke-linejoin="round" fill-opacity="0" stroke="rgb(152,42,5)"
                    stroke-opacity="1" stroke-width="12"
                    d=" M-63.62339401245117,-7.515788555145264 C-30.660274505615234,1.9603822231292725 8.599617958068848,5.69705057144165 55.25899887084961,5.179999828338623">
                </path>
            </g>
        </g>
        <g transform="matrix(-0.4341058135032654,-0.810175359249115,-0.8098545074462891,0.43393388390541077,407.7715148925781,371.7370910644531)"
            opacity="1" style="display: block;">
            <g opacity="1" transform="matrix(1,0,0,1,0,0)">
                <path fill="rgb(255,213,39)" fill-opacity="1"
                    d=" M58.45854949951172,111.03353118896484 C50.18954849243164,90.04753112792969 42.973426818847656,71.57384490966797 38.62664794921875,53.33434295654297 C34.19065856933594,34.23085021972656 45.67277145385742,36.01511001586914 55.612003326416016,44.089111328125 C63.816097259521484,50.753108978271484 87.67228698730469,75.29975128173828 95.75981903076172,96.23553466796875">
                </path>
                <path stroke-linecap="round" stroke-linejoin="round" fill-opacity="0" stroke="rgb(250,144,22)"
                    stroke-opacity="1" stroke-width="12"
                    d=" M58.45854949951172,111.03353118896484 C50.18954849243164,90.04753112792969 42.973426818847656,71.57384490966797 38.62664794921875,53.33434295654297 C34.19065856933594,34.23085021972656 45.67277145385742,36.01511001586914 55.612003326416016,44.089111328125 C63.816097259521484,50.753108978271484 87.67228698730469,75.29975128173828 95.75981903076172,96.23553466796875">
                </path>
            </g>
        </g>
        <g transform="matrix(-0.4343394339084625,-0.8102378249168396,-0.8096254467964172,0.434011310338974,408.059814453125,381.68280029296875)"
            opacity="1" style="display: block;">
            <g opacity="1" transform="matrix(1,0,0,1,0,0)">
                <path stroke-linecap="round" stroke-linejoin="round" fill-opacity="0" stroke="rgb(255,255,255)"
                    stroke-opacity="1" stroke-width="10"
                    d=" M63.50321960449219,51.39311981201172 C71.09506225585938,59.006771087646484 81.20966339111328,70.51890563964844 88.60836791992188,82.34717559814453">
                </path>
            </g>
        </g>
        <g clip-path="url(#__lottie_element_1164)" style="display: block;" transform="matrix(1,0,0,1,0,-240)"
            opacity="1">
            <g transform="matrix(0.5,0,0,0.5,377.56158447265625,343.646484375)" opacity="1" style="display: block;">
                <g opacity="1" transform="matrix(1,0,0,1,0,0)">
                    <path fill="rgb(255,255,255)" fill-opacity="1"
                        d=" M-45.10900115966797,-122.14600372314453 C-107.77400207519531,-122.14600372314453 -167.08718872070312,-66.373779296875 -172.9532012939453,-5.591780662536621 C-176.86119079589844,-6.594780921936035 -180.91319274902344,-7.1347808837890625 -185.07119750976562,-7.1347808837890625 C-216.86619567871094,-7.1347808837890625 -248.20860290527344,20.450437545776367 -248.20860290527344,58.519439697265625 C-248.20860290527344,96.58843994140625 -215.12799072265625,126.18901824951172 -182.30917358398438,120.0011978149414 C-175.38917541503906,147.73719787597656 -130.47750854492188,177.0678253173828 -78.71951293945312,152.6808319091797 C-53.719512939453125,193.15682983398438 9.999485969543457,211.354736328125 60.67648696899414,175.6587371826172 C84.39783477783203,181.42172241210938 100.70513153076172,167.43093872070312 107.3492431640625,158.86912536621094 C127.5512466430664,165.3981170654297 153.7801971435547,150.23623657226562 157.12319946289062,141.9032440185547 C199.64230346679688,156.0628204345703 216.53041076660156,120.18383026123047 216.53041076660156,120.18383026123047 C237.84542846679688,120.94381713867188 249.8719940185547,103.53800201416016 249.8719940185547,80.58499908447266 C249.8719940185547,57.63199996948242 234.4807586669922,48.140193939208984 211.5277557373047,48.140193939208984 C205.68475341796875,48.140193939208984 203.10275268554688,46.37519454956055 198.0587615966797,48.55119705200195 C198.19276428222656,46.592193603515625 198.47032165527344,44.61228561401367 198.28565979003906,42.62919616699219 C192.07374572753906,-22.155927658081055 154.27886962890625,-45.9482421875 106.9728775024414,-45.9482421875 C93.92887878417969,-45.9482421875 81.57197570800781,-43.01924133300781 70.50597381591797,-37.80424499511719 C53.65097427368164,-85.08424377441406 7.959000110626221,-122.14600372314453 -45.10900115966797,-122.14600372314453z">
                    </path>
                    <path fill="rgb(255,255,255)" fill-opacity="1"
                        d=" M-45.10900115966797,-122.14600372314453 C-107.77400207519531,-122.14600372314453 -167.08718872070312,-66.373779296875 -172.9532012939453,-5.591780662536621 C-176.86119079589844,-6.594780921936035 -180.91319274902344,-7.1347808837890625 -185.07119750976562,-7.1347808837890625 C-216.86619567871094,-7.1347808837890625 -248.20860290527344,20.450437545776367 -248.20860290527344,58.519439697265625 C-248.20860290527344,96.58843994140625 -215.12799072265625,126.18901824951172 -182.30917358398438,120.0011978149414 C-175.38917541503906,147.73719787597656 -130.47750854492188,177.0678253173828 -78.71951293945312,152.6808319091797 C-53.719512939453125,193.15682983398438 9.999485969543457,211.354736328125 60.67648696899414,175.6587371826172 C84.39783477783203,181.42172241210938 100.70513153076172,167.43093872070312 107.3492431640625,158.86912536621094 C127.5512466430664,165.3981170654297 153.7801971435547,150.23623657226562 157.12319946289062,141.9032440185547 C199.64230346679688,156.0628204345703 216.53041076660156,120.18383026123047 216.53041076660156,120.18383026123047 C237.84542846679688,120.94381713867188 249.8719940185547,103.53800201416016 249.8719940185547,80.58499908447266 C249.8719940185547,57.63199996948242 234.4807586669922,48.140193939208984 211.5277557373047,48.140193939208984 C205.68475341796875,48.140193939208984 203.10275268554688,46.37519454956055 198.0587615966797,48.55119705200195 C198.19276428222656,46.592193603515625 198.47032165527344,44.61228561401367 198.28565979003906,42.62919616699219 C192.07374572753906,-22.155927658081055 154.27886962890625,-45.9482421875 106.9728775024414,-45.9482421875 C93.92887878417969,-45.9482421875 81.57197570800781,-43.01924133300781 70.50597381591797,-37.80424499511719 C53.65097427368164,-85.08424377441406 7.959000110626221,-122.14600372314453 -45.10900115966797,-122.14600372314453z">
                    </path>
                    <path stroke-linecap="round" stroke-linejoin="round" fill-opacity="0" stroke="rgb(180,215,255)"
                        stroke-opacity="1" stroke-width="20"
                        d=" M-45.10900115966797,-122.14600372314453 C-107.77400207519531,-122.14600372314453 -167.08718872070312,-66.373779296875 -172.9532012939453,-5.591780662536621 C-176.86119079589844,-6.594780921936035 -180.91319274902344,-7.1347808837890625 -185.07119750976562,-7.1347808837890625 C-216.86619567871094,-7.1347808837890625 -248.20860290527344,20.450437545776367 -248.20860290527344,58.519439697265625 C-248.20860290527344,96.58843994140625 -215.12799072265625,126.18901824951172 -182.30917358398438,120.0011978149414 C-175.38917541503906,147.73719787597656 -130.47750854492188,177.0678253173828 -78.71951293945312,152.6808319091797 C-53.719512939453125,193.15682983398438 9.999485969543457,211.354736328125 60.67648696899414,175.6587371826172 C84.39783477783203,181.42172241210938 100.70513153076172,167.43093872070312 107.3492431640625,158.86912536621094 C127.5512466430664,165.3981170654297 153.7801971435547,150.23623657226562 157.12319946289062,141.9032440185547 C199.64230346679688,156.0628204345703 216.53041076660156,120.18383026123047 216.53041076660156,120.18383026123047 C237.84542846679688,120.94381713867188 249.8719940185547,103.53800201416016 249.8719940185547,80.58499908447266 C249.8719940185547,57.63199996948242 234.4807586669922,48.140193939208984 211.5277557373047,48.140193939208984 C205.68475341796875,48.140193939208984 203.10275268554688,46.37519454956055 198.0587615966797,48.55119705200195 C198.19276428222656,46.592193603515625 198.47032165527344,44.61228561401367 198.28565979003906,42.62919616699219 C192.07374572753906,-22.155927658081055 154.27886962890625,-45.9482421875 106.9728775024414,-45.9482421875 C93.92887878417969,-45.9482421875 81.57197570800781,-43.01924133300781 70.50597381591797,-37.80424499511719 C53.65097427368164,-85.08424377441406 7.959000110626221,-122.14600372314453 -45.10900115966797,-122.14600372314453z">
                    </path>
                </g>
            </g>
            <g transform="matrix(0.5,0,0,0.5,377.56158447265625,343.646484375)" opacity="1" style="display: block;">
                <g opacity="1" transform="matrix(1,0,0,1,0,0)">
                    <path stroke-linecap="round" stroke-linejoin="round" fill-opacity="0" stroke="rgb(180,215,255)"
                        stroke-opacity="1" stroke-width="20"
                        d=" M217.872802734375,121.13964080810547 C236.4393768310547,119.09650421142578 250.1082000732422,102.9793472290039 250.1082000732422,84.30260467529297 C250.1082000732422,63.4277458190918 233.4799041748047,46.3870964050293 212.6050567626953,46.3870964050293 C207.29173278808594,46.3870964050293 202.11822509765625,47.193878173828125 197.5309295654297,49.172603607177734 C197.65231323242188,47.39106369018555 197.73631286621094,45.59861755371094 197.73631286621094,43.786678314208984 C197.73631286621094,0.7630832195281982 165.45330810546875,-42.82246780395508 114.47924041748047,-47.02019500732422 C101.48298645019531,-48.081336975097656 81.03600311279297,-46.236000061035156 69.97000122070312,-41.020999908447266 C53.1150016784668,-88.3010025024414 9.031852722167969,-117.3204116821289 -44.03614807128906,-117.3204116821289 C-106.7011489868164,-117.3204116821289 -166.22732543945312,-62.087345123291016 -172.7901153564453,-5.291385650634766 C-177.162841796875,-6.2286272048950195 -181.69586181640625,-6.734380722045898 -186.34786987304688,-6.732594966888428 C-220.9969940185547,-6.722576141357422 -249.22244262695312,22.163331985473633 -249.22244262695312,57.735313415527344 C-249.22244262695312,92.2652587890625 -222.6990966796875,120.44810485839844 -188.57122802734375,122.07060241699219">
                    </path>
                </g>
            </g>
            <g transform="matrix(0.5,0,0,0.5,370.3045959472656,418.6195068359375)" opacity="1" style="display: block;">
                <g opacity="1" transform="matrix(1,0,0,1,0,0)">
                    <path stroke-linecap="round" stroke-linejoin="round" fill-opacity="0" stroke="rgb(180,215,255)"
                        stroke-opacity="1" stroke-width="20"
                        d=" M-170.2685089111328,-44.79682159423828 C-170.2685089111328,-14.921385765075684 -145.51718139648438,3.3635904788970947 -116.11331939697266,9.297160148620605 C-100.67142486572266,12.504908561706543 -71.53157806396484,9.503862380981445 -63.44770812988281,3.474228858947754 C-47.7382926940918,28.265592575073242 -20.691362380981445,44.30409622192383 10.667842864990234,44.30409622192383 C31.879819869995117,44.30409622192383 60.540531158447266,36.83226013183594 74.23536682128906,25.60835838317871 C78.22657012939453,26.70825958251953 82.42786407470703,27.307357788085938 86.77114868164062,27.307357788085938 C100.00010681152344,27.307357788085938 114.09711456298828,19.165437698364258 123.69248962402344,9.290398597717285 C127.38643646240234,10.193629264831543 131.24859619140625,10.674446105957031 135.22393798828125,10.674446105957031 C147.72198486328125,10.674446105957031 159.10812377929688,5.939484596252441 167.66482543945312,-1.825481653213501">
                    </path>
                </g>
            </g>
            <g transform="matrix(0.5,0,0,0.5,466.3825988769531,408.083984375)" opacity="1" style="display: block;">
                <g opacity="1" transform="matrix(1,0,0,1,0,0)">
                    <path stroke-linecap="round" stroke-linejoin="round" fill-opacity="0" stroke="rgb(180,215,255)"
                        stroke-opacity="1" stroke-width="20"
                        d=" M40.35331344604492,-14.845110893249512 C34.651546478271484,3.522738218307495 17.586332321166992,16.856000900268555 -2.579040765762329,16.856000900268555 C-15.603796005249023,16.856000900268555 -27.335248947143555,11.294217109680176 -35.54680252075195,2.4053454399108887">
                    </path>
                </g>
            </g>
        </g>
    </g>
</svg>