<svg xmlns="http://www.w3.org/2000/svg" xmlns:xlink="http://www.w3.org/1999/xlink" viewBox="0 0 512 512" width="512"
    height="512" preserveAspectRatio="xMidYMid meet"
    style="width: 100%; height: 100%; transform: translate3d(0px, 0px, 0px); content-visibility: visible;">
    <defs>
        <clipPath id="__lottie_element_1859">
            <rect width="512" height="512" x="0" y="0"></rect>
        </clipPath>
        <clipPath id="__lottie_element_1861">
            <path d="M0,0 L512,0 L512,512 L0,512z"></path>
        </clipPath>
    </defs>
    <g clip-path="url(#__lottie_element_1859)">
        <g clip-path="url(#__lottie_element_1861)" transform="matrix(1,0,0,1,0,0)" opacity="1" style="display: block;">
            <g transform="matrix(0.9489074945449829,0.04554753378033638,-0.04554753378033638,0.9489074945449829,257.3675231933594,291.00494384765625)"
                opacity="1" style="display: block;">
                <g opacity="1" transform="matrix(1,0,0,1,0,0)">
                    <path fill="rgb(193,222,243)" fill-opacity="1"
                        d=" M191.7220001220703,43.82899856567383 C209.54299926757812,40.141998291015625 218.76199340820312,27.85099983215332 219.3769989013672,-3.490000009536743 C219.99200439453125,-34.83100128173828 199.71099853515625,-37.90399932861328 198.48199462890625,-37.90399932861328 C198.48199462890625,-37.90399932861328 -206.48199462890625,-38.12300109863281 -206.48199462890625,-38.12300109863281 C-207.71099853515625,-38.12300109863281 -227.99200439453125,-35.04999923706055 -227.3769989013672,-3.7090001106262207 C-226.76199340820312,27.631999969482422 -217.54400634765625,39.92300033569336 -199.7220001220703,43.61000061035156 C-199.7220001220703,43.61000061035156 191.7220001220703,43.82899856567383 191.7220001220703,43.82899856567383z">
                    </path>
                    <path stroke-linecap="round" stroke-linejoin="round" fill-opacity="0" stroke="rgb(143,186,219)"
                        stroke-opacity="1" stroke-width="10"
                        d=" M191.7220001220703,43.82899856567383 C209.54299926757812,40.141998291015625 218.76199340820312,27.85099983215332 219.3769989013672,-3.490000009536743 C219.99200439453125,-34.83100128173828 199.71099853515625,-37.90399932861328 198.48199462890625,-37.90399932861328 C198.48199462890625,-37.90399932861328 -206.48199462890625,-38.12300109863281 -206.48199462890625,-38.12300109863281 C-207.71099853515625,-38.12300109863281 -227.99200439453125,-35.04999923706055 -227.3769989013672,-3.7090001106262207 C-226.76199340820312,27.631999969482422 -217.54400634765625,39.92300033569336 -199.7220001220703,43.61000061035156 C-199.7220001220703,43.61000061035156 191.7220001220703,43.82899856567383 191.7220001220703,43.82899856567383z">
                    </path>
                </g>
            </g>
            <g transform="matrix(0.9489074945449829,0.04554753378033638,-0.04554753378033638,0.9489074945449829,260.860595703125,189.30996704101562)"
                opacity="1" style="display: block;">
                <g opacity="1" transform="matrix(1,0,0,1,0,0)">
                    <path fill="rgb(217,239,255)" fill-opacity="1"
                        d=" M195.06500244140625,132.49200439453125 C201.0330047607422,113.30500030517578 204.2480010986328,92.90599822998047 204.2480010986328,71.75499725341797 C204.2480010986328,-41.04800033569336 112.8030014038086,-132.49200439453125 0,-132.49200439453125 C-112.8030014038086,-132.49200439453125 -204.2480010986328,-41.04800033569336 -204.2480010986328,71.75499725341797 C-204.2480010986328,92.56900024414062 -201.13400268554688,112.65599822998047 -195.34800720214844,131.5749969482422 C-195.34800720214844,131.5749969482422 195.06500244140625,132.49200439453125 195.06500244140625,132.49200439453125z">
                    </path>
                    <path stroke-linecap="round" stroke-linejoin="round" fill-opacity="0" stroke="rgb(143,186,219)"
                        stroke-opacity="1" stroke-width="10"
                        d=" M195.06500244140625,132.49200439453125 C201.0330047607422,113.30500030517578 204.2480010986328,92.90599822998047 204.2480010986328,71.75499725341797 C204.2480010986328,-41.04800033569336 112.8030014038086,-132.49200439453125 0,-132.49200439453125 C-112.8030014038086,-132.49200439453125 -204.2480010986328,-41.04800033569336 -204.2480010986328,71.75499725341797 C-204.2480010986328,92.56900024414062 -201.13400268554688,112.65599822998047 -195.34800720214844,131.5749969482422 C-195.34800720214844,131.5749969482422 195.06500244140625,132.49200439453125 195.06500244140625,132.49200439453125z">
                    </path>
                </g>
            </g>
            <g transform="matrix(0.9489074945449829,0.04554753378033638,-0.04554753378033638,0.9489074945449829,261.5641174316406,208.32997131347656)"
                opacity="1" style="display: block;">
                <g opacity="1" transform="matrix(1,0,0,1,0,0)">
                    <path fill="rgb(96,140,167)" fill-opacity="1"
                        d=" M-16.128999710083008,-133.51199340820312 C-153.0240020751953,-125.62899780273438 -203.66600036621094,9.857999801635742 -185.3679962158203,109.23500061035156 C-116.95700073242188,132.97799682617188 57.125999450683594,155.9429931640625 187.33399963378906,94.552001953125 C201.1909942626953,-15.795000076293945 126.51000213623047,-141.7259979248047 -16.128999710083008,-133.51199340820312z">
                    </path>
                </g>
            </g>
            <g transform="matrix(0.9489074945449829,0.04554753378033638,-0.04554753378033638,0.9489074945449829,261.5641174316406,208.32997131347656)"
                opacity="0.5" style="display: block;">
                <g opacity="1" transform="matrix(1,0,0,1,0,0)">
                    <path fill="rgb(73,113,139)" fill-opacity="1"
                        d=" M7.764999866485596,133.572998046875 C67.84200286865234,131.64999389648438 131.6060028076172,120.8270034790039 187.33399963378906,94.552001953125 C198.90199279785156,2.438999891281128 148.7729949951172,-100.53399658203125 48.92100143432617,-127.27100372314453 C133.57400512695312,-59.441001892089844 91.78299713134766,95.49299621582031 7.764999866485596,133.572998046875z">
                    </path>
                </g>
            </g>
            <g transform="matrix(0.9489074945449829,0.04554753378033638,-0.04554753378033638,0.9489074945449829,261.5641174316406,208.32997131347656)"
                opacity="1" style="display: block;">
                <g opacity="1" transform="matrix(1,0,0,1,0,0)">
                    <path stroke-linecap="round" stroke-linejoin="round" fill-opacity="0" stroke="rgb(143,186,219)"
                        stroke-opacity="1" stroke-width="10"
                        d=" M-16.128999710083008,-133.51199340820312 C-153.0240020751953,-125.62899780273438 -203.66600036621094,9.857999801635742 -185.3679962158203,109.23500061035156 C-116.95700073242188,132.97799682617188 57.125999450683594,155.9429931640625 187.33399963378906,94.552001953125 C201.1909942626953,-15.795000076293945 126.51000213623047,-141.7259979248047 -16.128999710083008,-133.51199340820312z">
                    </path>
                </g>
            </g>
            <g transform="matrix(0.9980331659317017,-0.30976223945617676,0.30976223945617676,0.9980331659317017,259.3645324707031,257.29107666015625)"
                opacity="1" style="display: block;">
                <g opacity="1" transform="matrix(1,0,0,1,0,0)">
                    <path stroke-linecap="round" stroke-linejoin="round" fill-opacity="0" stroke="rgb(87,120,80)"
                        stroke-opacity="1" stroke-width="20"
                        d=" M-0.05400000140070915,-91.84200286865234 C20.9950008392334,-93.12300109863281 42.569000244140625,-90.54000091552734 55.93899917602539,-84.75800323486328 C71.96900177001953,-77.82599639892578 117.56849670410156,-65.16693878173828 111.96549987792969,-29.54586410522461 C131.44290161132812,19.06871795654297 96.31099700927734,74.00900268554688 56.849998474121094,62.96200180053711 C34.516998291015625,56.709999084472656 -49.60100173950195,76.9489974975586 -71.01000213623047,68.03399658203125 C-120.63899993896484,47.36800003051758 -111.17500305175781,-14.826000213623047 -99.75199890136719,-42.034000396728516 C-88.3290023803711,-69.24199676513672 -71.96900177001953,-77.82599639892578 -55.93899917602539,-84.75800323486328 C-42.569000244140625,-90.54000091552734 -20.9950008392334,-93.12300109863281 0.05400000140070915,-91.84200286865234 C0.05400000140070915,-91.84200286865234 -0.05400000140070915,-91.84200286865234 -0.05400000140070915,-91.84200286865234z">
                    </path>
                </g>
            </g>
            <g transform="matrix(0.9475573301315308,-0.11517136543989182,0.10591284185647964,0.9443533420562744,121.45933532714844,255.34947204589844)"
                opacity="1" style="display: block;">
                <g opacity="1" transform="matrix(1,0,0,1,0,0)">
                    <path fill="rgb(165,214,154)" fill-opacity="1"
                        d=" M56.43299865722656,36.16999816894531 C44.83300018310547,53.56999969482422 -2.7809998989105225,51.375999450683594 -28.823999404907227,19.14699935913086 C-42.016998291015625,2.819999933242798 -60.2859992980957,-17.826000213623047 -77.46700286865234,-22.753999710083008 C-86.93800354003906,-25.47100067138672 -87.22599792480469,-34.14500045776367 -72.0739974975586,-35.05799865722656 C-25.207000732421875,-37.88199996948242 25.415000915527344,-48.26599884033203 74.48200225830078,-22.458999633789062">
                    </path>
                    <path stroke-linecap="round" stroke-linejoin="round" fill-opacity="0" stroke="rgb(87,120,80)"
                        stroke-opacity="1" stroke-width="10"
                        d=" M56.43299865722656,36.16999816894531 C44.83300018310547,53.56999969482422 -2.7809998989105225,51.375999450683594 -28.823999404907227,19.14699935913086 C-42.016998291015625,2.819999933242798 -60.2859992980957,-17.826000213623047 -77.46700286865234,-22.753999710083008 C-86.93800354003906,-25.47100067138672 -87.22599792480469,-34.14500045776367 -72.0739974975586,-35.05799865722656 C-25.207000732421875,-37.88199996948242 25.415000915527344,-48.26599884033203 74.48200225830078,-22.458999633789062">
                    </path>
                </g>
            </g>
            <g transform="matrix(0.9500488638877869,-0.08989917486906052,0.08055838197469711,0.9470934271812439,136.09951782226562,265.4434509277344)"
                opacity="1" style="display: block;">
                <g opacity="1" transform="matrix(1,0,0,1,0,0)">
                    <path fill="rgb(253,170,149)" fill-opacity="1"
                        d=" M67.24199676513672,17.0049991607666 C86.1259994506836,-13.508999824523926 69.87699890136719,-31.913000106811523 55.98099899291992,-24.3799991607666 C27.867000579833984,-9.138999938964844 -20.820999145507812,-37.82600021362305 -74.7040023803711,-35.380001068115234 C-47.07899856567383,-18.57699966430664 -34.827999114990234,11.569000244140625 -7.482999801635742,20.875 C5.926000118255615,25.437999725341797 59.04399871826172,30.25200080871582 67.24199676513672,17.0049991607666z">
                    </path>
                </g>
            </g>
            <g transform="matrix(0.9500488638877869,-0.08989917486906052,0.08055838197469711,0.9470934271812439,119.54622650146484,245.95928955078125)"
                opacity="1" style="display: block;">
                <g opacity="1" transform="matrix(1,0,0,1,0,0)">
                    <path stroke-linecap="round" stroke-linejoin="round" fill-opacity="0" stroke="rgb(221,130,120)"
                        stroke-opacity="1" stroke-width="3"
                        d=" M-59.15399932861328,-13.84000015258789 C-59.15399932861328,-13.84000015258789 28.167999267578125,-8.081000328063965 47.60300064086914,21.61400032043457 C49.60300064086914,17.11400032043457 53.99100112915039,8.821000099182129 53.99100112915039,8.821000099182129 C38.696998596191406,-20.04400062561035 -35.91999816894531,-15.055000305175781 -59.15399932861328,-13.84000015258789z">
                    </path>
                    <path fill="rgb(221,131,120)" fill-opacity="1"
                        d=" M-59.15399932861328,-13.84000015258789 C-59.15399932861328,-13.84000015258789 28.167999267578125,-8.081000328063965 47.60300064086914,21.61400032043457 C49.60300064086914,17.11400032043457 53.99100112915039,8.821000099182129 53.99100112915039,8.821000099182129 C38.696998596191406,-20.04400062561035 -35.91999816894531,-15.055000305175781 -59.15399932861328,-13.84000015258789z">
                    </path>
                </g>
            </g>
            <g transform="matrix(-0.8186670541763306,0.28025299310684204,0.30128562450408936,0.8995393514633179,387.32550048828125,190.0437774658203)"
                opacity="1" style="display: block;">
                <g opacity="1" transform="matrix(1,0,0,1,0,0)">
                    <path fill="rgb(165,214,154)" fill-opacity="1"
                        d=" M56.43299865722656,36.16999816894531 C44.83300018310547,53.56999969482422 -2.7809998989105225,51.375999450683594 -28.823999404907227,19.14699935913086 C-42.016998291015625,2.819999933242798 -60.2859992980957,-17.826000213623047 -77.46700286865234,-22.753999710083008 C-86.93800354003906,-25.47100067138672 -87.22599792480469,-34.14500045776367 -72.0739974975586,-35.05799865722656 C-25.207000732421875,-37.88199996948242 25.415000915527344,-48.26599884033203 74.48200225830078,-22.458999633789062">
                    </path>
                    <path stroke-linecap="round" stroke-linejoin="round" fill-opacity="0" stroke="rgb(87,120,80)"
                        stroke-opacity="1" stroke-width="12"
                        d=" M56.43299865722656,36.16999816894531 C44.83300018310547,53.56999969482422 -2.7809998989105225,51.375999450683594 -28.823999404907227,19.14699935913086 C-42.016998291015625,2.819999933242798 -60.2859992980957,-17.826000213623047 -77.46700286865234,-22.753999710083008 C-86.93800354003906,-25.47100067138672 -87.22599792480469,-34.14500045776367 -72.0739974975586,-35.05799865722656 C-25.207000732421875,-37.88199996948242 25.415000915527344,-48.26599884033203 74.48200225830078,-22.458999633789062">
                    </path>
                </g>
            </g>
            <g transform="matrix(-0.8165382742881775,0.28654173016548157,0.3070078492164612,0.8975558280944824,379.63775634765625,203.0271453857422)"
                opacity="1" style="display: block;">
                <g opacity="1" transform="matrix(1,0,0,1,0,0)">
                    <path fill="rgb(253,170,149)" fill-opacity="1"
                        d=" M67.24199676513672,17.0049991607666 C86.1259994506836,-13.508999824523926 69.87699890136719,-31.913000106811523 55.98099899291992,-24.3799991607666 C27.867000579833984,-9.138999938964844 -20.820999145507812,-37.82600021362305 -74.7040023803711,-35.380001068115234 C-47.07899856567383,-18.57699966430664 -34.827999114990234,11.569000244140625 -7.482999801635742,20.875 C5.926000118255615,25.437999725341797 59.04399871826172,30.25200080871582 67.24199676513672,17.0049991607666z">
                    </path>
                </g>
            </g>
            <g transform="matrix(-0.8165382742881775,0.28654173016548157,0.3070078492164612,0.8975558280944824,385.5690002441406,178.7800750732422)"
                opacity="1" style="display: block;">
                <g opacity="1" transform="matrix(1,0,0,1,0,0)">
                    <path stroke-linecap="round" stroke-linejoin="round" fill-opacity="0" stroke="rgb(221,130,120)"
                        stroke-opacity="1" stroke-width="3"
                        d=" M-59.15399932861328,-13.84000015258789 C-59.15399932861328,-13.84000015258789 28.167999267578125,-8.081000328063965 47.60300064086914,21.61400032043457 C49.60300064086914,17.11400032043457 53.99100112915039,8.821000099182129 53.99100112915039,8.821000099182129 C38.696998596191406,-20.04400062561035 -35.91999816894531,-15.055000305175781 -59.15399932861328,-13.84000015258789z">
                    </path>
                    <path fill="rgb(221,131,120)" fill-opacity="1"
                        d=" M-59.15399932861328,-13.84000015258789 C-59.15399932861328,-13.84000015258789 28.167999267578125,-8.081000328063965 47.60300064086914,21.61400032043457 C49.60300064086914,17.11400032043457 53.99100112915039,8.821000099182129 53.99100112915039,8.821000099182129 C38.696998596191406,-20.04400062561035 -35.91999816894531,-15.055000305175781 -59.15399932861328,-13.84000015258789z">
                    </path>
                </g>
            </g>
            <g transform="matrix(0.9181885719299316,-0.25289252400398254,0.25289252400398254,0.9181885719299316,275.11907958984375,279.6217041015625)"
                opacity="1" style="display: block;">
                <g opacity="1" transform="matrix(1,0,0,1,0.9670000076293945,-22.159000396728516)">
                    <path fill="rgb(155,110,78)" fill-opacity="1"
                        d=" M0,-30.29599952697754 C61.513118743896484,-30.29599952697754 111.45700073242188,-16.720361709594727 111.45700073242188,0 C111.45700073242188,16.720361709594727 61.513118743896484,30.29599952697754 0,30.29599952697754 C-61.513118743896484,30.29599952697754 -111.45700073242188,16.720361709594727 -111.45700073242188,0 C-111.45700073242188,-16.720361709594727 -61.513118743896484,-30.29599952697754 0,-30.29599952697754z">
                    </path>
                </g>
            </g>
            <g transform="matrix(1.2331533432006836,0,0,0.47530555725097656,267.35699462890625,482.0589904785156)"
                opacity="0.15" style="display: block;">
                <g opacity="1" transform="matrix(1,0,0,1,0,0)">
                    <path fill="rgb(0,0,0)" fill-opacity="1"
                        d=" M114.99199676513672,0.1459999978542328 C114.99199676513672,19.753999710083008 86.49800109863281,35.50400161743164 0.15000000596046448,35.50400161743164 C-86.197998046875,35.50400161743164 -117.88400268554688,19.753999710083008 -117.88400268554688,0.1459999978542328 C-117.88400268554688,-19.461999893188477 -86.197998046875,-35.50400161743164 0.15000000596046448,-35.50400161743164 C86.49800109863281,-35.50400161743164 114.99199676513672,-19.461999893188477 114.99199676513672,0.1459999978542328z">
                    </path>
                </g>
            </g>
            <g transform="matrix(0.872280478477478,-0.24024829268455505,0.24024829268455505,0.872280478477478,295.9909362792969,354.471923828125)"
                opacity="1" style="display: block;">
                <g opacity="1" transform="matrix(1,0,0,1,0,0)">
                    <path fill="rgb(127,83,52)" fill-opacity="1"
                        d=" M-111.05400085449219,-51.59600067138672 C-126.5270004272461,-35.29499816894531 -132.55799865722656,-17.07900047302246 -133.89599609375,-0.984000027179718 C-146.0709991455078,17.375 -145.39199829101562,40.91299819946289 -130.95199584960938,54.03900146484375 C-107.38999938964844,75.45700073242188 -94.29299926757812,60.45800018310547 -3.3980000019073486,70.20800018310547 C76.68599700927734,78.7979965209961 64.79399871826172,51.111000061035156 83.69599914550781,20.326000213623047 C91.66699981689453,7.343999862670898 155.47900390625,6.89300012588501 134.94000244140625,-8.539999961853027 C131.56900024414062,-41.48500061035156 112.48699951171875,-76.87699890136719 82.52899932861328,-93.45899963378906 C53.959999084472656,-109.27300262451172 -30.62700080871582,-113.46800231933594 -68.06800079345703,-96.45999908447266 C-86.24299621582031,-88.2040023803711 -99.70099639892578,-72.35199737548828 -109.60900115966797,-54.00600051879883">
                    </path>
                    <path stroke-linecap="round" stroke-linejoin="round" fill-opacity="0" stroke="rgb(113,66,35)"
                        stroke-opacity="1" stroke-width="10"
                        d=" M-111.05400085449219,-51.59600067138672 C-126.5270004272461,-35.29499816894531 -132.55799865722656,-17.07900047302246 -133.89599609375,-0.984000027179718 C-146.0709991455078,17.375 -145.39199829101562,40.91299819946289 -130.95199584960938,54.03900146484375 C-107.38999938964844,75.45700073242188 -94.29299926757812,60.45800018310547 -3.3980000019073486,70.20800018310547 C76.68599700927734,78.7979965209961 64.79399871826172,51.111000061035156 83.69599914550781,20.326000213623047 C91.66699981689453,7.343999862670898 155.47900390625,6.89300012588501 134.94000244140625,-8.539999961853027 C131.56900024414062,-41.48500061035156 112.48699951171875,-76.87699890136719 82.52899932861328,-93.45899963378906 C53.959999084472656,-109.27300262451172 -30.62700080871582,-113.46800231933594 -68.06800079345703,-96.45999908447266 C-86.24299621582031,-88.2040023803711 -99.70099639892578,-72.35199737548828 -109.60900115966797,-54.00600051879883">
                    </path>
                </g>
            </g>
            <g transform="matrix(0.9980331659317017,-0.30976223945617676,0.30976223945617676,0.9980331659317017,259.3645324707031,257.29107666015625)"
                opacity="1" style="display: block;">
                <g opacity="1" transform="matrix(1,0,0,1,0,0)">
                    <path fill="rgb(165,214,153)" fill-opacity="1"
                        d=" M-0.05400000140070915,-91.84200286865234 C20.9950008392334,-93.12300109863281 42.569000244140625,-90.54000091552734 55.93899917602539,-84.75800323486328 C71.96900177001953,-77.82599639892578 117.56849670410156,-65.16693878173828 111.96549987792969,-29.54586410522461 C131.44290161132812,19.06871795654297 96.31099700927734,74.00900268554688 56.849998474121094,62.96200180053711 C34.516998291015625,56.709999084472656 -49.60100173950195,76.9489974975586 -71.01000213623047,68.03399658203125 C-120.63899993896484,47.36800003051758 -111.17500305175781,-14.826000213623047 -99.75199890136719,-42.034000396728516 C-88.3290023803711,-69.24199676513672 -71.96900177001953,-77.82599639892578 -55.93899917602539,-84.75800323486328 C-42.569000244140625,-90.54000091552734 -20.9950008392334,-93.12300109863281 0.05400000140070915,-91.84200286865234 C0.05400000140070915,-91.84200286865234 -0.05400000140070915,-91.84200286865234 -0.05400000140070915,-91.84200286865234z">
                    </path>
                </g>
            </g>
            <g transform="matrix(0.8951103687286377,-0.32527902722358704,0.32527902722358704,0.8951103687286377,273.8265075683594,278.08447265625)"
                opacity="1" style="display: block;">
                <g opacity="1" transform="matrix(1,0,0,1,-0.19499999284744263,-4.0970001220703125)">
                    <path fill="rgb(193,235,183)" fill-opacity="1"
                        d=" M13.10200023651123,-106.87100219726562 C-23.08799934387207,-107.87699890136719 -55.108001708984375,-106.7760009765625 -66.11299896240234,-98.80899810791016 C-45.09700012207031,-108.4800033569336 -13.895000457763672,-107.04000091552734 19.04800033569336,-99.8030014038086 C45.87300109863281,-107.37999725341797 61.9900016784668,-96.65899658203125 70.66300201416016,-92.54199981689453 C53.94599914550781,-103.20999908447266 28.966999053955078,-106.43000030517578 13.10200023651123,-106.87100219726562z">
                    </path>
                    <path stroke-linecap="round" stroke-linejoin="round" fill-opacity="0" stroke="rgb(193,235,183)"
                        stroke-opacity="1" stroke-width="20"
                        d=" M13.10200023651123,-106.87100219726562 C-23.08799934387207,-107.87699890136719 -55.108001708984375,-106.7760009765625 -66.11299896240234,-98.80899810791016 C-45.09700012207031,-108.4800033569336 -13.895000457763672,-107.04000091552734 19.04800033569336,-99.8030014038086 C45.87300109863281,-107.37999725341797 61.9900016784668,-96.65899658203125 70.66300201416016,-92.54199981689453 C53.94599914550781,-103.20999908447266 28.966999053955078,-106.43000030517578 13.10200023651123,-106.87100219726562z">
                    </path>
                </g>
            </g>
            <g transform="matrix(-1.0236303806304932,0.225834459066391,-0.21606244146823883,-1.0191502571105957,282.528076171875,244.1106719970703)"
                opacity="0.5" style="display: block;">
                <g opacity="1" transform="matrix(1,0,0,1,0,0)">
                    <path stroke-linecap="round" stroke-linejoin="round" fill-opacity="0" stroke="rgb(87,120,80)"
                        stroke-opacity="1" stroke-width="7.2"
                        d=" M-7.624000072479248,1.5149999856948853 C-1.5570000410079956,5.681000232696533 2.7190001010894775,5.067999839782715 9.026000022888184,0.2750000059604645">
                    </path>
                </g>
            </g>
            <g transform="matrix(0.9224767684936523,-0.24979247152805328,0.24109093844890594,0.9179744124412537,290.43359375,251.69012451171875)"
                opacity="1" style="display: block;">
                <g opacity="1" transform="matrix(1,0,0,1,-0.19499999284744263,-4.0970001220703125)">
                    <path fill="rgb(193,235,183)" fill-opacity="1"
                        d=" M-6.815000057220459,-24.441999435424805 C-12.682999610900879,-24.624000549316406 -15.54699993133545,-20.309999465942383 -17.33099937438965,-18.232999801635742 C-19.114999771118164,-16.1560001373291 -13.239999771118164,-14.472999572753906 -6.688000202178955,-14.281999588012695 C-0.13600000739097595,-14.090999603271484 5.11899995803833,-14.928999900817871 4.142000198364258,-17.663999557495117 C3.1649999618530273,-20.39900016784668 -2.5480000972747803,-24.309999465942383 -6.815000057220459,-24.441999435424805z">
                    </path>
                </g>
            </g>
            <g transform="matrix(1.0236303806304932,-0.225834459066391,0.21606244146823883,1.0191502571105957,279.5541687011719,257.64862060546875)"
                opacity="1" style="display: block;">
                <path fill="rgb(119,28,51)" fill-opacity="1"
                    d=" M21.799930572509766,-1.7316811084747314 C18.44528579711914,1.7781490087509155 13.19516658782959,2.554082155227661 7.160815715789795,2.8355884552001953 C0.7641909718513489,3.129960536956787 -6.267085075378418,2.3967719078063965 -10.756417274475098,-0.7522217035293579 C-11.309425354003906,-2.1840550899505615 -4.065907955169678,-1.1890517473220825 2.063110113143921,-0.826690673828125 C10.30966567993164,-0.2086123675107956 16.87183952331543,-0.07431100308895111 21.799930572509766,-1.7316811084747314z">
                </path>
                <g opacity="1" transform="matrix(1,0,0,1,0,0)">
                    <path stroke-linecap="round" stroke-linejoin="round" fill-opacity="0" stroke="rgb(0,0,0)"
                        stroke-opacity="1" stroke-width="6"
                        d=" M21.799930572509766,-1.7316811084747314 C18.44528579711914,1.7781490087509155 13.19516658782959,2.554082155227661 7.160815715789795,2.8355884552001953 C0.7641909718513489,3.129960536956787 -6.267085075378418,2.3967719078063965 -10.756417274475098,-0.7522217035293579 C-11.309425354003906,-2.1840550899505615 -4.065907955169678,-1.1890517473220825 2.063110113143921,-0.826690673828125 C10.30966567993164,-0.2086123675107956 16.87183952331543,-0.07431100308895111 21.799930572509766,-1.7316811084747314z">
                    </path>
                </g>
            </g>
            <g transform="matrix(1.0244402885437012,-0.20626413822174072,0.20626413822174072,1.0244402885437012,260.190673828125,187.6617889404297)"
                opacity="1" style="display: block;">
                <g opacity="1" transform="matrix(1,0,0,1,0,0)">
                    <path stroke-linecap="round" stroke-linejoin="round" fill-opacity="0" stroke="rgb(126,167,117)"
                        stroke-opacity="1" stroke-width="6"
                        d=" M-22.78484535217285,5.816988468170166 C-16.35484504699707,2.0259883403778076 -3.170158624649048,1.3975834846496582 4.965841293334961,6.26158332824707 C10.73984146118164,3.6925835609436035 19.845121383666992,2.203040361404419 25.650121688842773,4.070040225982666">
                    </path>
                </g>
            </g>
            <g transform="matrix(1.0244402885437012,-0.20626413822174072,0.20626413822174072,1.0244402885437012,253.13632202148438,169.49851989746094)"
                opacity="1" style="display: block;">
                <g opacity="1" transform="matrix(1,0,0,1,0,0)">
                    <path stroke-linecap="round" stroke-linejoin="round" fill-opacity="0" stroke="rgb(126,167,117)"
                        stroke-opacity="1" stroke-width="6"
                        d=" M20.58086585998535,2.9133384227752686 C16.4068660736084,3.3583383560180664 9.622706413269043,4.447373867034912 4.7697062492370605,7.94037389755249 C-2.0482938289642334,3.635374069213867 -10.025134086608887,3.933762788772583 -15.641134262084961,4.621762752532959">
                    </path>
                </g>
            </g>
            <g transform="matrix(-1.2441790103912354,0.18150749802589417,-0.18348084390163422,-1.2897968292236328,229.4488067626953,213.20851135253906)"
                opacity="1" style="display: block;">
                <g opacity="1" transform="matrix(1,0,0,1,0,0)">
                    <path stroke-linecap="round" stroke-linejoin="round" fill-opacity="0" stroke="rgb(126,167,117)"
                        stroke-opacity="1" stroke-width="6"
                        d=" M7.47599983215332,-47.27399826049805 C0.19699999690055847,-44.94499969482422 -8.430000305175781,-36.11899948120117 -9.527000427246094,-27.597999572753906">
                    </path>
                </g>
            </g>
            <g transform="matrix(-1.245356559753418,0.1736845225095749,-0.19040872156620026,-1.2887678146362305,227.75372314453125,213.96185302734375)"
                opacity="1" style="display: block;">
                <g opacity="1" transform="matrix(1,0,0,1,0,0)">
                    <path stroke-linecap="round" stroke-linejoin="round" fill-opacity="0" stroke="rgb(126,167,117)"
                        stroke-opacity="1" stroke-width="6"
                        d=" M-76.91699981689453,-36.67399978637695 C-69.61199951171875,-34.345001220703125 -60.95399856567383,-25.51799964904785 -59.85300064086914,-16.996999740600586">
                    </path>
                </g>
            </g>
            <g transform="matrix(1.2290980815887451,-0.267478346824646,0.26639217138290405,1.2747457027435303,-70.3311538696289,87.70317840576172)"
                opacity="1" style="display: block;">
                <g opacity="1" transform="matrix(1,0,0,1,-0.1479949951171875,0.1980133056640625)">
                    <g opacity="1" transform="matrix(1,0,0,1,196.31700134277344,166.07000732421875)">
                        <g opacity="1" transform="matrix(1,0,0,1,0,0)">
                            <path stroke-linecap="round" stroke-linejoin="round" fill-opacity="0" stroke="rgb(0,0,0)"
                                stroke-opacity="1" stroke-width="8"
                                d=" M23.33099937438965,0.9620000123977661 C16.091999053955078,7.934999942779541 11.682000160217285,10.6899995803833 -0.6650000214576721,12.89900016784668 C-12.119999885559082,14.947999954223633 -21.09000015258789,10.072999954223633 -26.802000045776367,3.7190001010894775 C-24.788999557495117,9.133999824523926 -16.354000091552734,14.857999801635742 -1.284000039100647,13.583999633789062 C10.548999786376953,12.583999633789062 19.86400032043457,6.7820000648498535 23.33099937438965,0.9620000123977661z">
                            </path>
                            <path fill="rgb(0,0,0)" fill-opacity="1"
                                d=" M23.33099937438965,0.9620000123977661 C16.091999053955078,7.934999942779541 11.682000160217285,10.6899995803833 -0.6650000214576721,12.89900016784668 C-12.119999885559082,14.947999954223633 -21.09000015258789,10.072999954223633 -26.802000045776367,3.7190001010894775 C-24.788999557495117,9.133999824523926 -16.354000091552734,14.857999801635742 -1.284000039100647,13.583999633789062 C10.548999786376953,12.583999633789062 19.86400032043457,6.7820000648498535 23.33099937438965,0.9620000123977661z">
                            </path>
                        </g>
                    </g>
                </g>
            </g>
            <g transform="matrix(-1.2441790103912354,0.18150749802589417,-0.18348084390163422,-1.2897968292236328,229.4488067626953,213.20851135253906)"
                opacity="1" style="display: block;">
                <path fill="rgb(165,214,154)" fill-opacity="1"
                    d=" M42.34400177001953,-11.49899959564209 C20.634000778198242,2.753000020980835 4.895999908447266,5.6479997634887695 -10.147000312805176,-10.751999855041504">
                </path>
                <g opacity="1" transform="matrix(1,0,0,1,0,0)">
                    <path stroke-linecap="round" stroke-linejoin="round" fill-opacity="0" stroke="rgb(126,167,117)"
                        stroke-opacity="1" stroke-width="6"
                        d=" M42.34400177001953,-11.49899959564209 C20.634000778198242,2.753000020980835 4.895999908447266,5.6479997634887695 -10.147000312805176,-10.751999855041504">
                    </path>
                </g>
            </g>
            <g transform="matrix(-1.1266733407974243,0.24518842995166779,0.2663920819759369,1.2747455835342407,510.7225646972656,-44.603370666503906)"
                opacity="1" style="display: block;">
                <g opacity="1" transform="matrix(1,0,0,1,-0.1479949951171875,0.1980133056640625)">
                    <g opacity="1" transform="matrix(1,0,0,1,196.31700134277344,166.07000732421875)">
                        <g opacity="1" transform="matrix(1,0,0,1,0,0)">
                            <path stroke-linecap="round" stroke-linejoin="round" fill-opacity="0" stroke="rgb(0,0,0)"
                                stroke-opacity="1" stroke-width="8"
                                d=" M23.639999389648438,1.6740000247955322 C16.2450008392334,7.590000152587891 11.77400016784668,9.88599967956543 -0.621999979019165,11.479000091552734 C-12.121999740600586,12.956999778747559 -20.981000900268555,8.428999900817871 -26.548999786376953,2.693000078201294 C-24.658000946044922,7.500999927520752 -16.354000091552734,12.758999824523926 -1.2569999694824219,12.062000274658203 C10.597000122070312,11.515000343322754 20.04199981689453,6.684000015258789 23.639999389648438,1.6740000247955322z">
                            </path>
                            <path fill="rgb(0,0,0)" fill-opacity="1"
                                d=" M23.639999389648438,1.6740000247955322 C16.2450008392334,7.590000152587891 11.77400016784668,9.88599967956543 -0.621999979019165,11.479000091552734 C-12.121999740600586,12.956999778747559 -20.981000900268555,8.428999900817871 -26.548999786376953,2.693000078201294 C-24.658000946044922,7.500999927520752 -16.354000091552734,12.758999824523926 -1.2569999694824219,12.062000274658203 C10.597000122070312,11.515000343322754 20.04199981689453,6.684000015258789 23.639999389648438,1.6740000247955322z">
                            </path>
                        </g>
                    </g>
                </g>
            </g>
            <g transform="matrix(1.1063034534454346,-0.33000826835632324,-0.34124788641929626,-1.2554633617401123,309.0011901855469,190.03952026367188)"
                opacity="1" style="display: block;">
                <g opacity="1" transform="matrix(1,0,0,1,0,0)">
                    <path fill="rgb(165,214,154)" fill-opacity="1"
                        d=" M37.51599884033203,-10.36400032043457 C17.56399917602539,1.8200000524520874 -3.8989999294281006,6.839000225067139 -12.939000129699707,-13.864999771118164">
                    </path>
                    <path stroke-linecap="round" stroke-linejoin="round" fill-opacity="0" stroke="rgb(126,167,117)"
                        stroke-opacity="1" stroke-width="6"
                        d=" M37.51599884033203,-10.36400032043457 C17.56399917602539,1.8200000524520874 -3.8989999294281006,6.839000225067139 -12.939000129699707,-13.864999771118164">
                    </path>
                </g>
            </g>
            <g transform="matrix(0.8913206458091736,-0.32870030403137207,0.32870030403137207,0.8913206458091736,291.7600402832031,328.5500183105469)"
                opacity="1" style="display: block;">
                <g opacity="1" transform="matrix(1,0,0,1,0,0)">
                    <path fill="rgb(229,170,98)" fill-opacity="1"
                        d=" M-133.0590057373047,-75.57099914550781 C-127.5780029296875,-41.72600173950195 -146.39199829101562,-46.86000061035156 -133.53900146484375,-29.816999435424805 C-120.68599700927734,-12.77400016784668 -41.104000091552734,25.261999130249023 6.129000186920166,7.077000141143799 C24.70599937438965,17.868000030517578 90.40599822998047,4.822999954223633 105.01899719238281,-6.993000030517578 C119.63200378417969,-18.80900001525879 119.10700225830078,-24.02199935913086 124.10399627685547,-45.1870002746582 C74.11299896240234,-33.757999420166016 -55.77000045776367,-51.393001556396484 -133.0590057373047,-75.57099914550781z">
                    </path>
                </g>
            </g>
            <g transform="matrix(0.8913206458091736,-0.32870030403137207,0.32870030403137207,0.8913206458091736,291.7600402832031,328.5500183105469)"
                opacity="1" style="display: block;">
                <g opacity="1" transform="matrix(1,0,0,1,0,0)">
                    <path fill="rgb(245,191,131)" fill-opacity="1"
                        d=" M-127.6520004272461,-74.96499633789062 C-109.26499938964844,-31.413000106811523 92.03600311279297,-2.0390000343322754 119.08799743652344,-48.26599884033203 C65.18199920654297,-32.98400115966797 -73.62300109863281,-55.87900161743164 -127.6520004272461,-74.96499633789062z">
                    </path>
                </g>
            </g>
            <g transform="matrix(0.8913206458091736,-0.32870030403137207,0.32870030403137207,0.8913206458091736,291.7600402832031,328.5500183105469)"
                opacity="1" style="display: block;">
                <g opacity="1" transform="matrix(1,0,0,1,0,0)">
                    <path stroke-linecap="round" stroke-linejoin="round" fill-opacity="0" stroke="rgb(168,114,48)"
                        stroke-opacity="1" stroke-width="10"
                        d=" M-133.0590057373047,-75.57099914550781 C-127.5780029296875,-41.72600173950195 -146.39199829101562,-46.86000061035156 -133.53900146484375,-29.816999435424805 C-120.68599700927734,-12.77400016784668 -41.104000091552734,25.261999130249023 6.129000186920166,7.077000141143799 C24.70599937438965,17.868000030517578 90.40599822998047,4.822999954223633 105.01899719238281,-6.993000030517578 C119.63200378417969,-18.80900001525879 119.10700225830078,-24.02199935913086 124.10399627685547,-45.1870002746582 C74.11299896240234,-33.757999420166016 -55.77000045776367,-51.393001556396484 -133.0590057373047,-75.57099914550781z">
                    </path>
                </g>
            </g>
            <g transform="matrix(1,0,0,1,256,256)" opacity="1" style="display: block;"></g>
            <g transform="matrix(0.8735159635543823,-0.2512509226799011,0.2489500343799591,0.8655166029930115,311.73089599609375,417.5109558105469)"
                opacity="1" style="display: block;">
                <g opacity="1" transform="matrix(1,0,0,1,0,0)">
                    <path stroke-linecap="round" stroke-linejoin="round" fill-opacity="0" stroke="rgb(87,120,80)"
                        stroke-opacity="1" stroke-width="11"
                        d=" M21.82699966430664,17.507999420166016 C18.73200035095215,20.466999053955078 15.392999649047852,18.924999237060547 10.473999977111816,13.402000427246094 C4.093999862670898,23.452999114990234 1.1449999809265137,24.951000213623047 -4.803999900817871,25.496999740600586 C-10.503999710083008,26.020000457763672 -7.609000205993652,18.113000869750977 -3.453000068664551,5.882999897003174 C-14.362000465393066,9.456999778747559 -17.007999420166016,11.659000396728516 -20.363000869750977,7.36899995803833 C-25.06399917602539,2.0840001106262207 -19.11199951171875,-8.446999549865723 -2.1110000610351562,-15.859000205993652 C13.567999839782715,-18.07200050354004 24.225000381469727,15.21500015258789 21.82699966430664,17.507999420166016z">
                    </path>
                    <path fill="rgb(165,214,154)" fill-opacity="1"
                        d=" M21.82699966430664,17.507999420166016 C18.73200035095215,20.466999053955078 15.392999649047852,18.924999237060547 10.473999977111816,13.402000427246094 C4.093999862670898,23.452999114990234 1.1449999809265137,24.951000213623047 -4.803999900817871,25.496999740600586 C-10.503999710083008,26.020000457763672 -7.609000205993652,18.113000869750977 -3.453000068664551,5.882999897003174 C-14.362000465393066,9.456999778747559 -17.007999420166016,11.659000396728516 -20.363000869750977,7.36899995803833 C-25.06399917602539,2.0840001106262207 -19.11199951171875,-8.446999549865723 -2.1110000610351562,-15.859000205993652 C13.567999839782715,-18.07200050354004 24.225000381469727,15.21500015258789 21.82699966430664,17.507999420166016z">
                    </path>
                    <path stroke-linecap="round" stroke-linejoin="round" fill-opacity="0" stroke="rgb(87,120,80)"
                        stroke-opacity="1" stroke-width="9"
                        d=" M21.82699966430664,17.507999420166016 C18.73200035095215,20.466999053955078 15.392999649047852,18.924999237060547 10.473999977111816,13.402000427246094 C4.093999862670898,23.452999114990234 1.1449999809265137,24.951000213623047 -4.803999900817871,25.496999740600586 C-10.503999710083008,26.020000457763672 -7.609000205993652,18.113000869750977 -3.453000068664551,5.882999897003174 C-14.362000465393066,9.456999778747559 -17.007999420166016,11.659000396728516 -20.363000869750977,7.36899995803833 C-25.06399917602539,2.0840001106262207 -19.11199951171875,-8.446999549865723 -2.1110000610351562,-15.859000205993652 C13.567999839782715,-18.07200050354004 24.225000381469727,15.21500015258789 21.82699966430664,17.507999420166016z">
                    </path>
                </g>
            </g>
            <g transform="matrix(0.9489074945449829,0.04554753378033638,-0.04554753378033638,0.9489074945449829,30.085224151611328,17.69858741760254)"
                opacity="1" style="display: block;">
                <g opacity="1" transform="matrix(1,0,0,1,251.30299377441406,357.78900146484375)">
                    <path fill="rgb(217,239,255)" fill-opacity="1"
                        d=" M-203.2480010986328,-81.04299926757812 C-198.29299926757812,47.95600128173828 -113.8030014038086,98.16100311279297 -1,98.16100311279297 C111.8030014038086,98.16100311279297 200.68699645996094,3.825000047683716 203.2480010986328,-98.16100311279297 C176.27999877929688,-40.58700180053711 -151.97500610351562,-31.12700080871582 -203.2480010986328,-81.04299926757812z">
                    </path>
                    <path stroke-linecap="round" stroke-linejoin="round" fill-opacity="0" stroke="rgb(143,186,219)"
                        stroke-opacity="1" stroke-width="11"
                        d=" M-203.2480010986328,-81.04299926757812 C-198.29299926757812,47.95600128173828 -113.8030014038086,98.16100311279297 -1,98.16100311279297 C111.8030014038086,98.16100311279297 200.68699645996094,3.825000047683716 203.2480010986328,-98.16100311279297 C176.27999877929688,-40.58700180053711 -151.97500610351562,-31.12700080871582 -203.2480010986328,-81.04299926757812z">
                    </path>
                </g>
                <g opacity="1" transform="matrix(1,0,0,1,248.7449951171875,346.4429931640625)">
                    <path stroke-linecap="round" stroke-linejoin="round" fill-opacity="0" stroke="rgb(143,186,219)"
                        stroke-opacity="1" stroke-width="11"
                        d=" M192.4669952392578,-22.763999938964844 C170.4969940185547,-1.2669999599456787 87.55999755859375,21.04400062561035 3.5350000858306885,22.66200065612793 C-85.12799835205078,24.3700008392334 -171.73300170898438,4.2729997634887695 -192.4669952392578,-15.54699993133545">
                    </path>
                </g>
            </g>
            <g transform="matrix(0.9489074945449829,0.04554753378033638,-0.04554753378033638,0.9489074945449829,30.085224151611328,17.69858741760254)"
                opacity="1" style="display: block;">
                <g opacity="1" transform="matrix(1,0,0,1,248.7449951171875,346.4429931640625)">
                    <path stroke-linecap="round" stroke-linejoin="round" fill-opacity="0" stroke="rgb(245,250,255)"
                        stroke-opacity="1" stroke-width="11"
                        d=" M186.73199462890625,-53.47600173950195 C145.93699645996094,-31.868000030517578 53.24599838256836,-23.57900047302246 -8.934000015258789,-22.288999557495117">
                    </path>
                </g>
            </g>
            <g transform="matrix(0.9489074945449829,0.04554753378033638,-0.04554753378033638,0.9489074945449829,30.085224151611328,17.69858741760254)"
                opacity="0.33" style="display: block;">
                <g opacity="1" transform="matrix(1,0,0,1,251.30299377441406,357.78900146484375)">
                    <path fill="rgb(143,186,219)" fill-opacity="1"
                        d=" M-203.2480010986328,-81.04299926757812 C-198.29299926757812,47.95600128173828 -113.8030014038086,98.16100311279297 -1,98.16100311279297 C-48.9010009765625,99.60600280761719 -106.36499786376953,59.73400115966797 -111.79199981689453,3.1510000228881836 C-134.60000610351562,-0.6919999718666077 -136.5970001220703,-52.417999267578125 -124.4260025024414,-56.084999084472656 C-147.24600219726562,-61.24300003051758 -194.27999877929688,-72.31300354003906 -203.2480010986328,-81.04299926757812z">
                    </path>
                </g>
            </g>
            <g transform="matrix(0.9997002482414246,0,0,0.9997002482414246,323.1639404296875,113.82820129394531)"
                opacity="1" style="display: block;">
                <g opacity="1" transform="matrix(1,0,0,1,0,0)">
                    <path stroke-linecap="round" stroke-linejoin="round" fill-opacity="0" stroke="rgb(6,149,161)"
                        stroke-opacity="1" stroke-width="25"
                        d=" M37.74601364135742,-44.90270233154297 C37.74601364135742,-44.90270233154297 63.75398635864258,-44.90270233154297 63.75398635864258,-44.90270233154297 C63.75398635864258,-44.90270233154297 38.488929748535156,-1.5972962379455566 38.488929748535156,-1.5972962379455566 C38.488929748535156,-1.5972962379455566 60.038665771484375,-1.5972962379455566 60.038665771484375,-1.5972962379455566">
                    </path>
                    <path stroke-linecap="round" stroke-linejoin="round" fill-opacity="0" stroke="rgb(0,233,255)"
                        stroke-opacity="1" stroke-width="12"
                        d=" M37.74601364135742,-44.90270233154297 C37.74601364135742,-44.90270233154297 63.75398635864258,-44.90270233154297 63.75398635864258,-44.90270233154297 C63.75398635864258,-44.90270233154297 38.488929748535156,-1.5972962379455566 38.488929748535156,-1.5972962379455566 C38.488929748535156,-1.5972962379455566 60.038665771484375,-1.5972962379455566 60.038665771484375,-1.5972962379455566">
                    </path>
                </g>
            </g>
            <g transform="matrix(1,0,0,1,289.76385498046875,162.94898986816406)" opacity="1" style="display: block;">
                <g opacity="1" transform="matrix(1,0,0,1,0,0)">
                    <path stroke-linecap="round" stroke-linejoin="round" fill-opacity="0" stroke="rgb(6,149,162)"
                        stroke-opacity="1" stroke-width="25"
                        d=" M37.756744384765625,-33.75432205200195 C37.756744384765625,-33.75432205200195 63.743255615234375,-33.75432205200195 63.743255615234375,-33.75432205200195 C63.743255615234375,-33.75432205200195 38.49887466430664,-12.74567985534668 38.49887466430664,-12.74567985534668 C38.49887466430664,-12.74567985534668 60.0316047668457,-12.74567985534668 60.0316047668457,-12.74567985534668">
                    </path>
                    <path stroke-linecap="round" stroke-linejoin="round" fill-opacity="0" stroke="rgb(0,233,255)"
                        stroke-opacity="1" stroke-width="12"
                        d=" M37.756744384765625,-33.75432205200195 C37.756744384765625,-33.75432205200195 63.743255615234375,-33.75432205200195 63.743255615234375,-33.75432205200195 C63.743255615234375,-33.75432205200195 38.49887466430664,-12.74567985534668 38.49887466430664,-12.74567985534668 C38.49887466430664,-12.74567985534668 60.0316047668457,-12.74567985534668 60.0316047668457,-12.74567985534668">
                    </path>
                </g>
            </g>
            <g transform="matrix(1,0,0,1,236.26803588867188,157.30528259277344)" opacity="1" style="display: block;">
                <g opacity="1" transform="matrix(1,0,0,1,0,0)">
                    <path stroke-linecap="round" stroke-linejoin="round" fill-opacity="0" stroke="rgb(6,149,162)"
                        stroke-opacity="1" stroke-width="25"
                        d=" M41.677024841308594,-37.9445686340332 C41.677024841308594,-37.9445686340332 59.822975158691406,-37.9445686340332 59.822975158691406,-37.9445686340332 C59.822975158691406,-37.9445686340332 42.19602584838867,-8.555432319641113 42.19602584838867,-8.555432319641113 C42.19602584838867,-8.555432319641113 57.22998046875,-8.555432319641113 57.22998046875,-8.555432319641113">
                    </path>
                    <path stroke-linecap="round" stroke-linejoin="round" fill-opacity="0" stroke="rgb(0,233,255)"
                        stroke-opacity="1" stroke-width="12"
                        d=" M41.677024841308594,-37.9445686340332 C41.677024841308594,-37.9445686340332 59.822975158691406,-37.9445686340332 59.822975158691406,-37.9445686340332 C59.822975158691406,-37.9445686340332 42.19602584838867,-8.555432319641113 42.19602584838867,-8.555432319641113 C42.19602584838867,-8.555432319641113 57.22998046875,-8.555432319641113 57.22998046875,-8.555432319641113">
                    </path>
                </g>
            </g>
        </g>
    </g>
</svg>