<svg xmlns="http://www.w3.org/2000/svg" xmlns:xlink="http://www.w3.org/1999/xlink" viewBox="0 0 512 512" width="512"
    height="512" preserveAspectRatio="xMidYMid meet"
    style="width: 100%; height: 100%; transform: translate3d(0px, 0px, 0px); content-visibility: visible;">
    <defs>
        <clipPath id="__lottie_element_744">
            <rect width="512" height="512" x="0" y="0"></rect>
        </clipPath>
        <clipPath id="__lottie_element_746">
            <path d="M0,0 L512,0 L512,512 L0,512z"></path>
        </clipPath>
    </defs>
    <g clip-path="url(#__lottie_element_744)">
        <g clip-path="url(#__lottie_element_746)" transform="matrix(1,0,0,1,0,0)" opacity="1" style="display: block;">
            <g transform="matrix(0.9700000286102295,0,0,0.9700000286102295,36.707000732421875,235.22779846191406)"
                opacity="1" style="display: block;">
                <g opacity="1" transform="matrix(1,0,0,1,218.93600463867188,134.5850067138672)">
                    <path fill="rgb(255,212,39)" fill-opacity="1"
                        d=" M-2.125999927520752,106.89800262451172 C-81.4530029296875,106.89800262451172 -178.47300720214844,101.91400146484375 -178.47300720214844,22.454999923706055 C-178.47300720214844,13.97599983215332 -177.91400146484375,6.004000186920166 -176.83099365234375,-1.4859999418258667 C-164.47300720214844,-86.9800033569336 -99.31400299072266,-109.58399963378906 -2.125999927520752,-109.58399963378906 C96.3759994506836,-109.58399963378906 171.05599975585938,-80.18099975585938 177.9810028076172,29.836000442504883 C183.00999450683594,109.73400115966797 77.6050033569336,106.89800262451172 -2.125999927520752,106.89800262451172z">
                    </path>
                    <path stroke-linecap="butt" stroke-linejoin="miter" fill-opacity="0" stroke-miterlimit="10"
                        stroke="rgb(249,143,22)" stroke-opacity="1" stroke-width="5"
                        d=" M-2.125999927520752,106.89800262451172 C-81.4530029296875,106.89800262451172 -178.47300720214844,101.91400146484375 -178.47300720214844,22.454999923706055 C-178.47300720214844,13.97599983215332 -177.91400146484375,6.004000186920166 -176.83099365234375,-1.4859999418258667 C-164.47300720214844,-86.9800033569336 -99.31400299072266,-109.58399963378906 -2.125999927520752,-109.58399963378906 C96.3759994506836,-109.58399963378906 171.05599975585938,-80.18099975585938 177.9810028076172,29.836000442504883 C183.00999450683594,109.73400115966797 77.6050033569336,106.89800262451172 -2.125999927520752,106.89800262451172z">
                    </path>
                </g>
            </g>
            <g transform="matrix(0.9700000286102295,0,0,0.9700000286102295,60.393428802490234,359.294677734375)"
                opacity="1" style="display: block;">
                <g opacity="1" transform="matrix(1,0,0,1,37.50400161743164,47.99700164794922)">
                    <path stroke-linecap="round" stroke-linejoin="round" fill-opacity="0" stroke="rgb(251,237,32)"
                        stroke-opacity="1" stroke-width="5"
                        d=" M-8.895000457763672,-21.524999618530273 C-8.8149995803833,-3.946000099182129 -3.9579999446868896,12.902000427246094 10.204000473022461,24.670000076293945">
                    </path>
                </g>
            </g>
            <g transform="matrix(0.9700000286102295,0,0,0.9700000286102295,39.179237365722656,19.770172119140625)"
                opacity="1" style="display: block;">
                <g opacity="1" transform="matrix(1,0,0,1,214.0070037841797,171.6719970703125)">
                    <path fill="rgb(255,212,39)" fill-opacity="1"
                        d=" M-137.64100646972656,146.6719970703125 C-170.13699340820312,119.87999725341797 -189.0070037841797,82.43299865722656 -189.0070037841797,38.50600051879883 C-189.0070037841797,-54.81100082397461 -104.38700103759766,-146.6719970703125 0,-146.6719970703125 C104.38600158691406,-146.6719970703125 189.0070037841797,-54.81100082397461 189.0070037841797,38.50600051879883 C189.0070037841797,82.552001953125 170.04100036621094,119.83100128173828 137.9510040283203,146.41299438476562">
                    </path>
                    <path stroke-linecap="round" stroke-linejoin="round" fill-opacity="0" stroke="rgb(249,143,22)"
                        stroke-opacity="1" stroke-width="5"
                        d=" M-137.64100646972656,146.6719970703125 C-170.13699340820312,119.87999725341797 -189.0070037841797,82.43299865722656 -189.0070037841797,38.50600051879883 C-189.0070037841797,-54.81100082397461 -104.38700103759766,-146.6719970703125 0,-146.6719970703125 C104.38600158691406,-146.6719970703125 189.0070037841797,-54.81100082397461 189.0070037841797,38.50600051879883 C189.0070037841797,82.552001953125 170.04100036621094,119.83100128173828 137.9510040283203,146.41299438476562">
                    </path>
                </g>
            </g>
            <g transform="matrix(0.9700000286102295,0,0,0.9700000286102295,382.9297790527344,197.46060180664062)"
                opacity="1" style="display: block;">
                <g opacity="1" transform="matrix(1,0,0,1,26.43199920654297,38.152000427246094)">
                    <path stroke-linecap="round" stroke-linejoin="round" fill-opacity="0" stroke="rgb(255,255,255)"
                        stroke-opacity="1" stroke-width="5"
                        d=" M-1.3849999904632568,12.942000389099121 C0.39100000262260437,4.979000091552734 1.3519999980926514,-3.3589999675750732 1.4270000457763672,-12.041000366210938">
                    </path>
                </g>
            </g>
            <g transform="matrix(0.9700000286102295,0,0,0.9700000286102295,222.51602172851562,43.20245361328125)"
                opacity="1" style="display: block;">
                <g opacity="1" transform="matrix(1,0,0,1,103.31900024414062,77.02200317382812)">
                    <path stroke-linecap="round" stroke-linejoin="round" fill-opacity="0" stroke="rgb(255,255,255)"
                        stroke-opacity="1" stroke-width="5"
                        d=" M77.81400299072266,50.847999572753906 C64.0739974975586,19.280000686645508 39.465999603271484,-8.791000366210938 8.27400016784668,-27.601999282836914 C-4,-35.00400161743164 -17.29199981689453,-40.97100067138672 -31.341999053955078,-45.15399932861328">
                    </path>
                </g>
            </g>
            <g transform="matrix(0.9700000286102295,0,0,0.9700000286102295,59.324195861816406,86.73994445800781)"
                opacity="1" style="display: block;">
                <g opacity="1" transform="matrix(1,0,0,1,52.07099914550781,124.19400024414062)">
                    <path stroke-linecap="round" stroke-linejoin="round" fill-opacity="0" stroke="rgb(251,237,32)"
                        stroke-opacity="1" stroke-width="5"
                        d=" M25.73200035095215,-97.96800231933594 C-6.7789998054504395,-67.90299987792969 -27.070999145507812,-26.645000457763672 -27.070999145507812,14.949999809265137 C-27.070999145507812,45.36199951171875 -16.224000930786133,71.58399963378906 2.315999984741211,92.41500091552734">
                    </path>
                </g>
            </g>
            <g transform="matrix(1.0227395296096802,-0.2252943068742752,0.2151273638010025,0.9765859842300415,110.39457702636719,223.541259765625)"
                opacity="1" style="display: block;">
                <g opacity="1" transform="matrix(1,0,0,1,23.878000259399414,29.617000579833984)">
                    <path fill="rgb(0,0,0)" fill-opacity="1"
                        d=" M17.87700080871582,9.005000114440918 C10.38700008392334,22.391000747680664 1.4950000047683716,26.882999420166016 -11.13700008392334,22.94300079345703 C-20.957000732421875,19.881000518798828 -25.027000427246094,4.565999984741211 -17.87700080871582,-9.003999710083008 C-10.727999687194824,-22.575000762939453 3.8440001010894775,-29.367000579833984 12.944999694824219,-24.57200050354004 C22.04599952697754,-19.777000427246094 28.20400047302246,-9.451000213623047 17.87700080871582,9.005000114440918z">
                    </path>
                </g>
            </g>
            <g transform="matrix(0.2969319522380829,-0.06540969759225845,0.06245792657136917,0.28353220224380493,140.32388305664062,228.23074340820312)"
                opacity="1" style="display: block;">
                <g opacity="1" transform="matrix(1,0,0,1,23.878000259399414,29.617000579833984)">
                    <path fill="rgb(255,255,255)" fill-opacity="1"
                        d=" M16.479000091552734,8.682000160217285 C9.329000473022461,22.253000259399414 -3.8459999561309814,29.367000579833984 -12.946999549865723,24.572999954223633 C-22.047000885009766,19.777999877929688 -23.628999710083008,4.888999938964844 -16.479000091552734,-8.680999755859375 C-9.329999923706055,-22.25200080871582 3.8440001010894775,-29.367000579833984 12.944999694824219,-24.57200050354004 C22.04599952697754,-19.777000427246094 23.628999710083008,-4.888999938964844 16.479000091552734,8.682000160217285z">
                    </path>
                </g>
            </g>
            <g transform="matrix(1.0227395296096802,-0.2252943068742752,0.2151273638010025,0.9765859842300415,74.41490936279297,178.89308166503906)"
                opacity="1" style="display: block;">
                <g opacity="1" transform="matrix(1,0,0,1,55.020999908447266,40.564998626708984)">
                    <path stroke-linecap="round" stroke-linejoin="round" fill-opacity="0" stroke="rgb(0,0,0)"
                        stroke-opacity="1" stroke-width="5"
                        d=" M26.0939998626709,21.826000213623047 C0.9430000185966492,35.430999755859375 9.90999984741211,-18.819000244140625 -29.520999908447266,-1.4359999895095825">
                    </path>
                </g>
            </g>
            <g transform="matrix(1,0,0,1,271.08599853515625,222.4759979248047)" opacity="1" style="display: block;">
                <g opacity="1" transform="matrix(1,0,0,1,29.347999572753906,31.697999954223633)">
                    <path fill="rgb(0,0,0)" fill-opacity="1"
                        d=" M-21.792999267578125,11.482000350952148 C-14.48799991607666,25.347999572753906 1.190999984741211,31.447999954223633 13.22700023651123,25.10700035095215 C21.944000244140625,20.513999938964844 27.288999557495117,10.522000312805176 25.356000900268555,0.29899999499320984 C20.06599998474121,-27.67300033569336 -0.9330000281333923,-32.17399978637695 -13.22700023651123,-25.10700035095215 C-20.82699966430664,-20.738000869750977 -25.33300018310547,-12.765999794006348 -25.492000579833984,-3.7009999752044678 C-25.579999923706055,1.3009999990463257 -24.391000747680664,6.551000118255615 -21.792999267578125,11.482000350952148z">
                    </path>
                </g>
            </g>
            <g transform="matrix(0.2547999918460846,0,0,0.2547999918460846,297.95611572265625,231.09735107421875)"
                opacity="1" style="display: block;">
                <g opacity="1" transform="matrix(1,0,0,1,29.347999572753906,31.697999954223633)">
                    <path fill="rgb(255,255,255)" fill-opacity="1"
                        d=" M-21.792999267578125,11.482000350952148 C-14.48799991607666,25.347999572753906 1.190999984741211,31.447999954223633 13.22700023651123,25.10700035095215 C25.26300048828125,18.766000747680664 29.097999572753906,2.384000062942505 21.792999267578125,-11.482000350952148 C14.48799991607666,-25.347999572753906 -1.190999984741211,-31.447999954223633 -13.22700023651123,-25.10700035095215 C-25.26300048828125,-18.766000747680664 -29.097999572753906,-2.384000062942505 -21.792999267578125,11.482000350952148z">
                    </path>
                </g>
            </g>
            <g transform="matrix(1,0,0,1,266.7480163574219,181.3000030517578)" opacity="1" style="display: block;">
                <g opacity="1" transform="matrix(1,0,0,1,49.90399932861328,43.321998596191406)"></g>
            </g>
            <g transform="matrix(1,0,0,1,266.7480163574219,181.3000030517578)" opacity="1" style="display: block;">
                <g opacity="1" transform="matrix(1,0,0,1,49.90399932861328,43.321998596191406)">
                    <path stroke-linecap="round" stroke-linejoin="round" fill-opacity="0" stroke="rgb(0,0,0)"
                        stroke-opacity="1" stroke-width="5"
                        d=" M24.905000686645508,-18.179000854492188 C12.848999977111816,-67.12100219726562 -30.152000427246094,-68.12000274658203 -41.404998779296875,-35.8650016784668">
                    </path>
                </g>
            </g>
            <g transform="matrix(0.9700000286102295,0,0,0.9700000286102295,94.22837829589844,325.4924621582031)"
                opacity="1" style="display: block;">
                <g opacity="1" transform="matrix(1,0,0,1,74.0270004272461,81.75499725341797)">
                    <path fill="rgb(255,212,39)" fill-opacity="1"
                        d=" M-37.08399963378906,-41.30099868774414 C19.937000274658203,-56.755001068115234 43.77799987792969,-16.798999786376953 46.34600067138672,21.542999267578125 C48.17499923706055,48.84700012207031 14.23900032043457,56.698001861572266 6.7789998054504395,38.04600143432617 C-0.6819999814033508,19.393999099731445 -11.059000015258789,5.061999797821045 -37.172000885009766,14.654000282287598">
                    </path>
                    <path stroke-linecap="round" stroke-linejoin="round" fill-opacity="0" stroke="rgb(249,143,22)"
                        stroke-opacity="1" stroke-width="5"
                        d=" M-37.08399963378906,-41.30099868774414 C19.937000274658203,-56.755001068115234 43.77799987792969,-16.798999786376953 46.34600067138672,21.542999267578125 C48.17499923706055,48.84700012207031 14.23900032043457,56.698001861572266 6.7789998054504395,38.04600143432617 C-0.6819999814033508,19.393999099731445 -11.059000015258789,5.061999797821045 -37.172000885009766,14.654000282287598">
                    </path>
                </g>
            </g>
            <g transform="matrix(0.9700000286102295,0,0,0.9700000286102295,127.88641357421875,292.6598815917969)"
                opacity="1" style="display: block;">
                <g opacity="1" transform="matrix(1,0,0,1,90.81400299072266,112.93000030517578)">
                    <path fill="rgb(255,212,39)" fill-opacity="1"
                        d=" M65.81400299072266,42.099998474121094 C-65.81400299072266,87.93000030517578 -44.17103958129883,-45.29800033569336 -48.967037200927734,-53.82400131225586 C-53.763038635253906,-62.35100173950195 -67.0860366821289,-65.01399993896484 -66.02003479003906,-70.8759994506836 C-64.95404052734375,-76.73799896240234 -37.776039123535156,-87.93000030517578 -16.45903778076172,-71.94300079345703 C4.856961727142334,-55.95600128173828 10.925000190734863,-25.047000885009766 24.780000686645508,-14.388999938964844">
                    </path>
                    <path stroke-linecap="round" stroke-linejoin="round" fill-opacity="0" stroke="rgb(249,143,22)"
                        stroke-opacity="1" stroke-width="5"
                        d=" M65.81400299072266,42.099998474121094 C-65.81400299072266,87.93000030517578 -44.17103958129883,-45.29800033569336 -48.967037200927734,-53.82400131225586 C-53.763038635253906,-62.35100173950195 -67.0860366821289,-65.01399993896484 -66.02003479003906,-70.8759994506836 C-64.95404052734375,-76.73799896240234 -37.776039123535156,-87.93000030517578 -16.45903778076172,-71.94300079345703 C4.856961727142334,-55.95600128173828 10.925000190734863,-25.047000885009766 24.780000686645508,-14.388999938964844">
                    </path>
                </g>
            </g>
            <g transform="matrix(0.9700000286102295,0,0,0.9700000286102295,164.49517822265625,351.2081298828125)"
                opacity="1" style="display: block;">
                <g opacity="1" transform="matrix(1,0,0,1,48.60200119018555,56.79600143432617)">
                    <path stroke-linecap="round" stroke-linejoin="round" fill-opacity="0" stroke="rgb(251,237,32)"
                        stroke-opacity="1" stroke-width="5"
                        d=" M-27.91200065612793,-31.05299949645996 C-28.01799964904785,-15.663999557495117 -21.6299991607666,28.76300048828125 19.7549991607666,31.649999618530273">
                    </path>
                </g>
            </g>
            <g transform="matrix(0.9700000286102295,0,0,0.9700000286102295,154.95716857910156,312.53228759765625)"
                opacity="1" style="display: block;">
                <g opacity="1" transform="matrix(1,0,0,1,35.98099899291992,31.988000869750977)">
                    <path stroke-linecap="round" stroke-linejoin="round" fill-opacity="0" stroke="rgb(255,255,255)"
                        stroke-opacity="1" stroke-width="5"
                        d=" M-15.38700008392334,-6.011000156402588 C-5.863999843597412,-6.900000095367432 1.1419999599456787,-3.4260001182556152 5.849999904632568,5.947000026702881">
                    </path>
                </g>
            </g>
            <g transform="matrix(-0.6581792831420898,-0.3799999952316284,0.3799999952316284,-0.6581792831420898,235.86756896972656,234.62100219726562)"
                opacity="0.09" style="display: block;">
                <g opacity="1" transform="matrix(1,0,0,1,121.68299865722656,35.36800003051758)">
                    <path fill="rgb(140,98,57)" fill-opacity="1"
                        d=" M-4.138000011444092,20.819000244140625 C-4.138000011444092,20.819000244140625 15.961000442504883,-13.993000030517578 15.961000442504883,-13.993000030517578 C16.836999893188477,-15.508999824523926 17.069000244140625,-17.274999618530273 16.615999221801758,-18.965999603271484 C16.163000106811523,-20.656999588012695 15.07800006866455,-22.06999969482422 13.562000274658203,-22.94499969482422 C13.562000274658203,-22.94499969482422 13.09000015258789,-23.216999053955078 13.09000015258789,-23.216999053955078 C12.093999862670898,-23.79199981689453 10.963000297546387,-24.09600067138672 9.817999839782715,-24.09600067138672 C7.48199987411499,-24.09600067138672 5.306000232696533,-22.84000015258789 4.138000011444092,-20.819000244140625 C4.138000011444092,-20.819000244140625 -15.961000442504883,13.994999885559082 -15.961000442504883,13.994999885559082 C-16.836000442504883,15.510000228881836 -17.069000244140625,17.274999618530273 -16.615999221801758,18.965999603271484 C-16.163000106811523,20.656999588012695 -15.07699966430664,22.070999145507812 -13.560999870300293,22.94700050354004 C-13.560999870300293,22.94700050354004 -13.090999603271484,23.216999053955078 -13.090999603271484,23.216999053955078 C-12.095000267028809,23.79199981689453 -10.963000297546387,24.09600067138672 -9.817999839782715,24.09600067138672 C-7.48199987411499,24.09600067138672 -5.304999828338623,22.840999603271484 -4.138000011444092,20.819000244140625z">
                    </path>
                </g>
            </g>
            <g transform="matrix(-0.37999996542930603,-0.6581792831420898,0.6581792831420898,-0.37999996542930603,185.57164001464844,234.58595275878906)"
                opacity="0.18" style="display: block;">
                <g opacity="1" transform="matrix(1,0,0,1,121.68299865722656,35.36800003051758)">
                    <path fill="rgb(140,98,57)" fill-opacity="1"
                        d=" M-4.138000011444092,20.819000244140625 C-4.138000011444092,20.819000244140625 15.961000442504883,-13.993000030517578 15.961000442504883,-13.993000030517578 C16.836999893188477,-15.508999824523926 17.069000244140625,-17.274999618530273 16.615999221801758,-18.965999603271484 C16.163000106811523,-20.656999588012695 15.07800006866455,-22.06999969482422 13.562000274658203,-22.94499969482422 C13.562000274658203,-22.94499969482422 13.09000015258789,-23.216999053955078 13.09000015258789,-23.216999053955078 C12.093999862670898,-23.79199981689453 10.963000297546387,-24.09600067138672 9.817999839782715,-24.09600067138672 C7.48199987411499,-24.09600067138672 5.306000232696533,-22.84000015258789 4.138000011444092,-20.819000244140625 C4.138000011444092,-20.819000244140625 -15.961000442504883,13.994999885559082 -15.961000442504883,13.994999885559082 C-16.836000442504883,15.510000228881836 -17.069000244140625,17.274999618530273 -16.615999221801758,18.965999603271484 C-16.163000106811523,20.656999588012695 -15.07699966430664,22.070999145507812 -13.560999870300293,22.94700050354004 C-13.560999870300293,22.94700050354004 -13.090999603271484,23.216999053955078 -13.090999603271484,23.216999053955078 C-12.095000267028809,23.79199981689453 -10.963000297546387,24.09600067138672 -9.817999839782715,24.09600067138672 C-7.48199987411499,24.09600067138672 -5.304999828338623,22.840999603271484 -4.138000011444092,20.819000244140625z">
                    </path>
                </g>
            </g>
            <g transform="matrix(0,-0.7599999904632568,0.7599999904632568,0,142.0316162109375,209.4076385498047)"
                opacity="0.27" style="display: block;">
                <g opacity="1" transform="matrix(1,0,0,1,121.68299865722656,35.36800003051758)">
                    <path fill="rgb(140,98,57)" fill-opacity="1"
                        d=" M-4.138000011444092,20.819000244140625 C-4.138000011444092,20.819000244140625 15.961000442504883,-13.993000030517578 15.961000442504883,-13.993000030517578 C16.836999893188477,-15.508999824523926 17.069000244140625,-17.274999618530273 16.615999221801758,-18.965999603271484 C16.163000106811523,-20.656999588012695 15.07800006866455,-22.06999969482422 13.562000274658203,-22.94499969482422 C13.562000274658203,-22.94499969482422 13.09000015258789,-23.216999053955078 13.09000015258789,-23.216999053955078 C12.093999862670898,-23.79199981689453 10.963000297546387,-24.09600067138672 9.817999839782715,-24.09600067138672 C7.48199987411499,-24.09600067138672 5.306000232696533,-22.84000015258789 4.138000011444092,-20.819000244140625 C4.138000011444092,-20.819000244140625 -15.961000442504883,13.994999885559082 -15.961000442504883,13.994999885559082 C-16.836000442504883,15.510000228881836 -17.069000244140625,17.274999618530273 -16.615999221801758,18.965999603271484 C-16.163000106811523,20.656999588012695 -15.07699966430664,22.070999145507812 -13.560999870300293,22.94700050354004 C-13.560999870300293,22.94700050354004 -13.090999603271484,23.216999053955078 -13.090999603271484,23.216999053955078 C-12.095000267028809,23.79199981689453 -10.963000297546387,24.09600067138672 -9.817999839782715,24.09600067138672 C-7.48199987411499,24.09600067138672 -5.304999828338623,22.840999603271484 -4.138000011444092,20.819000244140625z">
                    </path>
                </g>
            </g>
            <g transform="matrix(0.3799999952316284,-0.6581792831420898,0.6581792831420898,0.3799999952316284,116.91400909423828,165.8325653076172)"
                opacity="0.36" style="display: block;">
                <g opacity="1" transform="matrix(1,0,0,1,121.68299865722656,35.36800003051758)">
                    <path fill="rgb(140,98,57)" fill-opacity="1"
                        d=" M-4.138000011444092,20.819000244140625 C-4.138000011444092,20.819000244140625 15.961000442504883,-13.993000030517578 15.961000442504883,-13.993000030517578 C16.836999893188477,-15.508999824523926 17.069000244140625,-17.274999618530273 16.615999221801758,-18.965999603271484 C16.163000106811523,-20.656999588012695 15.07800006866455,-22.06999969482422 13.562000274658203,-22.94499969482422 C13.562000274658203,-22.94499969482422 13.09000015258789,-23.216999053955078 13.09000015258789,-23.216999053955078 C12.093999862670898,-23.79199981689453 10.963000297546387,-24.09600067138672 9.817999839782715,-24.09600067138672 C7.48199987411499,-24.09600067138672 5.306000232696533,-22.84000015258789 4.138000011444092,-20.819000244140625 C4.138000011444092,-20.819000244140625 -15.961000442504883,13.994999885559082 -15.961000442504883,13.994999885559082 C-16.836000442504883,15.510000228881836 -17.069000244140625,17.274999618530273 -16.615999221801758,18.965999603271484 C-16.163000106811523,20.656999588012695 -15.07699966430664,22.070999145507812 -13.560999870300293,22.94700050354004 C-13.560999870300293,22.94700050354004 -13.090999603271484,23.216999053955078 -13.090999603271484,23.216999053955078 C-12.095000267028809,23.79199981689453 -10.963000297546387,24.09600067138672 -9.817999839782715,24.09600067138672 C-7.48199987411499,24.09600067138672 -5.304999828338623,22.840999603271484 -4.138000011444092,20.819000244140625z">
                    </path>
                </g>
            </g>
            <g transform="matrix(0.6581792831420898,-0.37999996542930603,0.37999996542930603,0.6581792831420898,116.94905090332031,115.53662872314453)"
                opacity="0.45" style="display: block;">
                <g opacity="1" transform="matrix(1,0,0,1,121.68299865722656,35.36800003051758)">
                    <path fill="rgb(140,98,57)" fill-opacity="1"
                        d=" M-4.138000011444092,20.819000244140625 C-4.138000011444092,20.819000244140625 15.961000442504883,-13.993000030517578 15.961000442504883,-13.993000030517578 C16.836999893188477,-15.508999824523926 17.069000244140625,-17.274999618530273 16.615999221801758,-18.965999603271484 C16.163000106811523,-20.656999588012695 15.07800006866455,-22.06999969482422 13.562000274658203,-22.94499969482422 C13.562000274658203,-22.94499969482422 13.09000015258789,-23.216999053955078 13.09000015258789,-23.216999053955078 C12.093999862670898,-23.79199981689453 10.963000297546387,-24.09600067138672 9.817999839782715,-24.09600067138672 C7.48199987411499,-24.09600067138672 5.306000232696533,-22.84000015258789 4.138000011444092,-20.819000244140625 C4.138000011444092,-20.819000244140625 -15.961000442504883,13.994999885559082 -15.961000442504883,13.994999885559082 C-16.836000442504883,15.510000228881836 -17.069000244140625,17.274999618530273 -16.615999221801758,18.965999603271484 C-16.163000106811523,20.656999588012695 -15.07699966430664,22.070999145507812 -13.560999870300293,22.94700050354004 C-13.560999870300293,22.94700050354004 -13.090999603271484,23.216999053955078 -13.090999603271484,23.216999053955078 C-12.095000267028809,23.79199981689453 -10.963000297546387,24.09600067138672 -9.817999839782715,24.09600067138672 C-7.48199987411499,24.09600067138672 -5.304999828338623,22.840999603271484 -4.138000011444092,20.819000244140625z">
                    </path>
                </g>
            </g>
            <g transform="matrix(0.7599999904632568,0,0,0.7599999904632568,142.12738037109375,71.99659729003906)"
                opacity="0.54" style="display: block;">
                <g opacity="1" transform="matrix(1,0,0,1,121.68299865722656,35.36800003051758)">
                    <path fill="rgb(140,98,57)" fill-opacity="1"
                        d=" M-4.138000011444092,20.819000244140625 C-4.138000011444092,20.819000244140625 15.961000442504883,-13.993000030517578 15.961000442504883,-13.993000030517578 C16.836999893188477,-15.508999824523926 17.069000244140625,-17.274999618530273 16.615999221801758,-18.965999603271484 C16.163000106811523,-20.656999588012695 15.07800006866455,-22.06999969482422 13.562000274658203,-22.94499969482422 C13.562000274658203,-22.94499969482422 13.09000015258789,-23.216999053955078 13.09000015258789,-23.216999053955078 C12.093999862670898,-23.79199981689453 10.963000297546387,-24.09600067138672 9.817999839782715,-24.09600067138672 C7.48199987411499,-24.09600067138672 5.306000232696533,-22.84000015258789 4.138000011444092,-20.819000244140625 C4.138000011444092,-20.819000244140625 -15.961000442504883,13.994999885559082 -15.961000442504883,13.994999885559082 C-16.836000442504883,15.510000228881836 -17.069000244140625,17.274999618530273 -16.615999221801758,18.965999603271484 C-16.163000106811523,20.656999588012695 -15.07699966430664,22.070999145507812 -13.560999870300293,22.94700050354004 C-13.560999870300293,22.94700050354004 -13.090999603271484,23.216999053955078 -13.090999603271484,23.216999053955078 C-12.095000267028809,23.79199981689453 -10.963000297546387,24.09600067138672 -9.817999839782715,24.09600067138672 C-7.48199987411499,24.09600067138672 -5.304999828338623,22.840999603271484 -4.138000011444092,20.819000244140625z">
                    </path>
                </g>
            </g>
            <g transform="matrix(0.6581792831420898,0.3799999952316284,-0.3799999952316284,0.6581792831420898,185.70245361328125,46.87899398803711)"
                opacity="0.63" style="display: block;">
                <g opacity="1" transform="matrix(1,0,0,1,121.68299865722656,35.36800003051758)">
                    <path fill="rgb(140,98,57)" fill-opacity="1"
                        d=" M-4.138000011444092,20.819000244140625 C-4.138000011444092,20.819000244140625 15.961000442504883,-13.993000030517578 15.961000442504883,-13.993000030517578 C16.836999893188477,-15.508999824523926 17.069000244140625,-17.274999618530273 16.615999221801758,-18.965999603271484 C16.163000106811523,-20.656999588012695 15.07800006866455,-22.06999969482422 13.562000274658203,-22.94499969482422 C13.562000274658203,-22.94499969482422 13.09000015258789,-23.216999053955078 13.09000015258789,-23.216999053955078 C12.093999862670898,-23.79199981689453 10.963000297546387,-24.09600067138672 9.817999839782715,-24.09600067138672 C7.48199987411499,-24.09600067138672 5.306000232696533,-22.84000015258789 4.138000011444092,-20.819000244140625 C4.138000011444092,-20.819000244140625 -15.961000442504883,13.994999885559082 -15.961000442504883,13.994999885559082 C-16.836000442504883,15.510000228881836 -17.069000244140625,17.274999618530273 -16.615999221801758,18.965999603271484 C-16.163000106811523,20.656999588012695 -15.07699966430664,22.070999145507812 -13.560999870300293,22.94700050354004 C-13.560999870300293,22.94700050354004 -13.090999603271484,23.216999053955078 -13.090999603271484,23.216999053955078 C-12.095000267028809,23.79199981689453 -10.963000297546387,24.09600067138672 -9.817999839782715,24.09600067138672 C-7.48199987411499,24.09600067138672 -5.304999828338623,22.840999603271484 -4.138000011444092,20.819000244140625z">
                    </path>
                </g>
            </g>
            <g transform="matrix(0.37999996542930603,0.6581792831420898,-0.6581792831420898,0.37999996542930603,235.99838256835938,46.91404724121094)"
                opacity="0.72" style="display: block;">
                <g opacity="1" transform="matrix(1,0,0,1,121.68299865722656,35.36800003051758)">
                    <path fill="rgb(140,98,57)" fill-opacity="1"
                        d=" M-4.138000011444092,20.819000244140625 C-4.138000011444092,20.819000244140625 15.961000442504883,-13.993000030517578 15.961000442504883,-13.993000030517578 C16.836999893188477,-15.508999824523926 17.069000244140625,-17.274999618530273 16.615999221801758,-18.965999603271484 C16.163000106811523,-20.656999588012695 15.07800006866455,-22.06999969482422 13.562000274658203,-22.94499969482422 C13.562000274658203,-22.94499969482422 13.09000015258789,-23.216999053955078 13.09000015258789,-23.216999053955078 C12.093999862670898,-23.79199981689453 10.963000297546387,-24.09600067138672 9.817999839782715,-24.09600067138672 C7.48199987411499,-24.09600067138672 5.306000232696533,-22.84000015258789 4.138000011444092,-20.819000244140625 C4.138000011444092,-20.819000244140625 -15.961000442504883,13.994999885559082 -15.961000442504883,13.994999885559082 C-16.836000442504883,15.510000228881836 -17.069000244140625,17.274999618530273 -16.615999221801758,18.965999603271484 C-16.163000106811523,20.656999588012695 -15.07699966430664,22.070999145507812 -13.560999870300293,22.94700050354004 C-13.560999870300293,22.94700050354004 -13.090999603271484,23.216999053955078 -13.090999603271484,23.216999053955078 C-12.095000267028809,23.79199981689453 -10.963000297546387,24.09600067138672 -9.817999839782715,24.09600067138672 C-7.48199987411499,24.09600067138672 -5.304999828338623,22.840999603271484 -4.138000011444092,20.819000244140625z">
                    </path>
                </g>
            </g>
            <g transform="matrix(0,0.7599999904632568,-0.7599999904632568,0,279.53839111328125,72.09236907958984)"
                opacity="0.81" style="display: block;">
                <g opacity="1" transform="matrix(1,0,0,1,121.68299865722656,35.36800003051758)">
                    <path fill="rgb(140,98,57)" fill-opacity="1"
                        d=" M-4.138000011444092,20.819000244140625 C-4.138000011444092,20.819000244140625 15.961000442504883,-13.993000030517578 15.961000442504883,-13.993000030517578 C16.836999893188477,-15.508999824523926 17.069000244140625,-17.274999618530273 16.615999221801758,-18.965999603271484 C16.163000106811523,-20.656999588012695 15.07800006866455,-22.06999969482422 13.562000274658203,-22.94499969482422 C13.562000274658203,-22.94499969482422 13.09000015258789,-23.216999053955078 13.09000015258789,-23.216999053955078 C12.093999862670898,-23.79199981689453 10.963000297546387,-24.09600067138672 9.817999839782715,-24.09600067138672 C7.48199987411499,-24.09600067138672 5.306000232696533,-22.84000015258789 4.138000011444092,-20.819000244140625 C4.138000011444092,-20.819000244140625 -15.961000442504883,13.994999885559082 -15.961000442504883,13.994999885559082 C-16.836000442504883,15.510000228881836 -17.069000244140625,17.274999618530273 -16.615999221801758,18.965999603271484 C-16.163000106811523,20.656999588012695 -15.07699966430664,22.070999145507812 -13.560999870300293,22.94700050354004 C-13.560999870300293,22.94700050354004 -13.090999603271484,23.216999053955078 -13.090999603271484,23.216999053955078 C-12.095000267028809,23.79199981689453 -10.963000297546387,24.09600067138672 -9.817999839782715,24.09600067138672 C-7.48199987411499,24.09600067138672 -5.304999828338623,22.840999603271484 -4.138000011444092,20.819000244140625z">
                    </path>
                </g>
            </g>
            <g transform="matrix(-0.3799999952316284,0.6581792831420898,-0.6581792831420898,-0.3799999952316284,304.656005859375,115.66744232177734)"
                opacity="0.9" style="display: block;">
                <g opacity="1" transform="matrix(1,0,0,1,121.68299865722656,35.36800003051758)">
                    <path fill="rgb(140,98,57)" fill-opacity="1"
                        d=" M-4.138000011444092,20.819000244140625 C-4.138000011444092,20.819000244140625 15.961000442504883,-13.993000030517578 15.961000442504883,-13.993000030517578 C16.836999893188477,-15.508999824523926 17.069000244140625,-17.274999618530273 16.615999221801758,-18.965999603271484 C16.163000106811523,-20.656999588012695 15.07800006866455,-22.06999969482422 13.562000274658203,-22.94499969482422 C13.562000274658203,-22.94499969482422 13.09000015258789,-23.216999053955078 13.09000015258789,-23.216999053955078 C12.093999862670898,-23.79199981689453 10.963000297546387,-24.09600067138672 9.817999839782715,-24.09600067138672 C7.48199987411499,-24.09600067138672 5.306000232696533,-22.84000015258789 4.138000011444092,-20.819000244140625 C4.138000011444092,-20.819000244140625 -15.961000442504883,13.994999885559082 -15.961000442504883,13.994999885559082 C-16.836000442504883,15.510000228881836 -17.069000244140625,17.274999618530273 -16.615999221801758,18.965999603271484 C-16.163000106811523,20.656999588012695 -15.07699966430664,22.070999145507812 -13.560999870300293,22.94700050354004 C-13.560999870300293,22.94700050354004 -13.090999603271484,23.216999053955078 -13.090999603271484,23.216999053955078 C-12.095000267028809,23.79199981689453 -10.963000297546387,24.09600067138672 -9.817999839782715,24.09600067138672 C-7.48199987411499,24.09600067138672 -5.304999828338623,22.840999603271484 -4.138000011444092,20.819000244140625z">
                    </path>
                </g>
            </g>
            <g transform="matrix(-0.6581792831420898,0.37999996542930603,-0.37999996542930603,-0.6581792831420898,304.6209716796875,165.96336364746094)"
                opacity="1" style="display: block;">
                <g opacity="1" transform="matrix(1,0,0,1,121.68299865722656,35.36800003051758)">
                    <path fill="rgb(140,98,57)" fill-opacity="1"
                        d=" M-4.138000011444092,20.819000244140625 C-4.138000011444092,20.819000244140625 15.961000442504883,-13.993000030517578 15.961000442504883,-13.993000030517578 C16.836999893188477,-15.508999824523926 17.069000244140625,-17.274999618530273 16.615999221801758,-18.965999603271484 C16.163000106811523,-20.656999588012695 15.07800006866455,-22.06999969482422 13.562000274658203,-22.94499969482422 C13.562000274658203,-22.94499969482422 13.09000015258789,-23.216999053955078 13.09000015258789,-23.216999053955078 C12.093999862670898,-23.79199981689453 10.963000297546387,-24.09600067138672 9.817999839782715,-24.09600067138672 C7.48199987411499,-24.09600067138672 5.306000232696533,-22.84000015258789 4.138000011444092,-20.819000244140625 C4.138000011444092,-20.819000244140625 -15.961000442504883,13.994999885559082 -15.961000442504883,13.994999885559082 C-16.836000442504883,15.510000228881836 -17.069000244140625,17.274999618530273 -16.615999221801758,18.965999603271484 C-16.163000106811523,20.656999588012695 -15.07699966430664,22.070999145507812 -13.560999870300293,22.94700050354004 C-13.560999870300293,22.94700050354004 -13.090999603271484,23.216999053955078 -13.090999603271484,23.216999053955078 C-12.095000267028809,23.79199981689453 -10.963000297546387,24.09600067138672 -9.817999839782715,24.09600067138672 C-7.48199987411499,24.09600067138672 -5.304999828338623,22.840999603271484 -4.138000011444092,20.819000244140625z">
                    </path>
                </g>
            </g>
            <g transform="matrix(-0.7599999904632568,0,0,-0.7599999904632568,279.4426574707031,209.50338745117188)"
                opacity="1" style="display: block;">
                <g opacity="1" transform="matrix(1,0,0,1,121.68299865722656,35.36800003051758)">
                    <path fill="rgb(140,98,57)" fill-opacity="1"
                        d=" M-4.138000011444092,20.819000244140625 C-4.138000011444092,20.819000244140625 15.961000442504883,-13.993000030517578 15.961000442504883,-13.993000030517578 C16.836999893188477,-15.508999824523926 17.069000244140625,-17.274999618530273 16.615999221801758,-18.965999603271484 C16.163000106811523,-20.656999588012695 15.07800006866455,-22.06999969482422 13.562000274658203,-22.94499969482422 C13.562000274658203,-22.94499969482422 13.09000015258789,-23.216999053955078 13.09000015258789,-23.216999053955078 C12.093999862670898,-23.79199981689453 10.963000297546387,-24.09600067138672 9.817999839782715,-24.09600067138672 C7.48199987411499,-24.09600067138672 5.306000232696533,-22.84000015258789 4.138000011444092,-20.819000244140625 C4.138000011444092,-20.819000244140625 -15.961000442504883,13.994999885559082 -15.961000442504883,13.994999885559082 C-16.836000442504883,15.510000228881836 -17.069000244140625,17.274999618530273 -16.615999221801758,18.965999603271484 C-16.163000106811523,20.656999588012695 -15.07699966430664,22.070999145507812 -13.560999870300293,22.94700050354004 C-13.560999870300293,22.94700050354004 -13.090999603271484,23.216999053955078 -13.090999603271484,23.216999053955078 C-12.095000267028809,23.79199981689453 -10.963000297546387,24.09600067138672 -9.817999839782715,24.09600067138672 C-7.48199987411499,24.09600067138672 -5.304999828338623,22.840999603271484 -4.138000011444092,20.819000244140625z">
                    </path>
                </g>
            </g>
            <g transform="matrix(1,0,0,1,100.82000732421875,234.91000366210938)" opacity="1" style="display: block;">
                <g opacity="1" transform="matrix(1,0,0,1,108.7969970703125,60.395999908447266)">
                    <path fill="rgb(255,93,31)" fill-opacity="1"
                        d=" M-65.75,28.121000289916992 C-52.37799835205078,28.795000076293945 -11.663000106811523,25.051000595092773 13.5,25.051000595092773 C38.02899932861328,25.051000595092773 48.59400177001953,28.37700080871582 64.87999725341797,33.387001037597656 C85.38300323486328,39.694000244140625 101.38300323486328,9.694000244140625 68.90799713134766,0.4519999921321869 C23.875,-12.36400032043457 33.803001403808594,-48.652000427246094 8.583999633789062,-49.229000091552734 C-16.617000579833984,-49.805999755859375 -22.617000579833984,-3.805000066757202 -64.5989990234375,-2.446000099182129 C-80.64900207519531,-1.9259999990463257 -84.11599731445312,27.19499969482422 -65.75,28.121000289916992z">
                    </path>
                    <path stroke-linecap="butt" stroke-linejoin="miter" fill-opacity="0" stroke-miterlimit="10"
                        stroke="rgb(207,53,2)" stroke-opacity="1" stroke-width="8"
                        d=" M-65.75,28.121000289916992 C-52.37799835205078,28.795000076293945 -11.663000106811523,25.051000595092773 13.5,25.051000595092773 C38.02899932861328,25.051000595092773 48.59400177001953,28.37700080871582 64.87999725341797,33.387001037597656 C85.38300323486328,39.694000244140625 101.38300323486328,9.694000244140625 68.90799713134766,0.4519999921321869 C23.875,-12.36400032043457 33.803001403808594,-48.652000427246094 8.583999633789062,-49.229000091552734 C-16.617000579833984,-49.805999755859375 -22.617000579833984,-3.805000066757202 -64.5989990234375,-2.446000099182129 C-80.64900207519531,-1.9259999990463257 -84.11599731445312,27.19499969482422 -65.75,28.121000289916992z">
                    </path>
                </g>
            </g>
            <g transform="matrix(1,0,0,1,138.37100219726562,236.99899291992188)" opacity="1" style="display: block;">
                <g opacity="1" transform="matrix(1,0,0,1,51.09600067138672,42.229000091552734)">
                    <path stroke-linecap="round" stroke-linejoin="round" fill-opacity="0" stroke="rgb(255,180,132)"
                        stroke-opacity="1" stroke-width="8"
                        d=" M57.98400115966797,13.84000015258789 C49.07500076293945,8.673999786376953 44.744998931884766,1.0920000076293945 31.834999084472656,-21.95199966430664">
                    </path>
                </g>
            </g>
            <g transform="matrix(1,0,0,1,111.05400848388672,276.23699951171875)" opacity="1" style="display: block;">
                <g opacity="1" transform="matrix(1,0,0,1,91.12799835205078,30.975000381469727)">
                    <path stroke-linecap="round" stroke-linejoin="round" fill-opacity="0" stroke="rgb(125,9,9)"
                        stroke-opacity="1" stroke-width="7.2"
                        d=" M74.62899780273438,6.127999782562256 C16.319000244140625,-18.709999084472656 -13.682000160217285,9.289999961853027 -55.12900161743164,0.17100000381469727">
                    </path>
                </g>
            </g>
        </g>
    </g>
</svg>