<?xml version="1.0" standalone="no"?>
<!DOCTYPE svg PUBLIC "-//W3C//DTD SVG 20010904//EN"
 "http://www.w3.org/TR/2001/REC-SVG-20010904/DTD/svg10.dtd">
<svg version="1.0" xmlns="http://www.w3.org/2000/svg"
 width="700.000000pt" height="700.000000pt" viewBox="0 0 700.000000 700.000000"
 preserveAspectRatio="xMidYMid meet">
<metadata>
Created by potrace 1.14, written by Peter Selinger 2001-2017
</metadata>
<g transform="translate(0.000000,700.000000) scale(0.100000,-0.100000)"
fill="#000000" stroke="none">
<path d="M3187 6575 c-1 -1 -45 -5 -97 -9 -126 -9 -211 -20 -310 -42 -14 -3
-36 -7 -50 -10 -29 -5 -47 -11 -190 -55 -58 -18 -114 -38 -125 -46 -11 -7 -26
-13 -33 -13 -22 0 -229 -103 -332 -166 -504 -305 -907 -804 -1093 -1354 -76
-224 -108 -375 -124 -575 -18 -222 -4 -425 42 -630 13 -55 22 -101 21 -101 0
-1 -91 -61 -201 -134 -110 -73 -210 -142 -222 -153 -32 -29 -31 -81 2 -103 23
-15 40 -15 110 2 62 14 335 77 352 80 12 2 34 9 48 14 21 8 27 7 32 -8 12 -32
115 -196 165 -265 32 -42 57 -91 69 -132 21 -70 41 -88 89 -83 21 2 38 -7 71
-37 24 -22 57 -51 74 -63 23 -19 27 -26 19 -40 -128 -206 -221 -497 -242 -757
-12 -144 -5 -386 14 -478 2 -12 6 -40 9 -62 50 -384 346 -641 902 -781 74 -19
147 -36 162 -39 91 -16 285 -45 336 -50 33 -3 78 -8 100 -10 42 -5 138 -11
290 -20 341 -20 1170 -20 1411 -1 71 6 230 24 259 30 11 2 43 7 70 10 41 6
131 23 215 41 395 85 737 276 909 508 62 85 129 232 152 337 26 120 29 299 5
420 -13 69 -73 272 -101 341 -5 13 2 15 48 11 139 -11 183 101 111 286 -56
147 -79 197 -125 274 -133 220 -342 398 -570 482 l-45 17 43 83 c75 146 167
394 199 541 16 74 34 182 40 241 15 135 9 384 -11 484 -3 14 -8 41 -11 60 -33
204 -162 529 -297 746 -225 362 -521 647 -922 885 -144 85 -474 221 -595 244
-12 2 -30 7 -40 10 -20 6 -36 10 -115 26 -124 24 -262 39 -398 43 -64 1 -118
2 -120 1z"/>
</g>
</svg>
